<?xml version="1.0" encoding="UTF-8" standalone="no"?>
<svg
   xmlns:dc="http://purl.org/dc/elements/1.1/"
   xmlns:cc="http://creativecommons.org/ns#"
   xmlns:rdf="http://www.w3.org/1999/02/22-rdf-syntax-ns#"
   xmlns:svg="http://www.w3.org/2000/svg"
   xmlns="http://www.w3.org/2000/svg"
   height="60"
   id="Layer_1"
   version="1.1"
   viewBox="0 0 60 60"
   width="60"
   xml:space="preserve">
  <metadata id="metadata9">
    <rdf:RDF>
      <cc:Work
         rdf:about="">
	<dc:format>image/svg+xml</dc:format>
	<dc:type rdf:resource="http://purl.org/dc/dcmitype/StillImage" />
	<dc:title>Linkedin icon</dc:title>
      </cc:Work>
    </rdf:RDF>
  </metadata>
  <defs id="defs7" />
  <path
     d="m 46.837,44.137 0,-11.712 c 0,-6.274 -3.35,-9.194 -7.816,-9.194 -3.604,0 -5.219,1.982 -6.119,3.373 l 0,-2.894 -6.79,0 c 0.09,1.917 0,20.428 0,20.428 l 6.79,0 0,-11.409 c 0,-0.61 0.044,-1.22 0.224,-1.657 0.49,-1.219 1.607,-2.482 3.482,-2.482 2.458,0 3.44,1.873 3.44,4.618 l 0,10.929 6.789,0 z M 18.959,20.922 c 2.367,0 3.842,-1.569 3.842,-3.531 -0.044,-2.003 -1.475,-3.528 -3.797,-3.528 -2.322,0 -3.841,1.525 -3.841,3.528 0,1.962 1.474,3.531 3.753,3.531 l 0.043,0 z m 3.395,23.215 0,-20.427 -6.789,0 0,20.427 6.789,0 z M 0,0 60,0 60,60 0,60 0,0 Z"
     style="clip-rule:evenodd;fill:#3c948b;fill-rule:evenodd;fill-opacity:1"
     id="path3"/>
</svg>
