<?xml version="1.0" encoding="UTF-8" standalone="no"?>
<svg
   xmlns:dc="http://purl.org/dc/elements/1.1/"
   xmlns:cc="http://creativecommons.org/ns#"
   xmlns:rdf="http://www.w3.org/1999/02/22-rdf-syntax-ns#"
   xmlns:svg="http://www.w3.org/2000/svg"
   xmlns="http://www.w3.org/2000/svg"
   height="128"
   width="128"
   id="Layer_1"
   version="1.1"
   viewBox="0 0 128 128">
  <metadata>
    <rdf:RDF>
      <cc:Work rdf:about="">
	<dc:format>image/svg+xml</dc:format>
	<dc:type rdf:resource="http://purl.org/dc/dcmitype/StillImage" />
	<dc:title></dc:title>
      </cc:Work>
    </rdf:RDF>
  </metadata>
  <g>
    <rect
       height="128"
       width="128"
       x="0"
       y="0"
       style="fill:#3c948b;fill-opacity:1;stroke:none" />
    <path
       style="fill:#ffffff"
       d="M 42.12,109.688 C 41.633,105.952 41.122,97.65 42.332,92.464 43.419,87.778 49.37,62.62 49.37,62.62 c 0,0 -1.798,-3.597 -1.798,-8.91 0,-8.358 4.839,-14.584 10.867,-14.584 5.122,0 7.593,3.844 7.593,8.459 0,5.144 -3.279,12.852 -4.971,19.992 -1.413,5.972 2.999,10.843 8.889,10.843 10.676,0 18.881,-11.251 18.881,-27.494 0,-14.375 -10.328,-24.429 -25.083,-24.429 -17.085,0 -27.11,12.817 -27.11,26.06 0,5.161 1.988,10.694 4.467,13.7 0.491,0.599 0.562,1.114 0.415,1.723 -0.454,1.894 -1.468,5.974 -1.667,6.81 -0.262,1.101 -0.868,1.33 -2.01,0.804 C 30.348,72.103 25.657,61.136 25.657,52.331 25.657,33.396 39.421,16 65.331,16 c 20.826,0 37.012,14.84 37.012,34.681 0,20.684 -13.045,37.344 -31.148,37.344 -6.094,0 -11.808,-3.165 -13.766,-6.896 0,0 -3.012,11.465 -3.744,14.271 -1.354,5.219 -5.845,13.264 -7.461,15.743 -1.617,2.479 -3.166,4.856 -3.166,4.856 0,0 -0.452,-2.57 -0.938,-6.311 z" />
  </g>
</svg>
