<?xml version="1.0" encoding="UTF-8" standalone="yes"?>
<svg
   xmlns:dc="http://purl.org/dc/elements/1.1/"
   xmlns:cc="http://creativecommons.org/ns#"
   xmlns:rdf="http://www.w3.org/1999/02/22-rdf-syntax-ns#"
   xmlns:svg="http://www.w3.org/2000/svg"
   xmlns="http://www.w3.org/2000/svg"
   height="60"
   id="Layer_1"
   version="1.1"
   viewBox="0 0 60 60"
   width="60"
   xml:space="preserve">
  <metadata id="metadata27">
    <rdf:RDF>
      <cc:Work rdf:about="">
	<dc:format>image/svg+xml</dc:format>
	<dc:type
           rdf:resource="http://purl.org/dc/dcmitype/StillImage" />
	<dc:title>Twitter icon</dc:title>
      </cc:Work>
    </rdf:RDF>
  </metadata>
  <defs id="defs25" />
    <path
     d="m 34.167,18.283 c -2.619,0.953 -4.274,3.411 -4.086,6.101 l 0.063,1.038 -1.048,-0.127 C 25.283,24.808 21.951,23.156 19.122,20.38 l -1.383,-1.377 -0.356,1.017 c -0.754,2.268 -0.272,4.661 1.299,6.271 0.838,0.89 0.649,1.017 -0.796,0.487 -0.503,-0.169 -0.943,-0.296 -0.985,-0.233 -0.146,0.149 0.356,2.076 0.754,2.839 0.545,1.06 1.655,2.098 2.871,2.712 l 1.027,0.487 -1.215,0.021 c -1.173,0 -1.215,0.021 -1.089,0.466 0.419,1.377 2.074,2.839 3.918,3.475 l 1.299,0.444 -1.131,0.678 c -1.676,0.975 -3.646,1.525 -5.616,1.568 C 16.775,39.256 16,39.341 16,39.404 c 0,0.212 2.557,
       1.398 4.044,1.864 4.463,1.377 9.765,0.784 13.746,-1.567 2.829,-1.674 5.657,-5 6.978,-8.22 0.713,-1.716 1.425,-4.852 1.425,-6.355 0,-0.975 0.063,-1.102 1.236,-2.267 0.692,-0.679 1.341,-1.419 1.467,-1.631 0.21,-0.403 0.188,-0.403 -0.88,-0.044 -1.781,0.637 -2.033,0.552 -1.152,-0.401 0.649,-0.678 1.425,-1.907 1.425,-2.268 0,-0.062 -0.314,0.042 -0.671,0.233 -0.377,0.212 -1.215,0.53 -1.844,0.72 l -1.131,0.361 -1.027,-0.7 C 39.05,18.748 38.255,18.324 37.835,18.197 36.766,17.902 35.131,17.944 34.167,18.283 Z M 0,0 60,0 60,60 0,60 0,0 Z"
     style="clip-rule:evenodd;fill:#3c948b;fill-rule:evenodd;fill-opacity:1"
     id="path21" />
</svg>