<?xml version="1.0" encoding="UTF-8" standalone="no"?><svg xmlns="http://www.w3.org/2000/svg" xmlns:xlink="http://www.w3.org/1999/xlink" contentScriptType="text/ecmascript" contentStyleType="text/css" preserveAspectRatio="xMidYMid meet" version="1.0" viewBox="0 0 3193 2764" width="886px" zoomAndPan="magnify"><title content="structured text">Grand Paris Express et plan Ile-de-france</title><image height="100%" opacity=".7" preserveAspectRatio="xMidYMid meet" width="100%" x="0" xlink:actuate="onLoad" xlink:href="paris_bg.jpg" xlink:show="embed" xlink:type="simple" y="0"/>
  <a xlink:actuate="onRequest" xlink:show="replace" xlink:title="1 km" xlink:type="simple"><path d="M 6.50,2744.00            C 6.50,2744.00 87.50,2744.00 87.50,2744.00" fill="none" id="1 km" stroke="black" stroke-width="1"/></a>
  <a xlink:actuate="onRequest" xlink:href="http://localhost/plan-ile-de-france/page/prol/649316/m11-est" xlink:show="replace" xlink:title="M11 Est - Noisy-Champs" xlink:type="simple"><path d="M 2950.00,1472.00            C 2950.00,1472.00 2956.43,1401.56 2935.00,1339.50              2920.29,1296.92 2888.50,1267.50 2842.00,1275.00              2824.81,1277.77 2803.19,1266.78 2789.00,1248.00              2779.52,1235.46 2776.63,1217.82 2768.50,1204.50              2762.68,1194.97 2755.22,1191.26 2750.00,1184.50              2743.89,1176.59 2740.36,1166.20 2738.50,1163.00              2729.50,1147.50 2694.72,1136.03 2668.50,1126.50              2661.09,1123.81 2654.37,1118.46 2647.00,1116.00              2627.21,1109.39 2602.91,1134.01 2580.50,1131.00              2576.75,1130.50 2570.19,1125.79 2564.00,1125.00              2553.48,1123.66 2542.28,1125.90 2535.00,1123.00              2525.79,1119.34 2529.18,1113.33 2518.50,1110.00              2506.14,1106.14 2496.75,1102.54 2480.50,1104.50              2467.07,1106.12 2444.00,1130.00 2406.50,1156.50              2369.00,1183.00 2356.98,1141.99 2348.50,1128.00              2342.86,1118.69 2320.00,1062.50 2268.50,1132.50              2260.34,1143.60 2258.00,1196.50 2235.00,1190.50              2212.00,1184.50 2228.00,1163.00 2192.00,1161.50              2183.80,1161.16 2175.40,1164.22 2169.00,1160.50              2160.40,1155.51 2157.43,1146.57 2150.50,1138.50              2139.93,1126.19 2127.73,1119.23 2114.00,1117.50              2090.44,1114.54 2065.26,1128.81 2040.50,1135.50              1994.93,1147.82 1958.50,1155.50 1958.50,1155.50M 2962.00,1439.00" fill="none" id="M11 Est" stroke="#8e6538" stroke-width="6"/></a>
  <a xlink:actuate="onRequest" xlink:href="http://localhost/plan-ile-de-france/page/prol/180im8k/m14-nord-saint-lazare-pleyel" xlink:show="replace" xlink:title="M14 Nord - Pleyel" xlink:type="simple"><path d="M 1546.00,795.50            C 1515.00,829.50 1498.99,848.04 1443.00,909.50              1416.78,938.28 1369.58,959.06 1359.00,995.50              1356.45,1004.29 1370.28,1010.24 1372.00,1021.50              1373.93,1034.17 1364.23,1052.22 1370.00,1062.50              1382.21,1084.26 1400.92,1096.60 1414.00,1118.50              1431.20,1147.30 1433.00,1184.50 1433.00,1184.50M -73.00,364.00" fill="none" id="M14 Nord" stroke="#67328e" stroke-width="6"/></a>
  <a xlink:actuate="onRequest" xlink:href="http://localhost/plan-ile-de-france/page/prol/12n8h07/m14-sud-olympiades-vigneux" xlink:show="replace" xlink:title="M14 Sud - Vigneux" xlink:type="simple"><path d="M 1679.00,1615.50            C 1679.00,1615.50 1650.98,1626.27 1636.00,1651.50              1621.71,1675.56 1633.23,1680.27 1621.00,1714.50              1619.05,1719.96 1615.75,1729.50 1607.50,1739.00              1598.40,1749.48 1583.96,1760.25 1574.50,1773.50              1561.09,1792.28 1553.17,1813.63 1549.00,1828.50              1544.98,1842.86 1542.08,1860.90 1543.00,1878.00              1543.76,1892.06 1548.10,1905.12 1548.00,1918.00              1547.83,1939.77 1541.59,1958.89 1538.00,1976.50              1535.63,1988.11 1536.58,1999.19 1533.50,2009.50              1529.35,2023.40 1527.69,2073.80 1522.00,2092.50              1515.83,2112.77 1504.69,2132.43 1505.00,2145.00              1505.75,2175.75 1523.10,2189.65 1536.50,2205.00              1549.63,2220.04 1558.64,2236.55 1575.50,2263.00              1596.18,2295.43 1585.53,2342.83 1604.50,2377.00              1617.70,2400.77 1646.51,2403.01 1663.50,2420.50              1689.36,2447.12 1698.00,2480.00 1698.00,2480.00              1698.00,2480.00 1699.00,2485.50 1699.00,2485.50              1699.00,2485.50 1699.50,2493.50 1699.50,2493.50              1699.50,2493.50 1698.83,2526.23 1706.50,2559.50              1711.28,2580.21 1719.97,2603.99 1732.00,2611.50              1749.62,2622.49 1778.24,2645.17 1805.00,2640.50              1838.51,2634.66 1871.28,2600.96 1900.50,2619.50              1920.24,2632.02 1940.07,2641.98 1957.50,2653.50              1968.35,2660.67 1970.29,2673.31 1979.50,2679.50              2001.57,2694.33 2029.78,2704.59 2036.50,2711.50              2048.41,2723.74 2053.50,2743.11 2061.00,2761.00              2075.86,2796.45 2087.00,2831.50 2087.00,2831.50" fill="none" id="M14 Sud" stroke="#67328e" stroke-width="6"/></a>
  <a xlink:actuate="onRequest" xlink:href="http://localhost/plan-ile-de-france/page/prol/11if8l9/metro-15" xlink:show="replace" xlink:title="M15 Grande rocade de Paris" xlink:type="simple"><path d="M 2954.00,1472.00            C 2954.00,1472.00 2685.00,1613.00 2619.00,1649.00              2553.00,1685.00 2530.15,1694.11 2481.00,1716.00              2420.80,1742.81 2361.84,1772.25 2306.00,1800.00              2253.15,1826.26 2210.98,1862.14 2166.00,1884.00              2121.09,1905.83 2096.52,1937.07 2067.00,1954.00              2028.06,1976.34 1971.63,2001.40 1930.00,2003.00              1898.72,2004.20 1865.00,1996.00 1833.00,1980.00              1801.00,1964.00 1794.00,1960.00 1684.00,1964.00              1652.76,1965.14 1603.54,1954.84 1560.00,1935.00              1509.92,1912.18 1485.00,1883.00 1456.00,1868.00              1427.00,1853.00 1421.18,1856.93 1396.00,1836.00              1367.15,1812.02 1337.07,1768.42 1304.00,1754.00              1252.95,1731.73 1176.10,1743.20 1126.00,1728.00              1084.02,1715.27 1066.97,1697.56 1034.00,1678.00              991.09,1652.54 934.44,1623.52 896.00,1594.00              849.86,1558.57 814.59,1503.83 812.00,1442.00              810.38,1403.42 785.89,1360.94 793.00,1324.00              801.16,1281.61 845.00,1263.00 830.00,1221.00              798.00,1137.00 713.42,1127.43 714.00,1088.00              714.51,1053.26 844.00,958.00 889.00,984.00              898.90,989.72 911.39,1021.22 939.00,1008.00              976.54,990.03 1082.00,939.00 1103.00,921.00              1124.00,903.00 1131.00,895.00 1138.00,846.00              1145.00,797.00 1173.89,772.29 1211.00,763.00              1263.08,749.96 1344.31,788.17 1380.00,788.00              1436.51,787.73 1474.00,753.00 1542.00,797.00              1610.00,841.00 1708.00,838.00 1758.00,834.00              1778.23,832.38 1836.00,820.00 1896.00,843.00              1932.87,857.13 2021.12,841.68 2083.00,855.00              2121.82,863.36 2131.00,908.00 2160.00,908.00              2189.00,908.00 2260.00,899.00 2289.00,918.00              2318.00,937.00 2344.00,963.00 2334.00,1018.00              2324.00,1073.00 2343.00,1100.00 2353.00,1120.00              2363.00,1140.00 2387.00,1164.00 2385.00,1208.00              2383.00,1252.00 2376.00,1240.00 2378.00,1266.00              2380.00,1292.00 2396.72,1341.77 2408.00,1382.00              2418.08,1417.93 2421.00,1446.00 2428.00,1497.00              2429.76,1509.79 2435.17,1549.16 2454.00,1582.00              2469.31,1608.69 2498.23,1628.33 2503.00,1648.00              2507.72,1667.47 2500.78,1683.62 2497.00,1694.00              2490.57,1711.67 2483.00,1716.00 2483.00,1716.00" fill="none" id="M15 Complet" stroke="#a60f31" stroke-width="6"/></a>
  <a xlink:actuate="onRequest" xlink:href="http://localhost/plan-ile-de-france/page/prol/c4fmej/metro-16-grand-paris-express" xlink:show="replace" xlink:title="M16 Rocade de Seine-Saint-Denis" xlink:type="simple"><path d="M 1680.00,434.50            C 1680.00,434.50 1704.01,430.54 1732.50,435.00              1745.56,437.04 1757.56,440.54 1774.50,446.00              1794.66,452.49 1810.58,478.48 1838.00,483.50              1875.91,490.44 1922.21,492.34 1971.83,495.31              2017.57,498.05 2062.62,508.19 2110.00,517.50              2127.23,520.89 2159.80,521.09 2193.00,523.00              2216.55,524.36 2236.46,529.37 2257.00,524.50              2263.53,522.95 2270.29,515.19 2280.00,508.00              2290.11,500.51 2304.76,495.58 2316.00,493.50              2325.73,491.70 2339.61,480.51 2350.00,483.50              2366.15,488.14 2375.04,503.75 2382.00,506.00              2390.42,508.72 2428.30,504.17 2467.00,496.00              2512.72,486.35 2516.10,492.25 2532.50,503.00              2540.44,508.20 2580.81,512.46 2606.00,545.00              2630.67,576.86 2647.57,634.94 2665.50,647.00              2676.77,654.58 2691.88,662.01 2709.00,666.00              2738.27,672.82 2771.27,675.44 2785.50,694.00              2811.14,727.44 2819.25,780.53 2838.00,818.50              2860.56,864.18 2859.36,915.26 2878.50,959.00              2883.61,970.68 2899.70,998.65 2905.50,1008.00              2917.27,1026.97 2924.42,1036.82 2934.50,1051.00              2940.12,1058.91 2947.65,1067.21 2955.00,1081.50              2982.00,1134.00 2952.38,1174.79 2943.00,1190.00              2922.57,1223.14 2881.28,1239.56 2884.50,1258.00              2890.07,1289.86 2943.82,1331.11 2947.34,1356.68              2950.47,1379.41 2957.69,1397.64 2959.50,1414.00              2963.06,1446.23 2959.50,1466.50 2959.50,1466.50" fill="none" id="M16 complet" stroke="#ec7cae" stroke-width="6"/></a>
  <a xlink:actuate="onRequest" xlink:href="http://localhost/plan-ile-de-france/page/prol/mk5115/m17-pleyel-roissy" xlink:show="replace" xlink:title="M17 Pleyel - Roissy" xlink:type="simple"><path d="M 1545.50,795.00            C 1545.50,795.00 1581.76,813.89 1624.00,807.00              1646.83,803.27 1684.15,774.21 1689.50,771.00              1706.20,760.96 1723.74,748.37 1742.50,737.50              1763.58,725.29 1786.21,716.68 1792.50,701.00              1797.97,687.37 1808.63,656.72 1808.00,635.50              1806.92,599.08 1791.49,567.85 1796.00,535.00              1799.16,512.00 1815.33,502.93 1828.00,489.00              1888.73,422.21 1921.88,380.42 1977.00,322.50              1997.20,301.28 1989.55,279.17 2007.50,262.00              2025.11,245.15 2045.50,247.50 2084.50,229.50              2092.41,225.85 2104.84,221.12 2112.00,224.00              2119.63,227.07 2121.97,238.02 2129.50,242.50              2149.73,254.53 2168.00,262.00 2168.00,262.00              2168.00,262.00 2187.96,264.06 2195.50,253.00              2208.76,233.55 2223.00,215.00 2222.00,200.00              2221.00,185.00 2192.85,149.24 2200.00,142.00              2216.39,125.39 2240.50,114.50 2246.00,93.50              2251.50,72.50 2242.50,28.50 2246.50,13.50              2250.50,-1.50 2276.63,-30.00 2295.00,-31.50              2330.75,-34.42 2371.73,-23.69 2408.64,-10.70              2421.83,-6.06 2449.20,8.88 2486.50,21.50              2498.13,25.43 2496.50,28.00 2513.50,23.50              2530.50,19.00 2527.50,11.50 2536.50,8.50              2545.50,5.50 2551.85,10.06 2558.50,12.50              2590.43,24.24 2609.46,42.76 2636.50,55.50              2657.16,65.24 2687.15,68.35 2698.50,67.00              2797.56,55.20 2816.25,-2.50 2816.25,-2.50              2816.25,-2.50 2827.50,-41.00 2827.50,-41.00" fill="none" id="M17 complet" stroke="#ec7cae" stroke-width="6"/></a>
  <a xlink:actuate="onRequest" xlink:href="http://localhost/plan-ile-de-france/page/prol/15kad4a/metro-18-orly-saint-quentin-en-yvelines" xlink:show="replace" xlink:title="M18 Saint-Quentin - Saclay - Orly" xlink:type="simple"><path d="M 1666.75,2444.50            C 1666.75,2444.50 1661.75,2417.44 1650.75,2413.00              1636.79,2407.36 1609.17,2407.22 1582.75,2400.00              1572.93,2397.31 1568.10,2389.44 1557.25,2386.00              1544.33,2381.91 1531.78,2394.78 1517.75,2392.00              1506.17,2389.71 1493.23,2371.89 1481.30,2367.97              1470.84,2364.53 1460.29,2361.03 1449.75,2357.50              1418.91,2347.17 1398.78,2318.01 1368.25,2312.00              1365.34,2311.43 1337.74,2302.38 1308.25,2306.00              1299.67,2307.05 1295.65,2312.65 1286.75,2314.50              1274.68,2317.01 1231.55,2276.26 1210.75,2276.00              1162.95,2275.41 1129.66,2311.68 1124.25,2315.00              1111.45,2322.85 1114.57,2343.87 1081.75,2397.50              1064.36,2425.91 1067.55,2491.75 1053.75,2506.50              1036.33,2525.12 1022.40,2536.84 1009.75,2542.50              995.68,2548.80 978.64,2527.99 957.75,2523.50              952.99,2522.48 909.54,2530.16 850.25,2507.50              809.83,2492.05 762.49,2444.76 713.25,2440.50              671.52,2436.89 624.81,2464.89 587.25,2478.50              558.72,2488.84 533.62,2485.59 530.75,2484.50              525.27,2482.42 520.83,2478.39 515.25,2476.50              505.90,2473.33 495.21,2471.97 486.25,2469.50              470.08,2465.04 456.08,2460.70 441.25,2462.00              401.26,2465.52 363.38,2484.29 310.25,2476.50              307.68,2477.33 290.60,2473.00 269.57,2467.50              247.59,2461.75 221.29,2454.73 202.75,2451.00              194.58,2449.59 186.13,2453.42 177.25,2453.00              170.97,2452.70 156.29,2446.21 142.25,2440.50              128.35,2434.84 115.07,2429.98 113.25,2425.50              109.47,2416.21 115.89,2404.01 116.25,2393.50              116.59,2383.64 110.97,2375.34 105.25,2370.50              83.23,2351.87 33.04,2335.75 9.25,2325.50              -17.18,2314.11 -36.94,2298.63 -58.75,2284.00              -77.81,2271.21 -99.67,2260.18 -112.75,2238.50              -120.08,2226.35 -122.05,2211.68 -130.75,2200.00              -134.37,2195.14 -149.73,2179.48 -149.25,2160.50              -148.79,2142.33 -132.72,2121.04 -126.17,2106.19              -112.30,2074.72 -102.10,2038.20 -104.25,2022.00              -106.03,2008.58 -129.25,1998.53 -148.75,1982.50              -163.09,1970.71 -170.77,1955.55 -175.75,1948.50              -190.50,1927.64 -220.42,1928.60 -242.25,1917.00              -259.66,1907.75 -265.98,1888.93 -270.25,1875.00              -283.10,1833.06 -229.25,1786.00 -229.25,1786.00" fill="none" id="M18 complet Vauhallan" stroke="#95bf32" stroke-width="6"/></a>
  <a xlink:actuate="onRequest" xlink:href="http://localhost/plan-ile-de-france/page/prol/i4d43n/metro-sud-gretz-elancourt" xlink:show="replace" xlink:title="Métro Sud" xlink:type="simple"><path d="M -587.00,1833.00            C -587.00,1833.00 -534.24,1858.31 -525.00,1859.50              -504.73,1862.12 -472.79,1859.01 -450.00,1862.50              -421.72,1866.83 -392.88,1872.22 -367.00,1870.50              -357.98,1869.90 -332.20,1856.79 -308.00,1842.00              -276.10,1822.50 -247.02,1797.53 -230.50,1791.00              -217.50,1785.86 -175.50,1809.00 -154.00,1787.00              -145.84,1778.65 -126.41,1749.20 -104.50,1723.00              -68.68,1680.17 -20.74,1627.25 2.50,1600.50              23.94,1575.83 45.59,1539.09 74.50,1519.50              86.47,1511.39 101.91,1510.02 123.50,1515.00              140.52,1518.92 152.45,1532.00 172.00,1536.50              177.18,1537.69 193.64,1538.83 206.50,1538.50              216.81,1538.24 228.10,1532.93 240.50,1534.00              257.18,1535.45 273.79,1543.84 293.00,1543.50              322.43,1542.98 354.67,1534.16 383.50,1530.00              419.95,1524.74 463.68,1527.72 485.50,1519.00              525.75,1502.91 513.32,1448.33 542.50,1422.50              617.46,1356.16 606.50,1265.00 634.00,1240.50              661.50,1216.00 704.50,1186.50 704.50,1186.50              704.50,1186.50 718.00,1173.00 718.00,1173.00              718.00,1173.00 735.71,1157.97 765.00,1157.00              772.45,1156.75 786.51,1154.41 799.50,1163.50              807.66,1169.21 811.54,1180.14 814.50,1184.00              825.08,1197.80 832.51,1215.91 841.50,1231.00              849.38,1244.23 860.28,1258.28 868.00,1259.50              875.79,1260.74 896.38,1264.54 910.50,1275.50              919.38,1282.39 923.99,1289.06 933.00,1297.50              943.80,1307.61 950.45,1321.17 960.50,1329.50              971.19,1338.36 985.19,1341.72 993.50,1343.00              1016.34,1346.53 1040.60,1332.18 1065.50,1335.50              1090.92,1338.88 1114.81,1279.55 1142.00,1283.00              1163.91,1285.78 1198.15,1293.11 1221.00,1296.00              1226.46,1296.69 1233.59,1289.51 1242.50,1295.00              1253.09,1301.52 1263.83,1313.76 1276.00,1326.00              1290.52,1340.61 1306.38,1355.60 1317.00,1366.00              1336.30,1384.91 1357.85,1396.00 1372.50,1398.00              1385.17,1399.73 1408.01,1401.08 1426.00,1389.00              1441.28,1378.74 1441.85,1361.74 1452.50,1363.00              1463.54,1364.31 1472.12,1368.80 1487.00,1377.50              1493.95,1381.57 1499.48,1379.68 1505.00,1386.00              1513.32,1395.53 1517.79,1417.13 1524.00,1427.50              1531.14,1454.94 1583.50,1469.36 1603.50,1471.50              1611.73,1472.38 1634.96,1446.74 1664.50,1439.50              1675.10,1436.90 1683.25,1450.76 1694.00,1451.50              1713.65,1452.85 1734.39,1443.50 1741.00,1444.00              1753.39,1444.94 1767.95,1458.50 1781.50,1467.50              1788.23,1471.97 1796.12,1481.24 1807.00,1487.00              1817.39,1492.49 1830.69,1494.47 1840.50,1498.50              1852.47,1503.41 1863.11,1505.25 1866.00,1505.50              1882.52,1506.95 1883.00,1505.50 1910.00,1500.00              1937.00,1494.50 1961.77,1485.43 1988.00,1484.50              2021.48,1483.32 2051.12,1487.22 2086.00,1497.00              2096.23,1499.87 2109.48,1521.18 2131.00,1544.50              2150.12,1565.22 2171.99,1586.67 2190.50,1611.00              2197.34,1619.99 2208.00,1632.23 2213.00,1641.00              2219.89,1653.08 2225.17,1660.26 2232.50,1668.50              2246.87,1684.66 2348.21,1673.12 2370.01,1679.04              2387.85,1683.88 2397.50,1686.50 2397.50,1686.50              2397.50,1686.50 2423.00,1693.50 2423.00,1693.50              2423.00,1693.50 2484.47,1712.81 2558.00,1747.00              2580.99,1757.69 2591.59,1781.89 2619.50,1795.00              2630.14,1800.00 2641.22,1800.22 2652.50,1805.50              2665.80,1811.73 2719.36,1866.37 2766.48,1913.50              2781.10,1928.12 2797.05,1938.51 2808.48,1951.00              2814.83,1957.94 2830.93,1995.73 2866.98,2014.50              2891.25,2027.14 2924.10,2033.09 2954.48,2041.50              2997.33,2053.36 3038.00,2066.05 3066.48,2074.00              3168.59,2102.51 3272.77,2131.15 3376.98,2162.50              3398.31,2168.92 3414.48,2175.00 3434.48,2181.00              3454.48,2187.00 3576.88,2219.70 3642.48,2239.00              3664.05,2245.35 3685.48,2259.30 3705.48,2272.00              3726.10,2285.09 3749.76,2293.69 3763.98,2305.00              3780.87,2318.44 3786.48,2333.50 3786.48,2333.50" fill="none" id="Msud" stroke="#e60f0f" stroke-width="6"/></a>
  <a xlink:actuate="onRequest" xlink:href="http://localhost/plan-ile-de-france/page/prol/leb6ne/petite-ceinture-express" xlink:show="replace" xlink:title="Petite Ceinture Express" xlink:type="simple"><path d="M 1367.50,1077.00            C 1367.50,1077.00 1334.65,1077.53 1302.50,1093.50              1289.54,1099.94 1275.59,1111.35 1262.50,1121.50              1241.53,1137.76 1221.38,1155.64 1200.50,1172.50              1159.58,1205.55 1142.01,1255.18 1138.00,1269.50              1127.50,1307.00 1157.12,1318.34 1141.50,1342.50              1137.37,1348.89 1107.23,1350.02 1092.00,1367.00              1082.56,1377.53 1081.25,1397.12 1077.00,1409.00              1071.51,1424.34 1064.33,1431.28 1062.00,1436.00              1052.44,1455.34 1024.44,1459.38 1017.00,1473.50              1011.67,1483.61 1012.78,1497.61 1019.00,1509.50              1022.98,1517.11 1030.12,1523.61 1035.50,1528.50              1045.38,1537.49 1085.24,1552.11 1108.00,1546.50              1116.31,1544.45 1121.84,1529.27 1127.50,1525.00              1135.99,1518.59 1145.65,1518.48 1154.50,1523.00              1166.29,1529.02 1178.61,1536.60 1192.50,1542.50              1205.69,1548.10 1220.40,1552.00 1233.50,1558.50              1240.75,1562.10 1244.59,1570.26 1252.00,1573.50              1277.05,1584.47 1302.57,1590.27 1329.00,1601.50              1354.14,1612.18 1382.30,1619.20 1408.50,1628.50              1447.19,1642.23 1483.81,1663.35 1523.50,1671.00              1540.08,1674.20 1557.53,1665.19 1574.50,1665.50              1601.67,1666.00 1629.57,1667.40 1657.00,1663.50              1672.16,1661.35 1691.13,1661.80 1707.50,1658.00              1729.60,1652.87 1751.80,1643.03 1773.00,1632.00              1789.92,1623.20 1802.63,1609.32 1818.50,1600.00              1829.83,1593.34 1842.29,1590.78 1852.35,1584.19              1867.56,1574.23 1880.97,1564.50 1891.50,1555.50              1909.67,1539.96 1917.37,1524.37 1918.00,1521.50              1919.47,1514.79 1940.22,1467.46 1937.50,1418.50              1937.00,1409.45 1931.83,1386.58 1920.50,1366.00              1908.21,1343.67 1889.49,1323.62 1883.50,1316.00              1875.48,1305.80 1869.00,1296.44 1861.00,1288.50              1848.66,1276.25 1835.22,1266.70 1826.50,1257.50              1817.08,1247.57 1811.46,1237.45 1810.50,1230.50              1807.33,1207.48 1801.36,1156.23 1798.00,1111.00              1795.01,1070.76 1793.95,1035.13 1779.50,1023.50              1753.22,1002.35 1722.11,995.73 1688.00,992.50              1667.06,990.51 1645.75,991.77 1622.50,992.50              1603.62,993.09 1583.23,992.77 1562.50,994.50              1531.26,997.10 1501.85,1008.00 1475.00,1011.50              1457.13,1013.83 1439.78,1008.05 1426.00,1012.00              1416.62,1014.69 1409.60,1018.88 1402.50,1021.50              1385.90,1027.62 1377.00,1060.00 1377.00,1060.00              1377.00,1060.00 1367.50,1077.00 1367.50,1077.00 Z" fill="none" id="PCE Zoom 13" stroke="#198d92" stroke-width="8"/></a>
</svg>