<?xml version="1.0" encoding="UTF-8" standalone="no"?><svg xmlns="http://www.w3.org/2000/svg" xmlns:xlink="http://www.w3.org/1999/xlink" contentScriptType="text/ecmascript" contentStyleType="text/css" preserveAspectRatio="xMidYMid meet" version="1.0" viewBox="0 0 3193 2764" width="886px" zoomAndPan="magnify"><title content="structured text">RER | Les propositions d'extension du réseau PLIDF</title><image height="100%" opacity=".7" preserveAspectRatio="xMidYMid meet" width="100%" x="0" xlink:actuate="onLoad" xlink:href="paris_bg.jpg" xlink:show="embed" xlink:type="simple" y="0"/>
  <a xlink:actuate="onRequest" xlink:show="replace" xlink:title="1 km" xlink:type="simple"><path d="M 6.50,2744.00            C 6.50,2744.00 87.50,2744.00 87.50,2744.00" fill="none" id="1 km" stroke="black" stroke-width="1"/></a>
  <a xlink:actuate="onRequest" xlink:show="replace" xlink:title="Marne" xlink:type="simple"><path d="M 1932.00,1700.00            C 1932.00,1700.00 2002.41,1707.13 2076.00,1710.00              2119.59,1711.70 2156.73,1692.82 2193.00,1722.00              2204.04,1730.88 2210.57,1743.88 2222.00,1756.00              2245.22,1780.63 2276.96,1808.84 2286.00,1842.00              2296.63,1880.98 2279.73,1925.79 2300.00,1954.00              2327.99,1992.95 2382.56,1990.74 2430.00,1992.00              2456.24,1992.70 2483.00,1991.00 2510.00,1993.00              2537.00,1995.00 2563.28,1976.45 2582.00,1934.00              2602.87,1886.66 2589.47,1813.90 2562.00,1784.00              2528.60,1747.64 2441.41,1764.94 2378.00,1748.00              2346.24,1739.51 2318.24,1727.40 2300.00,1708.00              2281.36,1688.17 2273.00,1674.00 2276.00,1635.00              2279.00,1596.00 2319.58,1570.42 2386.00,1570.00              2407.65,1569.86 2433.46,1567.36 2454.00,1573.00              2486.41,1581.90 2511.75,1599.25 2533.00,1588.00              2546.33,1580.94 2562.00,1563.44 2560.00,1549.00              2556.95,1526.94 2536.54,1498.47 2529.00,1472.00              2521.69,1446.32 2531.32,1417.34 2538.00,1410.00              2565.47,1379.80 2668.16,1387.23 2724.00,1368.00              2779.21,1348.98 2787.49,1303.18 2826.00,1292.00              2864.87,1280.71 2925.10,1283.01 2963.00,1276.00              2998.91,1269.36 3012.73,1252.97 3041.00,1258.00              3079.92,1264.93 3099.28,1308.83 3123.00,1324.00              3156.97,1345.73 3187.00,1339.00 3187.00,1339.00" fill="none" id="Marne" stroke="#3cb0ff" stroke-width="18"/></a>
  <a xlink:actuate="onRequest" xlink:show="replace" xlink:title="Seine" xlink:type="simple"><path d="M -4.00,192.00            C -4.00,192.00 48.01,171.90 122.00,164.00              194.11,156.30 287.16,160.62 369.00,175.00              416.43,183.33 479.22,203.05 514.00,228.00              551.98,255.24 560.23,288.27 570.00,308.00              620.00,409.00 547.00,485.00 458.01,575.97              417.19,617.69 343.60,675.93 289.00,747.00              254.02,792.53 233.30,843.94 214.00,886.00              197.74,921.44 180.20,949.67 179.00,968.00              176.55,1005.40 182.03,1046.96 193.00,1083.00              217.82,1164.53 274.15,1232.15 322.00,1237.00              349.88,1239.83 387.37,1236.94 411.00,1219.00              445.85,1192.54 462.98,1143.34 476.00,1113.00              495.01,1068.72 503.27,1008.24 545.00,964.00              582.04,924.74 644.01,917.52 696.00,890.00              749.11,861.89 792.04,813.72 810.00,795.00              901.88,699.27 1004.95,610.99 1109.00,560.00              1210.71,510.16 1301.82,504.63 1388.00,528.00              1452.27,545.43 1525.04,576.32 1537.00,631.00              1548.06,681.55 1489.70,766.03 1411.00,820.00              1370.56,847.73 1330.21,859.86 1281.00,888.00              1254.77,903.00 1229.56,930.68 1202.00,948.00              1168.03,969.36 1122.69,983.26 1091.00,1012.00              1052.81,1046.65 1020.29,1090.89 987.00,1136.00              950.28,1185.76 893.81,1237.87 871.00,1292.00              852.01,1337.07 864.16,1384.40 858.00,1425.00              851.27,1469.37 843.66,1510.47 848.00,1544.00              854.45,1593.90 883.44,1620.21 895.00,1633.00              920.60,1661.32 961.56,1676.79 1003.00,1648.00              1037.81,1623.81 1065.75,1569.87 1103.00,1522.00              1133.04,1483.39 1160.12,1436.89 1189.00,1394.00              1210.81,1361.62 1232.98,1330.49 1262.00,1311.00              1343.55,1256.25 1467.41,1307.89 1544.00,1342.00              1609.25,1371.06 1654.24,1430.22 1704.00,1484.00              1747.47,1530.99 1786.71,1582.17 1821.47,1631.69              1848.94,1670.83 1910.23,1672.81 1932.00,1707.00              1946.49,1729.75 1925.70,1768.08 1930.00,1794.00              1935.84,1829.19 1980.81,1871.62 1992.00,1885.00              2049.53,1953.80 1950.18,2025.78 1952.00,2117.00              1953.27,2180.66 2030.48,2260.92 2087.00,2333.00              2121.69,2377.24 2140.90,2425.20 2139.00,2456.00              2134.00,2537.00 2005.22,2528.88 1956.00,2576.00              1870.65,2657.71 1845.00,2758.00 1845.00,2758.00" fill="none" id="Seine" stroke="#3cb0ff" stroke-width="18"/></a>
  <a xlink:actuate="onRequest" xlink:href="http://www.plidf.fr/prol/14jf050-rera-chambourcy.php" xlink:show="replace" xlink:title="RER A Chambourcy" xlink:type="simple"><path d="M 226.00,952.00            C 226.00,952.00 171.70,922.99 127.00,940.00              118.22,943.34 108.29,948.23 103.00,957.00              89.63,979.16 74.41,1021.62 51.00,1035.00              35.46,1043.88 -16.09,1037.75 -51.00,1014.00              -72.46,999.40 -81.71,966.29 -90.00,961.00              -156.41,918.64 -233.00,883.00 -233.00,883.00" fill="none" id="RER A Chambourcy 1km" stroke="#d35e3c" stroke-width="8"/></a>
  <a xlink:actuate="onRequest" xlink:href="http://www.plidf.fr/prol/8dl0i2-rera-brie-comte-robert.php" xlink:show="replace" xlink:title="RER A Brie-Comte-Robert" xlink:type="simple"><path d="M 3137.00,2758.00            C 3137.00,2758.00 3073.63,2704.63 3011.00,2661.00              2982.19,2640.93 2955.07,2621.83 2932.00,2607.00              2901.62,2587.46 2885.31,2594.86 2879.00,2596.00              2871.83,2597.30 2860.31,2599.84 2850.00,2608.00              2835.39,2619.57 2822.65,2634.19 2804.00,2640.00              2780.19,2647.42 2765.74,2630.02 2760.00,2627.00              2754.43,2624.07 2746.57,2614.65 2743.00,2589.00              2740.54,2571.29 2742.97,2546.83 2738.00,2532.00              2733.01,2517.10 2730.00,2510.00 2706.00,2498.00              2682.00,2486.00 2653.00,2504.50 2620.50,2489.50              2588.00,2474.50 2577.50,2458.50 2538.50,2442.50              2499.50,2426.50 2472.47,2427.62 2442.50,2424.50              2418.07,2421.96 2370.00,2406.50 2366.50,2387.50              2363.00,2368.50 2371.50,2356.50 2393.50,2340.00              2415.50,2323.50 2443.44,2317.66 2463.00,2303.50              2482.79,2289.17 2491.84,2255.53 2496.50,2241.50" fill="none" id="RER A Sud" stroke="#d35e3c" stroke-width="8"/></a>
  <a xlink:actuate="onRequest" xlink:href="http://www.plidf.fr/prol/cj89ca-rerb-tronc-commun.php" xlink:show="replace" xlink:title="RER B Tronc commun quadruplé" xlink:type="simple"><path d="M 1599.00,869.50            C 1599.00,869.50 1600.44,910.64 1608.00,979.50              1610.59,1003.14 1623.15,1028.87 1627.00,1058.50              1629.45,1077.39 1625.05,1098.59 1623.00,1119.50              1619.42,1155.99 1561.15,1223.43 1558.00,1260.50              1555.09,1294.73 1590.15,1343.68 1585.00,1374.50              1579.96,1404.66 1546.71,1404.98 1535.00,1427.50              1521.19,1454.07 1516.20,1480.59 1508.00,1502.50              1499.05,1526.40 1487.42,1544.69 1485.00,1548.50              1466.00,1578.50 1459.01,1610.91 1453.00,1644.50              1445.72,1685.23 1462.41,1734.80 1455.50,1771.50              1448.77,1807.28 1433.08,1839.34 1427.00,1869.50              1422.91,1889.77 1398.00,1912.50 1390.00,1930.50              1382.00,1948.50 1370.74,1980.09 1367.00,1998.50              1363.64,2015.02 1364.00,2025.50 1364.00,2025.50" fill="none" id="RER B Tronc Commun parallele" stroke="#4e90cc" stroke-width="8"/></a>
  <a xlink:actuate="onRequest" xlink:href="http://www.plidf.fr/prol/m304d0-rerb-saint-quentin.php" xlink:show="replace" xlink:title="RER B Saint-Quentin-en-Yvelines" xlink:type="simple"><path d="M 1182.00,2035.00            C 1182.00,2035.00 1125.61,2155.56 1052.00,2159.00              1026.38,2160.20 988.62,2122.26 958.00,2086.00              948.80,2075.11 902.25,2073.41 892.00,2062.00              859.19,2025.50 874.47,1993.26 837.00,1992.00              803.62,1990.88 762.58,2036.31 726.00,2037.00              687.24,2037.73 608.56,2014.42 567.00,2016.00              518.74,2017.83 471.71,2074.16 402.00,2104.00              337.04,2131.81 285.39,2128.17 238.00,2132.00              176.81,2136.94 119.06,2085.06 64.00,2083.00              31.53,2081.79 -40.00,2165.00 -77.00,2142.00              -81.54,2139.18 -92.53,2128.70 -113.00,2119.00              -145.26,2103.72 -193.67,2086.53 -221.00,2075.00              -250.88,2062.40 -281.77,2044.71 -310.00,2044.00              -372.99,2042.41 -404.13,2094.51 -465.00,2095.00              -500.89,2095.29 -530.87,2094.96 -559.00,2087.00              -586.55,2079.21 -612.43,2067.85 -632.00,2062.00              -668.55,2051.07 -691.00,2050.00 -691.00,2050.00" fill="none" id="RER B Saint Quentin" stroke="#4e90cc" stroke-width="8"/></a>
  <a xlink:actuate="onRequest" xlink:href="http://www.plidf.fr/prol/11d9i70-rerc-remaniement-orly.php" xlink:show="replace" xlink:title="RER C Remaniement d'Orly" xlink:type="simple"><path d="M 1048.00,2493.00            C 1048.00,2493.00 1048.12,2468.34 1091.00,2457.00              1100.07,2454.60 1132.31,2449.20 1138.00,2475.00              1139.72,2482.81 1143.55,2502.86 1144.00,2514.00              1144.41,2524.16 1145.96,2535.77 1147.00,2546.00              1149.83,2573.90 1156.75,2601.48 1167.00,2625.00              1194.29,2687.64 1258.00,2700.00 1272.00,2706.00              1286.00,2712.00 1306.89,2712.29 1331.00,2720.00              1351.94,2726.69 1359.00,2733.00 1377.00,2728.00              1395.00,2723.00 1394.00,2702.00 1420.00,2683.00              1446.00,2664.00 1465.00,2679.00 1502.00,2630.00              1539.00,2581.00 1565.00,2525.50 1602.00,2485.00              1639.00,2444.50 1624.00,2467.00 1655.00,2439.00              1686.00,2411.00 1677.33,2366.03 1679.00,2356.00              1681.50,2340.98 1690.32,2316.47 1706.00,2303.00              1714.78,2295.47 1737.05,2282.04 1747.00,2276.00              1761.91,2266.95 1771.00,2264.00 1785.00,2257.00              1799.00,2250.00 1825.95,2257.98 1847.00,2283.00              1855.09,2292.62 1864.54,2308.07 1874.00,2323.00              1884.58,2339.70 1893.66,2351.84 1902.00,2360.00              1934.48,2391.78 1959.29,2370.38 1962.00,2362.00              1965.10,2352.40 1967.40,2339.66 1970.00,2326.00              1973.30,2308.68 1992.00,2294.50 1977.00,2263.00              1969.33,2246.89 1968.26,2241.08 1960.50,2224.00              1953.08,2207.68 1945.90,2193.68 1941.50,2175.00              1937.16,2156.59 1938.00,2126.13 1936.00,2105.50" fill="none" id="RER C Massy parallele" stroke="#e8ce0f" stroke-width="8"/></a>
  <a xlink:actuate="onRequest" xlink:href="http://www.plidf.fr/prol/746ki5-rerd-cdg3.php" xlink:show="replace" xlink:title="RER D Roissy" xlink:type="simple"><path d="M 2844.50,-64.50            C 2844.50,-64.50 2800.98,-2.56 2751.50,15.00              2709.47,29.92 2651.50,10.50 2621.50,27.00              2591.50,43.50 2595.77,114.50 2532.50,111.00              2507.56,109.62 2516.25,44.76 2489.50,24.50              2475.97,14.25 2449.16,-3.04 2418.50,-12.00              2362.95,-28.23 2291.35,-31.13 2283.50,-35.00              2245.40,-53.77 2233.91,-83.15 2200.50,-72.00              2166.76,-60.74 2151.50,-35.00 2125.00,-8.00              2098.50,19.00 2080.16,36.72 2055.00,60.00              1934.15,171.79 1825.50,291.00 1825.50,291.00" fill="none" id="RER D Roissy parallele" stroke="#17964c" stroke-width="8"/></a>
  <a xlink:actuate="onRequest" xlink:href="http://www.plidf.fr/prol/h82hfh-rere-saint-quentin.php" xlink:show="replace" xlink:title="RER E Saint-Quentin-en-Yvelines" xlink:type="simple"><path d="M -676.00,2045.00            C -676.00,2045.00 -646.61,2052.31 -610.50,2065.50              -567.55,2081.19 -511.81,2101.91 -439.00,2083.00              -409.29,2075.28 -389.54,2061.38 -354.50,2048.50              -335.23,2041.42 -320.17,2032.69 -304.00,2026.50              -288.21,2020.45 -271.35,2017.01 -251.00,2004.00              -229.47,1990.24 -197.93,1967.42 -176.50,1950.50              -154.74,1933.32 -134.60,1915.02 -112.00,1899.50              -87.37,1882.58 -77.29,1877.11 -52.00,1867.00              -34.46,1859.98 -15.73,1860.47 2.00,1868.50              23.05,1878.03 43.26,1896.28 66.50,1898.50              104.94,1902.17 109.24,1890.65 155.00,1887.50              173.97,1886.19 188.83,1902.37 207.50,1911.50              227.61,1921.34 249.19,1922.27 274.00,1923.00              290.02,1923.47 328.78,1890.98 340.50,1891.50              355.93,1892.19 372.67,1888.23 389.00,1887.00              404.63,1885.82 419.82,1887.47 435.00,1883.50              450.98,1879.32 478.62,1867.82 493.50,1861.00              514.86,1851.20 513.38,1829.28 539.00,1813.00              544.88,1809.26 552.37,1804.51 560.50,1802.50              569.28,1800.33 578.78,1800.98 586.50,1799.00              597.90,1796.07 607.16,1787.35 615.50,1779.50              636.31,1759.91 650.00,1717.50 660.50,1705.00              671.00,1692.50 692.57,1680.85 703.00,1664.00              712.50,1648.65 712.00,1622.50 715.00,1600.50              718.00,1578.50 718.73,1552.92 726.00,1531.50              735.43,1503.73 769.89,1493.80 777.50,1488.50              785.48,1482.94 811.46,1469.18 813.50,1434.50              815.41,1401.96 815.00,1369.00 801.00,1317.00              787.00,1265.00 798.00,1251.00 829.00,1252.00              860.00,1253.00 898.84,1276.15 942.50,1277.00              982.73,1277.78 1031.58,1230.38 1070.50,1217.50              1094.52,1209.55 1124.00,1218.50 1143.00,1216.50              1162.00,1214.50 1241.00,1205.50 1263.00,1198.50              1285.00,1191.50 1297.98,1164.47 1330.50,1161.50              1354.45,1159.31 1385.06,1186.33 1407.00,1190.00              1449.11,1197.04 1491.50,1195.00 1491.50,1195.00" fill="none" id="RER E Saint-Quentin aligne" stroke="#c75fad" stroke-width="8"/></a>
  <a xlink:actuate="onRequest" xlink:href="http://www.plidf.fr/prol/67iidh-rere-saint-nom-la-breteche.php" xlink:show="replace" xlink:title="RER E Saint-Nom-la-Bretèche" xlink:type="simple"><path d="M 813.50,1437.25            C 813.50,1437.25 813.43,1477.95 766.50,1496.50              743.88,1505.44 669.00,1499.50 652.00,1505.50              635.00,1511.50 640.09,1518.08 616.50,1528.00              601.09,1534.48 574.10,1535.97 551.00,1541.00              522.96,1547.11 484.50,1558.50 469.50,1554.00              454.50,1549.50 442.26,1532.48 429.00,1526.00              412.75,1518.06 394.88,1517.71 378.50,1505.00              364.61,1494.22 352.89,1482.33 340.00,1468.00              328.96,1455.73 319.42,1444.13 311.00,1428.00              305.23,1416.95 311.98,1394.38 314.00,1374.50              316.07,1354.14 310.42,1333.97 303.50,1323.50              294.75,1310.27 273.77,1319.01 255.00,1311.50              245.44,1307.68 240.17,1299.49 232.00,1293.50              224.59,1288.07 219.00,1292.50 209.50,1283.00              199.50,1273.00 204.08,1241.92 187.00,1233.00              168.38,1223.28 142.86,1229.19 119.00,1224.50              103.42,1221.44 95.33,1220.94 77.50,1216.50              63.21,1212.94 50.91,1208.67 39.50,1214.00              31.16,1217.90 22.20,1226.99 13.50,1233.50              4.12,1240.52 -4.92,1245.13 -11.50,1254.00              -17.58,1262.20 -17.50,1274.83 -24.00,1281.50              -36.28,1294.11 -51.22,1296.21 -64.00,1299.50              -85.99,1305.16 -95.12,1283.07 -110.00,1275.00              -121.35,1268.85 -135.79,1275.57 -144.50,1272.50              -154.87,1268.85 -158.50,1256.00 -158.50,1256.00M 769.50,1495.75            C 754.75,1500.00 753.95,1526.86 727.75,1526.75              720.39,1526.72 713.74,1525.07 707.25,1520.75              699.05,1515.29 692.38,1506.65 684.00,1503.50              671.20,1498.68 655.84,1505.00 655.75,1503.75" fill="none" id="RER E Saint-Nom-la-Breteche" stroke="#c75fad" stroke-width="8"/></a>
  <a xlink:actuate="onRequest" xlink:href="http://www.plidf.fr/prol/k73n4b-rere_mantes.php" xlink:show="replace" xlink:title="RER E Mantes" xlink:type="simple"><path d="M -2181.50,174.00            C -2181.50,174.00 -2170.46,176.59 -2155.50,187.50              -2145.52,194.78 -2135.27,208.24 -2120.00,218.00              -2091.98,235.91 -2055.15,254.28 -2024.00,278.00              -2004.94,292.51 -1991.53,308.49 -1977.50,323.50              -1958.19,344.17 -1933.28,363.80 -1891.00,377.50              -1869.61,384.43 -1859.00,390.50 -1818.50,396.00              -1788.39,400.09 -1614.50,407.00 -1581.50,404.50              -1548.50,402.00 -1513.00,397.50 -1484.50,388.50              -1456.00,379.50 -1388.00,349.50 -1320.50,318.50              -1253.00,287.50 -1063.00,196.50 -989.00,159.50              -915.00,122.50 -868.35,97.31 -812.00,108.50              -779.67,114.92 -745.05,130.36 -707.50,145.50              -652.74,167.58 -607.22,186.87 -564.00,228.50              -544.93,246.87 -517.94,273.45 -505.00,300.00              -493.83,322.93 -486.50,355.50 -482.50,392.50              -480.14,414.33 -473.02,461.52 -467.50,506.00              -463.67,536.90 -461.74,566.42 -458.00,585.50              -454.18,605.02 -453.38,622.82 -448.50,637.00              -429.10,693.42 -386.32,711.52 -350.50,719.00              -290.31,731.57 -256.51,699.06 -210.50,668.00              -163.92,636.56 -115.50,605.00 -115.50,605.00              -115.50,605.00 -83.00,585.50 -83.00,585.50              -83.00,585.50 127.00,431.00 214.00,441.50              301.00,452.00 383.46,559.45 449.50,623.00              497.48,669.17 539.06,718.60 593.50,764.00              637.78,800.92 694.13,833.92 740.50,870.50              749.48,877.58 766.72,889.51 782.00,898.50              797.17,907.43 811.37,913.41 818.00,923.00              832.88,944.51 820.71,968.67 841.00,984.00              855.55,995.00 888.24,990.66 903.50,1000.00              940.82,1022.85 915.50,1009.00 995.00,1052.50              1012.35,1061.99 1099.91,1129.42 1183.00,1151.00              1243.72,1166.77 1302.14,1158.11 1332.50,1161.50              1382.77,1167.12 1382.12,1190.09 1423.50,1194.00              1466.05,1198.03 1547.50,1193.00 1547.50,1193.00" fill="none" id="RER E Mantes v2_aligne" stroke="#c75fad" stroke-width="8"/></a>
  <a xlink:actuate="onRequest" xlink:href="http://www.plidf.fr/prol/15h6ja0-rere-roissy.php" xlink:show="replace" xlink:title="RER E Roissy" xlink:type="simple"><path d="M 2851.50,-52.00            C 2851.50,-52.00 2838.43,-39.94 2819.00,-23.00              2805.48,-11.21 2787.98,12.53 2767.00,20.00              2746.43,27.33 2721.72,32.69 2698.00,33.00              2668.55,33.38 2647.33,24.35 2627.00,40.00              2612.36,51.27 2602.39,73.85 2593.00,89.00              2585.51,101.08 2554.15,139.33 2551.50,147.50              2541.54,178.18 2552.00,191.00 2525.00,223.00              2498.00,255.00 2464.37,282.86 2437.00,307.50              2419.97,322.83 2396.31,309.68 2380.50,324.50              2356.32,347.15 2338.51,370.73 2325.00,386.00              2306.00,405.00 2314.85,451.43 2311.00,467.00              2306.67,484.49 2302.86,495.14 2303.00,506.50              2303.15,518.93 2314.05,557.45 2317.50,568.00              2330.19,606.84 2334.45,617.84 2337.00,637.00              2341.00,667.00 2319.21,688.43 2296.00,704.00              2272.37,719.85 2243.67,741.97 2211.00,765.00              2103.69,840.65 1967.59,937.47 1947.00,953.00              1914.00,977.92 1884.69,987.06 1875.50,987.50              1834.00,989.50 1787.50,988.00 1787.50,988.00" fill="none" id="RER E Roissy Parallele" stroke="#c75fad" stroke-width="8"/></a>
  <a xlink:actuate="onRequest" xlink:href="http://www.plidf.fr/prol/bibl8a-rere-lagny.php" xlink:show="replace" xlink:title="RER E Lagny" xlink:type="simple"><path d="M 3755.50,1177.50            C 3755.50,1177.50 3736.33,1208.36 3712.00,1232.50              3706.26,1238.19 3700.77,1244.03 3694.00,1247.50              3680.38,1254.47 3665.50,1256.05 3660.50,1257.00              3636.89,1261.46 3609.18,1262.61 3594.00,1264.50              3582.62,1265.92 3571.14,1270.32 3559.50,1270.50              3551.40,1270.62 3525.99,1272.91 3504.50,1270.00              3479.31,1266.59 3466.19,1261.59 3457.00,1265.00              3444.72,1269.56 3426.69,1305.95 3414.00,1310.50              3407.88,1312.69 3400.85,1312.77 3395.00,1315.00              3382.73,1319.69 3371.83,1326.33 3358.50,1329.00              3345.47,1331.61 3329.79,1329.95 3316.50,1334.50              3302.95,1339.14 3291.54,1342.00 3279.00,1347.00              3268.34,1351.25 3256.69,1357.96 3244.00,1359.00              3225.89,1360.49 3199.67,1349.47 3183.00,1355.50              3164.85,1362.07 3122.87,1378.87 3105.00,1385.50              3090.55,1390.86 3052.62,1383.92 3033.50,1398.50              3013.86,1413.48 3013.03,1450.05 2999.00,1459.00              2975.36,1474.08 2935.09,1468.13 2927.50,1471.50              2919.40,1475.09 2908.96,1471.75 2901.00,1478.00              2892.63,1484.57 2887.18,1498.81 2877.00,1506.00              2861.64,1516.84 2840.82,1525.98 2827.50,1537.00              2820.67,1542.64 2817.09,1550.37 2812.00,1556.00              2806.48,1562.11 2799.53,1565.99 2794.00,1568.50              2782.57,1573.68 2780.76,1597.63 2771.00,1612.00              2762.61,1624.34 2745.73,1627.49 2742.00,1630.00              2723.81,1642.25 2703.00,1646.50 2703.00,1646.50" fill="none" id="RER E Lagny" stroke="#c75fad" stroke-width="8"/></a>
  <a xlink:actuate="onRequest" xlink:href="http://www.plidf.fr/prol/h9dbn1-rere-meaux.php" xlink:show="replace" xlink:title="RER E Meaux" xlink:type="simple"><path d="M 5087.50,434.50            C 5087.50,434.50 5048.78,437.59 4997.00,435.50              4964.61,434.19 4928.82,428.42 4891.00,423.00              4844.67,416.36 4802.75,408.12 4756.50,403.50              4734.12,401.27 4711.39,391.35 4684.50,400.50              4664.31,407.37 4650.63,428.91 4644.50,453.50              4635.86,488.15 4638.24,531.43 4624.00,570.50              4616.63,590.73 4601.07,607.30 4586.00,624.00              4570.57,641.09 4555.60,658.29 4546.50,676.50              4528.50,712.50 4497.50,781.00 4475.00,819.00              4452.50,857.00 4423.16,876.66 4414.50,882.00              4386.75,899.12 4355.72,908.95 4321.50,923.50              4298.60,933.24 4275.43,940.36 4252.00,949.50              4230.24,957.98 4208.23,968.71 4186.50,972.00              4155.66,976.67 4131.63,959.59 4105.50,957.00              4096.88,956.14 4079.41,954.85 4062.00,957.50              4042.82,960.41 4023.70,967.50 4016.50,971.50              3999.33,981.03 3982.95,995.52 3979.00,1002.50              3970.14,1018.16 3968.79,1036.84 3961.50,1054.00              3954.28,1070.99 3943.44,1086.03 3926.50,1093.50              3896.47,1106.75 3868.30,1103.82 3832.50,1108.50              3775.65,1115.92 3715.29,1122.88 3662.00,1127.50              3644.64,1129.01 3618.76,1129.27 3603.50,1131.00              3526.12,1139.77 3500.23,1172.38 3423.00,1177.50              3312.97,1184.80 3202.69,1194.92 3112.00,1200.00              3067.29,1202.50 3026.63,1206.54 2994.50,1203.00              2917.73,1194.55 2870.00,1186.00 2870.00,1186.00" fill="none" id="RER E Meaux" stroke="#c75fad" stroke-width="8"/></a>
  <a xlink:actuate="onRequest" xlink:href="http://www.plidf.fr/prol/82636i-rerf-tronc-commun.php" xlink:show="replace" xlink:title="RER F Tronc commun" xlink:type="simple"><path d="M 1674.00,2436.00            C 1708.00,2406.00 1663.00,2346.00 1722.00,2307.00              1739.78,2295.71 1747.97,2285.63 1731.00,2242.00              1720.80,2215.78 1637.65,2203.51 1620.00,2170.00              1607.63,2146.51 1590.64,2127.02 1573.50,2099.50              1563.83,2083.97 1552.70,2075.11 1544.00,2057.00              1537.69,2043.88 1533.33,2021.48 1528.50,2009.50              1508.62,1960.20 1507.50,1895.50 1462.50,1874.50              1445.01,1866.34 1423.50,1852.00 1420.00,1828.00              1416.50,1804.00 1447.00,1784.05 1447.50,1768.00              1448.14,1747.28 1444.68,1718.91 1443.00,1697.50              1441.99,1684.59 1440.07,1660.59 1442.50,1640.00              1444.47,1623.35 1451.12,1609.95 1449.00,1598.50              1444.60,1574.73 1408.50,1502.50 1427.00,1462.50              1435.44,1444.25 1416.13,1415.98 1416.00,1385.00              1415.85,1348.08 1433.25,1308.59 1423.50,1295.50              1387.74,1247.49 1442.60,1201.60 1428.00,1156.50              1422.11,1138.30 1413.67,1112.61 1397.00,1093.50              1377.26,1070.88 1350.58,1054.05 1323.00,1028.50              1288.85,996.86 1247.89,963.16 1211.00,928.50              1191.32,910.01 1175.47,890.69 1156.50,872.50              1135.62,852.48 1120.29,833.40 1104.00,815.50              1096.96,807.76 1078.09,790.68 1067.00,774.50              1057.30,760.36 1054.84,746.95 1054.50,740.50              1053.70,725.08 1059.20,711.02 1063.00,697.50              1067.17,682.66 1069.80,668.78 1072.00,662.00              1078.00,643.50 1082.41,631.40 1076.00,611.00              1069.93,591.67 1036.81,534.29 1031.50,519.50              1028.83,512.07 1030.77,499.49 1026.50,492.50              1021.87,484.93 1013.21,477.78 1003.50,474.50              993.14,471.00 981.76,471.64 978.00,472.50              970.24,474.27 962.35,481.72 954.50,486.00              925.97,501.55 896.98,529.81 864.00,525.50              837.87,522.08 823.15,512.52 806.50,494.00              789.62,475.22 769.50,446.00 769.50,446.00" fill="none" id="RER F Cormeilles - Orly_aligne" stroke="#de8b53" stroke-width="8"/></a>
  <a xlink:actuate="onRequest" xlink:href="http://www.plidf.fr/prol/ibln4j-rerf-pontoise.php" xlink:show="replace" xlink:title="RER F Pontoise" xlink:type="simple"><path d="M -307.00,-591.50            C -307.00,-591.50 -283.97,-589.51 -268.50,-573.00              -255.77,-559.42 -250.32,-533.88 -225.50,-517.50              -206.43,-504.92 -181.03,-499.99 -157.00,-492.50              -122.78,-481.83 -90.03,-470.20 -61.50,-455.50              -42.20,-445.55 -33.12,-414.29 -21.00,-406.50              -3.10,-394.99 15.00,-386.00 15.00,-386.00              15.00,-386.00 21.50,-383.50 21.50,-383.50              21.50,-383.50 26.62,-382.78 34.50,-376.00              45.41,-366.61 47.45,-355.96 66.00,-347.50              77.35,-342.33 88.02,-335.25 102.00,-331.50              114.91,-328.04 131.18,-327.96 141.00,-322.00              146.35,-318.75 150.10,-312.95 153.50,-308.50              161.82,-297.60 147.13,-262.02 139.00,-225.00              132.33,-194.60 129.93,-165.66 127.00,-158.00              120.50,-141.00 94.53,-107.74 77.50,-87.00              73.27,-81.85 71.15,-74.86 65.00,-67.50              58.22,-59.38 47.48,-54.25 45.00,-46.00              41.28,-33.67 49.02,-0.72 53.50,30.50              58.67,66.52 62.33,102.90 68.00,111.50              88.88,143.16 145.75,79.73 207.00,83.50              255.31,86.47 294.57,100.45 350.00,115.50              386.97,125.54 431.01,132.21 459.50,146.50              471.22,152.38 494.13,168.45 510.00,183.50              520.69,193.64 528.13,204.48 539.50,214.00              553.71,225.90 575.47,233.53 581.50,240.00              597.77,257.46 603.09,279.37 616.00,300.50              624.45,314.33 636.56,328.69 647.00,339.50              662.80,355.86 682.84,369.79 700.50,382.00              711.27,389.45 723.73,394.17 733.00,403.50              745.58,416.16 764.60,440.55 783.50,465.50              795.97,481.97 806.71,499.90 821.50,510.50              851.78,532.19 890.28,524.61 901.50,519.00              929.51,505.01 956.38,479.11 980.50,472.50              992.92,469.10 1012.47,475.99 1019.00,482.00              1034.71,496.47 1027.79,510.15 1036.00,526.50              1039.29,533.04 1041.14,540.25 1044.00,546.00              1055.59,569.26 1064.50,584.00 1064.50,584.00" fill="none" id="RER F Boissy" stroke="#de8b53" stroke-width="8"/></a>
  <a xlink:actuate="onRequest" xlink:href="http://www.plidf.fr/prol/dnb2ke-rerf-mantes.php" xlink:show="replace" xlink:title="RER F Mantes" xlink:type="simple"><path d="M -2201.00,184.00            C -2201.00,184.00 -2192.06,186.70 -2172.00,203.00              -2157.65,214.66 -2140.21,233.62 -2111.50,244.00              -2095.48,249.79 -2075.33,249.64 -2053.50,242.50              -2037.76,237.35 -2020.89,227.10 -2002.00,222.50              -1994.32,220.63 -1986.51,221.00 -1978.00,221.00              -1964.54,221.00 -1947.55,227.30 -1925.50,232.00              -1880.75,241.54 -1823.17,254.13 -1788.00,261.50              -1735.50,272.50 -1722.28,273.94 -1690.00,269.00              -1616.75,257.79 -1465.50,192.50 -1439.50,183.00              -1424.79,177.63 -1415.27,170.05 -1407.00,165.00              -1400.65,161.12 -1394.27,159.08 -1391.50,158.50              -1367.50,153.50 -1347.00,171.50 -1312.00,160.00              -1285.00,151.13 -1189.73,112.97 -1108.00,77.00              -1092.44,70.15 -1085.60,56.87 -1070.50,46.00              -1062.10,39.95 -1035.62,33.66 -1029.00,32.00              -1014.00,28.23 -1005.24,34.73 -989.00,35.00              -969.14,35.33 -950.21,29.77 -931.50,27.00              -906.16,23.25 -885.47,5.38 -860.43,3.24              -836.09,1.15 -812.03,-0.23 -788.50,-1.00              -656.42,-5.34 -535.41,142.65 -443.50,252.50              -422.16,278.01 -422.27,302.66 -401.50,321.50              -371.14,349.04 -355.81,346.66 -322.00,351.50              -295.56,355.28 -266.47,359.46 -239.50,348.50              -207.60,335.53 -178.54,305.00 -158.50,279.50              -131.09,244.62 -135.38,199.12 -100.00,173.00              -65.31,147.39 -31.62,165.39 5.00,155.00              67.50,137.27 128.50,105.50 128.50,105.50" fill="none" id="RER F Mantes" stroke="#de8b53" stroke-width="8"/></a>
  <a xlink:actuate="onRequest" xlink:href="http://www.plidf.fr/prol/165d13k-rerf-etampes.php" xlink:show="replace" xlink:title="RER F Étampes" xlink:type="simple"><path d="M 1658.50,2451.00            C 1615.93,2484.97 1602.00,2502.00 1553.00,2573.00              1523.87,2618.31 1505.00,2668.00 1444.57,2685.03              1437.29,2686.88 1424.77,2692.26 1416.00,2702.00              1408.68,2710.14 1404.64,2721.58 1398.00,2730.50              1388.92,2742.69 1377.43,2751.52 1368.57,2753.03              1349.78,2756.22 1337.01,2745.55 1318.57,2746.03              1307.49,2746.32 1286.52,2768.76 1275.57,2769.03              1200.94,2770.85 1148.27,2752.20 1112.50,2819.50              1103.74,2835.99 1094.50,2850.00 1101.50,2883.50              1108.50,2917.00 1178.93,2960.47 1164.50,3017.50              1150.07,3074.53 1150.50,3070.50 1139.50,3109.50              1128.50,3148.50 1113.50,3208.00 1102.00,3254.50              1090.50,3301.00 1092.28,3294.51 1087.00,3314.00              1078.40,3345.73 1068.26,3377.15 1058.50,3407.00              1030.21,3493.51 989.58,3565.49 966.50,3635.00              962.51,3647.02 952.29,3673.80 942.00,3688.00              925.24,3711.13 905.61,3727.01 901.00,3743.50              890.74,3780.16 905.16,3819.39 906.00,3842.00              907.48,3881.59 892.00,3900.00 892.00,3900.00              892.00,3900.00 882.50,3916.50 882.50,3916.50              882.50,3916.50 833.85,4002.54 781.61,4115.97              774.40,4131.64 764.33,4145.87 758.50,4164.00              746.25,4202.08 740.60,4247.19 734.50,4287.50              725.50,4347.00 708.53,4432.13 708.00,4439.00              706.52,4458.13 712.76,4476.69 708.48,4489.10              690.59,4540.93 673.27,4545.56 665.19,4560.75              627.88,4630.90 658.38,4669.30 635.34,4715.97              602.55,4782.41 534.42,4836.15 514.45,4890.60              499.75,4930.67 525.07,4979.44 515.94,5007.01              502.26,5048.36 457.73,5059.25 457.73,5059.25" fill="none" id="RER F Etampes" stroke="#de8b53" stroke-width="8"/></a>
  <a xlink:actuate="onRequest" xlink:href="http://www.plidf.fr/prol/hdi8f5-rerf-persan.php" xlink:show="replace" xlink:title="RER F Persan" xlink:type="simple"><path d="M 1168.00,-1232.50            C 1168.00,-1232.50 1085.94,-1189.79 991.00,-1143.00              952.84,-1124.19 925.00,-1110.00 882.00,-1086.50              839.00,-1063.00 811.82,-1049.89 790.00,-1025.00              772.57,-1005.12 773.32,-970.69 770.50,-939.00              769.92,-932.46 762.62,-922.55 760.50,-909.00              756.87,-885.81 757.83,-856.45 757.00,-847.50              755.24,-828.53 748.03,-811.39 743.50,-796.50              735.15,-769.09 727.72,-748.44 722.50,-732.00              717.14,-715.10 712.67,-695.68 718.00,-685.50              722.52,-676.86 752.79,-663.12 754.00,-641.50              754.64,-630.06 745.32,-615.73 739.50,-603.50              730.70,-585.00 723.34,-569.47 718.50,-561.50              710.23,-547.90 700.63,-544.05 698.00,-539.50              689.77,-525.25 686.76,-505.51 683.50,-495.00              675.99,-470.77 654.32,-428.10 653.50,-410.50              652.54,-389.85 683.79,-379.59 689.50,-361.50              696.56,-339.15 687.06,-316.72 702.00,-297.00              715.24,-279.53 736.47,-269.95 754.00,-253.50              769.42,-239.04 807.24,-169.31 820.00,-157.00              862.11,-116.39 930.04,-91.96 969.50,-44.00              992.89,-15.57 1007.39,22.23 1025.50,57.00              1041.44,87.60 1062.16,116.09 1074.00,147.50              1084.16,174.44 1087.31,204.25 1091.00,231.00              1093.74,250.90 1080.86,267.24 1079.00,286.00              1076.24,313.79 1086.05,341.77 1085.00,362.00              1084.19,377.51 1075.31,395.26 1067.00,413.50              1051.04,448.53 1031.00,484.80 1031.00,506.50              1031.00,539.50 1081.01,597.72 1078.00,634.50              1075.97,659.32 1068.43,672.67 1064.50,688.50              1057.64,716.11 1054.50,733.50 1054.50,733.50" fill="none" id="RER F Persan" stroke="#de8b53" stroke-width="8"/></a>
  <a xlink:actuate="onRequest" xlink:href="http://www.plidf.fr/prol/10nnij9-rerf-lisses.php" xlink:show="replace" xlink:title="RER F Lisses" xlink:type="simple"><path d="M 2092.00,3614.00            C 2092.00,3614.00 2083.81,3624.89 2018.50,3549.50              2006.15,3535.24 2014.84,3500.53 2006.50,3476.00              1999.64,3455.84 1977.68,3446.61 1954.00,3426.50              1948.78,3422.07 1920.26,3393.10 1888.00,3386.00              1862.04,3380.29 1836.94,3422.47 1802.50,3417.50              1749.11,3409.80 1649.61,3405.60 1597.00,3389.00              1526.92,3366.89 1509.77,3331.68 1502.50,3323.00              1455.79,3267.27 1517.60,3178.20 1526.50,3083.00              1529.88,3046.84 1507.11,2979.20 1495.00,2957.00              1483.83,2936.51 1472.50,2919.50 1489.00,2874.50              1508.50,2835.50 1509.04,2778.72 1498.00,2747.00              1477.66,2688.55 1574.50,2505.50 1675.00,2438.00              1701.50,2417.62 1673.00,2348.00 1712.00,2313.00" fill="none" id="RER F Lisses" stroke="#de8b53" stroke-width="8"/></a>
  <a xlink:actuate="onRequest" xlink:href="http://www.plidf.fr/prol/ag0gi4-rerf-verneuil.php" xlink:show="replace" xlink:title="RER F Verneuil-l'Étang" xlink:type="simple"><path d="M 3172.00,2795.50            C 3172.00,2795.50 3118.40,2750.64 3059.50,2707.00              3001.12,2663.75 2937.47,2621.73 2931.50,2617.50              2919.50,2609.00 2897.96,2596.02 2871.50,2606.50              2849.81,2615.09 2843.88,2630.44 2826.00,2642.00              2811.67,2651.26 2786.35,2653.75 2773.50,2648.50              2761.92,2643.77 2740.99,2630.14 2737.00,2611.00              2732.13,2587.62 2736.06,2556.43 2729.00,2535.00              2724.06,2520.00 2712.82,2508.01 2702.50,2505.00              2674.03,2496.70 2644.57,2510.37 2622.00,2499.50              2587.17,2482.72 2561.50,2455.00 2517.50,2442.50              2473.50,2430.00 2414.06,2440.47 2373.50,2413.00              2365.19,2407.37 2342.20,2390.65 2323.50,2367.50              2306.25,2346.15 2298.75,2311.07 2290.50,2288.00              2281.27,2262.19 2279.10,2233.53 2277.00,2222.00              2271.00,2189.00 2231.53,2201.30 2211.00,2207.00              2178.23,2216.10 2096.80,2241.20 2034.00,2239.00              1993.32,2237.57 1960.58,2224.30 1953.50,2207.00              1947.72,2192.88 1944.00,2151.50 1908.00,2166.00              1878.32,2178.50 1849.78,2174.32 1824.50,2165.50              1801.24,2157.38 1780.77,2145.14 1764.00,2142.50              1729.00,2137.00 1707.61,2134.31 1685.00,2126.50              1669.06,2120.99 1656.43,2110.27 1647.00,2106.00              1610.73,2089.57 1599.08,2108.48 1576.00,2097.00              1558.78,2088.44 1540.34,2055.30 1530.00,2016.50" fill="none" id="RER F Brie" stroke="#de8b53" stroke-width="8"/></a>
  <a xlink:actuate="onRequest" xlink:href="http://www.plidf.fr/prol/l20k97-rerg-senlis.php" xlink:show="replace" xlink:title="RER G Senlis" xlink:type="simple"><path d="M 2987.50,-1769.00            C 2987.50,-1769.00 2982.86,-1778.92 2971.00,-1786.00              2962.13,-1791.30 2948.76,-1790.48 2935.00,-1794.00              2911.83,-1799.93 2883.77,-1788.90 2865.50,-1784.00              2828.78,-1774.14 2834.74,-1726.67 2829.50,-1707.50              2824.16,-1687.97 2859.28,-1580.22 2852.50,-1553.00              2845.00,-1522.87 2821.32,-1475.90 2799.50,-1430.00              2788.65,-1407.17 2775.53,-1385.00 2770.50,-1364.50              2767.04,-1350.41 2764.07,-1325.27 2779.50,-1308.00              2790.29,-1295.93 2866.77,-1260.96 2878.50,-1248.00              2896.22,-1228.42 2901.26,-1195.45 2912.50,-1174.50              2916.45,-1167.15 2928.47,-1138.07 2941.50,-1107.00              2947.33,-1093.10 2958.96,-1082.93 2960.50,-1067.00              2962.37,-1047.61 2940.47,-1012.42 2940.00,-983.50              2939.83,-973.10 2988.21,-907.13 2962.00,-872.00              2951.15,-857.46 2927.49,-844.85 2909.00,-823.00              2888.85,-799.19 2873.41,-766.09 2850.50,-750.50              2811.33,-723.84 2770.54,-735.77 2755.50,-697.50              2749.46,-682.12 2767.40,-663.81 2785.00,-642.00              2792.68,-632.48 2799.28,-621.06 2805.50,-611.00              2811.79,-600.83 2819.83,-592.18 2821.00,-579.00              2822.48,-562.24 2816.46,-540.72 2821.00,-527.50              2822.89,-522.00 2828.82,-510.77 2838.50,-494.50              2842.71,-487.42 2849.91,-479.51 2854.00,-470.50              2867.24,-441.33 2880.42,-402.59 2894.50,-365.00              2907.34,-330.73 2914.58,-290.49 2920.50,-259.00              2926.70,-226.06 2967.92,-111.16 2963.50,-101.00              2944.44,-57.21 2848.32,-55.40 2824.50,-13.00              2816.89,0.54 2787.06,32.63 2754.50,39.50              2738.26,42.93 2712.45,43.17 2696.00,42.50              2678.03,41.77 2667.08,37.01 2653.50,39.00              2639.14,41.10 2628.09,49.82 2623.50,57.50              2618.64,65.63 2601.72,90.51 2598.00,97.00              2591.34,108.62 2564.17,143.83 2561.00,155.50              2555.86,174.44 2556.00,195.50 2542.50,214.50              2529.00,233.50 2466.00,294.00 2445.00,313.50              2424.00,333.00 2404.00,319.00 2385.50,333.50              2367.00,348.00 2337.34,378.74 2328.00,399.00              2319.02,418.47 2324.50,441.50 2321.50,464.00              2318.50,486.50 2311.50,489.00 2312.50,508.00              2313.50,527.00 2332.00,577.50 2339.50,605.00              2347.00,632.50 2346.72,648.61 2345.50,668.00              2343.73,695.99 2296.00,720.00 2296.00,720.00" fill="none" id="RER G Senlis Parallele" stroke="#8e6538" stroke-width="8"/></a>
  <a xlink:actuate="onRequest" xlink:href="http://www.plidf.fr/prol/g1kf3m-rerg-aulnay-meaux.php" xlink:show="replace" xlink:title="RER G Meaux par Aulnay" xlink:type="simple"><path d="M 5096.50,426.50            C 5096.50,426.50 5054.98,429.81 5011.50,429.00              4997.37,428.74 4983.05,429.11 4970.00,428.00              4951.15,426.40 4935.07,423.12 4927.10,422.10              4877.69,415.82 4829.68,408.33 4811.50,405.50              4772.63,399.45 4733.09,389.64 4695.50,390.50              4684.57,390.75 4658.47,405.96 4648.00,420.00              4638.74,432.43 4635.64,498.24 4631.50,510.50              4625.66,527.80 4613.26,531.83 4598.50,534.50              4569.16,539.82 4587.90,486.91 4547.00,459.50              4533.00,450.12 4505.59,450.66 4482.00,447.00              4441.66,440.74 4402.35,434.63 4387.00,435.50              4324.45,439.06 4274.43,444.69 4207.00,450.00              4195.85,450.88 4180.05,450.69 4164.50,454.00              4146.63,457.81 4128.92,465.32 4116.00,469.00              4101.23,473.21 4053.21,488.98 4009.50,505.00              3979.16,516.12 3950.78,527.85 3935.00,529.00              3848.87,535.27 3759.19,541.07 3669.50,547.00              3667.23,547.15 3660.56,548.50 3652.00,547.50              3641.39,546.26 3627.72,542.31 3614.00,538.50              3598.53,534.21 3578.53,527.00 3565.50,525.50              3552.62,524.02 3543.99,528.64 3531.50,529.50              3514.46,530.68 3496.48,522.66 3488.00,518.50              3462.15,505.82 3448.28,480.15 3427.00,461.00              3406.46,442.51 3374.30,436.29 3361.00,437.50              3331.27,440.21 3295.12,439.77 3265.00,433.00              3237.73,426.87 3216.64,412.09 3187.00,418.50              3157.08,424.97 3141.62,466.51 3093.00,484.50              2943.00,540.00 2775.30,606.71 2665.50,645.00              2641.25,653.46 2638.50,656.00 2619.50,664.50              2600.50,673.00 2590.85,680.09 2578.00,681.50              2550.10,684.56 2519.00,685.50 2453.00,685.00              2387.00,684.50 2355.00,682.75 2277.75,732.25" fill="none" id="RER G Aulnay-Meaux" stroke="#8e6538" stroke-width="8"/></a>
  <a xlink:actuate="onRequest" xlink:href="http://www.plidf.fr/prol/h00ihb-rerg-claye-souilly.php" xlink:show="replace" xlink:title="RER G Claye-Souilly" xlink:type="simple"><path d="M 3577.00,536.50            C 3577.00,536.50 3557.22,526.72 3538.00,531.25              3522.80,534.83 3503.65,551.63 3492.00,562.50              3469.97,583.05 3477.66,630.36 3451.00,655.50              3403.38,700.41 3360.23,742.76 3353.50,751.50              3338.50,771.00 3332.51,854.10 3326.50,859.50              3292.68,889.86 3186.23,877.02 3167.00,898.50              3156.07,910.71 3143.24,940.19 3129.00,960.00              3113.38,981.74 3108.04,1029.94 3085.00,1050.00              3081.46,1053.08 3070.04,1059.57 3063.00,1059.50              3051.62,1059.39 3035.31,1059.91 3019.00,1062.00              3008.52,1063.34 2997.25,1069.27 2987.00,1073.00              2973.34,1077.97 2961.30,1080.94 2953.50,1082.50              2930.61,1087.08 2907.89,1089.44 2897.50,1092.50              2877.10,1098.51 2857.95,1107.62 2852.50,1111.00              2839.09,1119.32 2827.81,1130.62 2814.00,1139.00              2808.59,1142.28 2790.39,1156.41 2777.00,1170.50              2762.92,1185.33 2753.66,1200.12 2749.50,1202.50              2709.85,1225.18 2684.63,1238.31 2643.00,1258.00              2626.76,1265.68 2613.44,1261.38 2597.00,1268.50              2580.51,1275.65 2566.62,1279.02 2550.00,1285.50              2529.01,1293.69 2508.58,1304.08 2487.50,1311.00              2479.85,1313.51 2437.75,1307.41 2417.00,1291.00              2402.30,1279.37 2390.78,1259.71 2376.00,1246.00              2351.91,1223.65 2326.12,1209.23 2315.50,1212.50              2307.54,1214.95 2273.20,1229.75 2240.50,1234.50              2209.41,1239.01 2179.85,1227.16 2174.50,1222.50              2151.09,1202.13 2120.10,1189.27 2107.00,1174.50              2085.30,1150.03 2048.74,1132.31 2029.00,1125.00              1967.19,1102.11 1930.00,1175.00 1930.00,1175.00" fill="none" id="RER G Seine-SaintDenis_modifie Est V2" stroke="#8e6538" stroke-width="8"/></a>
  <a xlink:actuate="onRequest" xlink:href="http://www.plidf.fr/prol/5j59dk-rerg-coulommiers.php" xlink:show="replace" xlink:title="RER G Coulommiers" xlink:type="simple"><path d="M 2486.00,1310.00            C 2492.03,1310.71 2530.00,1290.00 2550.00,1284.00              2570.00,1278.00 2587.40,1275.23 2599.00,1263.00              2610.64,1250.72 2609.59,1222.81 2619.50,1209.00              2627.64,1197.65 2640.94,1196.94 2648.50,1186.00              2656.48,1174.46 2656.28,1168.62 2672.00,1165.00              2686.41,1161.68 2699.76,1168.55 2713.00,1171.00              2736.82,1175.41 2757.63,1177.45 2785.00,1181.00              2819.42,1185.47 2856.88,1192.64 2888.00,1197.00              2942.16,1204.59 2986.40,1211.98 2996.00,1213.00              3080.55,1221.97 3244.27,1197.53 3340.00,1190.00              3377.30,1187.06 3402.33,1183.45 3410.00,1188.00              3426.18,1197.59 3430.18,1225.30 3441.50,1245.00              3453.96,1266.67 3490.50,1273.47 3503.50,1273.00              3534.99,1271.86 3567.47,1264.72 3606.50,1260.00              3641.62,1255.75 3677.15,1255.24 3701.00,1240.50              3731.80,1221.47 3736.53,1175.56 3770.00,1171.50              3817.19,1165.78 3856.66,1166.86 3894.50,1165.50              3902.52,1165.21 3920.46,1161.99 3941.50,1162.00              3960.66,1162.01 3982.39,1165.48 4001.50,1161.00              4018.24,1157.08 4030.68,1147.04 4041.50,1141.50              4050.51,1136.89 4058.39,1133.03 4062.50,1135.50              4075.86,1143.54 4100.89,1150.52 4104.50,1168.50              4109.49,1193.37 4093.93,1229.98 4108.50,1251.00              4121.74,1270.11 4137.79,1283.27 4152.50,1300.00              4174.07,1324.53 4194.71,1351.58 4215.50,1374.00              4243.68,1404.40 4271.26,1441.68 4289.50,1458.00              4350.29,1512.38 4406.00,1519.50 4406.00,1519.50              4406.00,1519.50 4433.00,1533.00 4433.00,1533.00              4433.00,1533.00 4594.87,1629.38 4820.00,1698.00              4872.82,1714.10 4928.06,1720.30 4985.00,1731.00              5004.11,1734.59 5028.91,1741.91 5054.00,1748.50              5075.32,1754.10 5099.18,1757.82 5114.50,1768.00              5141.15,1785.72 5141.35,1815.07 5169.00,1817.50              5188.59,1819.22 5223.08,1811.52 5244.00,1796.50              5254.79,1788.75 5257.60,1780.01 5265.00,1773.00              5271.70,1766.65 5280.50,1763.60 5289.50,1764.00              5320.79,1765.39 5335.50,1793.00 5371.00,1788.00              5430.50,1781.50 5493.72,1711.75 5545.00,1711.00              5569.70,1710.64 5593.01,1720.78 5616.50,1731.50              5651.82,1747.62 5685.95,1766.70 5713.00,1766.50              5738.63,1766.31 5763.82,1745.56 5785.00,1749.00              5799.80,1751.41 5811.94,1761.35 5821.50,1768.00              5836.63,1778.53 5849.00,1787.00 5849.00,1787.00" fill="none" id="RER G Marne-la-Vallee - raccourci" stroke="#8e6538" stroke-width="8"/></a>
  <a xlink:actuate="onRequest" xlink:href="http://www.plidf.fr/prol/g8efg2-rerg-tronc-commun.php" xlink:show="replace" xlink:title="RER G Tronc commun" xlink:type="simple"><path d="M 2309.00,711.00            C 2286.55,725.22 2256.10,749.17 2239.00,758.00              2220.57,767.52 2158.49,812.99 2096.00,860.00              2037.72,903.84 1978.08,941.13 1967.00,957.00              1961.94,964.26 1937.97,999.76 1934.00,1030.50              1930.48,1057.76 1942.31,1082.10 1942.00,1107.00              1941.72,1129.64 1941.50,1144.50 1935.00,1164.00              1928.50,1183.50 1908.34,1241.03 1889.00,1265.00              1880.92,1275.01 1835.18,1278.93 1805.00,1293.00              1795.02,1297.66 1766.29,1318.40 1755.50,1345.50              1749.98,1359.37 1732.72,1401.03 1737.50,1428.00              1743.47,1461.64 1776.83,1475.52 1773.50,1495.50              1769.26,1520.95 1745.03,1520.84 1716.50,1528.50              1704.67,1531.68 1689.04,1547.25 1676.00,1552.50              1647.16,1564.10 1618.21,1590.12 1586.00,1593.00              1556.72,1595.62 1532.05,1573.32 1506.50,1567.50              1473.75,1560.03 1478.75,1515.33 1464.50,1486.50              1456.73,1470.78 1432.79,1463.33 1418.00,1461.00              1375.70,1454.33 1329.65,1460.07 1323.50,1465.50              1267.50,1514.93 1207.86,1512.60 1162.50,1552.00              1143.46,1568.54 1140.10,1575.94 1129.00,1596.00              1120.76,1610.88 1123.09,1634.94 1113.00,1651.00              1103.95,1665.40 1082.52,1672.24 1074.00,1679.00              1065.91,1685.42 1039.23,1694.31 1018.00,1705.00              995.82,1716.17 965.71,1720.55 941.00,1723.00              879.32,1729.12 871.00,1723.00 871.00,1723.00" fill="none" id="RER G Tronc commun_modifie" stroke="#8e6538" stroke-width="8"/></a>
  <a xlink:actuate="onRequest" xlink:href="http://www.plidf.fr/prol/g8efg2-rerg-tronc-commun.php" xlink:show="replace" xlink:title="RER G Tronc commun" xlink:type="simple"><path d="M 520.00,2534.00            C 513.88,2512.33 495.00,2491.00 507.00,2465.00              515.87,2442.82 555.49,2414.77 598.50,2383.50              622.01,2366.41 646.31,2347.98 669.50,2330.00              687.10,2316.35 703.41,2302.33 722.00,2293.00              743.25,2282.34 776.16,2298.18 801.50,2301.50              815.89,2303.39 828.51,2297.99 833.50,2289.50              848.02,2264.77 838.28,2233.20 852.37,2205.67              856.57,2197.46 870.64,2186.06 877.00,2168.00              883.91,2148.38 882.79,2122.09 878.50,2114.50              867.70,2095.39 842.65,2077.59 836.50,2053.00              829.41,2024.67 847.22,1987.92 841.00,1970.50              819.23,1909.52 805.40,1873.91 794.00,1838.00              787.43,1817.29 770.92,1787.08 781.00,1765.00              805.78,1710.70 875.72,1732.54 949.00,1721.50              980.75,1716.72 999.00,1714.00 1056.00,1687.00              1077.56,1676.79 1096.89,1667.55 1107.00,1658.00              1123.63,1642.30 1121.00,1624.00 1121.00,1624.00" fill="none" id="RER G TC Sud" stroke="#8e6538" stroke-width="8"/></a>
  <a xlink:actuate="onRequest" xlink:href="http://www.plidf.fr/prol/bdi3gi-rerg-plaisir.php" xlink:show="replace" xlink:title="RER G Plaisir" xlink:type="simple"><path d="M 1057.00,1687.00            C 1057.00,1687.00 1023.00,1702.00 979.00,1715.00              935.00,1728.00 916.00,1739.00 903.00,1761.00              890.00,1783.00 882.39,1815.23 838.00,1835.50              820.03,1843.71 785.68,1844.34 749.00,1850.00              717.55,1854.85 684.06,1862.33 656.00,1862.50              623.76,1862.70 609.82,1852.52 600.50,1850.00              586.29,1846.16 567.95,1846.41 551.50,1847.00              541.12,1847.37 532.60,1855.62 525.00,1858.00              490.51,1868.81 470.08,1890.56 440.00,1896.00              418.27,1899.93 371.07,1897.96 338.00,1907.00              329.54,1909.31 302.86,1932.57 280.00,1933.00              259.15,1933.39 225.38,1930.09 205.00,1923.00              186.72,1916.64 179.36,1905.06 168.00,1903.00              134.34,1896.89 98.95,1912.39 69.00,1909.00              38.04,1905.50 9.72,1880.09 -12.00,1873.00              -38.37,1864.39 -59.08,1873.11 -79.00,1875.50              -101.08,1878.15 -116.50,1868.00 -116.50,1868.00              -116.50,1868.00 -122.00,1862.50 -122.00,1862.50              -122.00,1862.50 -135.33,1854.12 -148.00,1839.00              -159.53,1825.24 -169.38,1805.12 -190.00,1796.00              -209.40,1787.42 -233.14,1790.02 -259.00,1778.00              -324.66,1747.48 -405.94,1694.44 -479.00,1654.00              -510.48,1636.58 -522.83,1599.53 -554.00,1588.00              -575.17,1580.17 -599.38,1581.80 -623.00,1581.00              -653.73,1579.96 -683.60,1577.88 -706.00,1577.00              -763.61,1574.73 -788.00,1568.00 -788.00,1568.00" fill="none" id="RER G Plaisir" stroke="#8e6538" stroke-width="8"/></a>
  <a xlink:actuate="onRequest" xlink:href="http://www.plidf.fr/prol/mah62a-rerg-saint-arnoult.php" xlink:show="replace" xlink:title="RER G Saint-Arnoult-en-Yvelines" xlink:type="simple"><path d="M -868.00,4021.00            C -868.00,4021.00 -950.23,3968.58 -868.50,3893.50              -846.10,3872.92 -813.65,3847.17 -770.00,3823.00              -727.69,3799.58 -660.20,3805.34 -612.00,3781.50              -566.94,3759.21 -539.74,3713.13 -510.50,3680.50              -501.77,3670.76 -489.93,3671.11 -482.00,3663.50              -470.43,3652.39 -460.25,3641.77 -451.50,3629.50              -445.86,3621.59 -442.21,3612.02 -434.50,3604.50              -416.30,3586.74 -388.24,3573.01 -367.50,3556.00              -349.32,3541.09 -338.32,3522.87 -323.50,3508.00              -308.26,3492.72 -277.01,3486.60 -263.00,3471.00              -247.32,3453.53 -244.47,3383.61 -229.00,3367.50              -223.17,3361.43 -214.42,3356.90 -207.00,3348.00              -201.08,3340.91 -197.42,3330.08 -186.50,3320.50              -170.06,3306.09 -139.25,3311.01 -112.50,3281.00              -89.05,3254.68 -69.67,3193.66 -53.00,3175.00              -41.84,3162.50 -31.96,3155.05 -29.50,3152.50              -15.51,3138.01 214.50,3036.50 245.00,3023.00              263.71,3014.72 301.30,3001.86 334.50,2987.50              355.42,2978.45 373.89,2967.78 387.00,2960.50              431.06,2936.04 522.50,2959.00 552.50,2947.00              582.50,2935.00 617.32,2917.82 641.50,2871.00              665.28,2824.94 662.60,2749.81 660.25,2702.00              658.93,2675.08 638.25,2650.75 618.25,2638.75              598.25,2626.75 562.09,2613.84 553.00,2604.00              543.86,2594.10 533.17,2568.31 524.00,2545.50              515.11,2523.39 507.60,2504.15 506.50,2501.00              499.50,2483.00 503.00,2468.00 514.00,2451.00              525.00,2434.00 537.00,2431.00 537.00,2431.00" fill="none" id="RER G Saint-Arnoult_aligne" stroke="#8e6538" stroke-width="8"/></a>
  <a xlink:actuate="onRequest" xlink:href="http://www.plidf.fr/prol/9nm6k5-rerg-la-ferte-alais.php" xlink:show="replace" xlink:title="RER G La Ferté-Alais" xlink:type="simple"><path d="M 575.72,2401.00            C 575.72,2401.00 535.60,2425.58 514.52,2451.75              500.21,2469.52 500.50,2488.32 505.57,2499.51              515.83,2522.17 527.53,2557.32 545.87,2595.03              552.63,2608.94 578.35,2605.56 605.57,2608.46              624.57,2610.49 682.23,2619.99 719.00,2630.00              743.13,2636.57 742.71,2643.63 771.00,2648.00              821.99,2655.88 878.61,2644.99 926.46,2666.67              991.04,2695.94 1072.22,2719.97 1113.00,2747.00              1120.67,2752.08 1135.73,2768.24 1135.50,2785.50              1135.25,2804.75 1119.13,2825.33 1117.50,2832.50              1113.46,2850.24 1113.50,2866.00 1118.00,2877.50              1122.50,2889.00 1136.00,2906.87 1147.00,2922.00              1149.48,2925.41 1163.22,2940.20 1172.50,2958.00              1179.92,2972.23 1182.44,2989.23 1182.00,2997.00              1181.61,3003.79 1178.62,3010.41 1176.50,3018.50              1173.16,3031.26 1169.91,3046.11 1166.50,3059.00              1155.58,3100.31 1144.50,3139.71 1139.50,3157.00              1133.86,3176.51 1126.72,3205.16 1120.50,3231.50              1112.37,3265.92 1106.20,3297.94 1111.00,3316.00              1134.69,3405.07 1310.44,3451.27 1316.00,3525.50              1317.28,3542.52 1304.47,3556.97 1300.50,3571.50              1287.23,3620.01 1263.15,3683.13 1247.00,3730.50              1223.45,3799.57 1240.05,3888.94 1243.50,3952.00              1259.92,4252.00 1619.00,4086.50 1668.00,4283.50              1675.14,4316.23 1696.24,4350.34 1700.50,4380.50              1704.44,4408.40 1700.76,4433.87 1695.00,4458.50              1689.24,4483.13 1688.49,4490.73 1683.50,4506.00              1669.56,4548.64 1632.20,4580.95 1612.50,4599.50              1597.12,4613.98 1595.50,4633.00 1595.50,4633.00" fill="none" id="RER G La Ferte" stroke="#8e6538" stroke-width="8"/></a>
  <a xlink:actuate="onRequest" xlink:href="http://www.plidf.fr/prol/leb6ne-petite-ceinture-express.php" xlink:show="replace" xlink:title="Petite Ceinture Express" xlink:type="simple"><path d="M 1395.25,1018.25            C 1402.35,1015.63 1409.37,1011.44 1418.75,1008.75              1432.53,1004.80 1449.88,1010.58 1467.75,1008.25              1494.60,1004.75 1524.01,993.85 1555.25,991.25              1575.98,989.52 1596.37,989.84 1615.25,989.25              1638.50,988.52 1659.81,987.26 1680.75,989.25              1714.86,992.48 1745.97,999.10 1772.25,1020.25              1786.70,1031.88 1787.76,1067.51 1790.75,1107.75              1794.11,1152.98 1800.08,1204.23 1803.25,1227.25              1804.21,1234.20 1809.83,1244.32 1819.25,1254.25              1827.97,1263.45 1841.41,1273.00 1853.75,1285.25              1861.75,1293.19 1868.23,1302.55 1876.25,1312.75              1882.24,1320.37 1900.96,1340.42 1913.25,1362.75              1924.58,1383.33 1929.75,1406.20 1930.25,1415.25              1932.97,1464.21 1912.22,1511.54 1910.75,1518.25              1910.12,1521.12 1902.42,1536.71 1884.25,1552.25              1873.72,1561.25 1860.31,1570.98 1845.10,1580.94              1835.04,1587.53 1822.58,1590.09 1811.25,1596.75              1795.38,1606.07 1782.67,1619.95 1765.75,1628.75              1744.55,1639.78 1722.35,1649.62 1700.25,1654.75              1683.88,1658.55 1664.91,1658.10 1649.75,1660.25              1622.32,1664.15 1594.42,1662.75 1567.25,1662.25              1550.28,1661.94 1532.83,1670.95 1516.25,1667.75              1476.56,1660.10 1439.94,1638.98 1401.25,1625.25              1375.05,1615.95 1346.89,1608.93 1321.75,1598.25              1295.32,1587.02 1269.80,1581.22 1244.75,1570.25              1237.34,1567.01 1233.50,1558.85 1226.25,1555.25              1213.15,1548.75 1198.44,1544.85 1185.25,1539.25              1171.36,1533.35 1159.04,1525.77 1147.25,1519.75              1138.40,1515.23 1128.74,1515.34 1120.25,1521.75              1114.59,1526.02 1109.06,1541.20 1100.75,1543.25              1077.99,1548.86 1038.13,1534.24 1028.25,1525.25              1022.87,1520.36 1015.73,1513.86 1011.75,1506.25              1005.53,1494.36 1004.42,1480.36 1009.75,1470.25              1017.19,1456.13 1045.19,1452.09 1054.75,1432.75              1057.08,1428.03 1064.26,1421.09 1069.75,1405.75              1074.00,1393.87 1075.31,1374.28 1084.75,1363.75              1099.98,1346.77 1130.12,1345.64 1134.25,1339.25              1149.87,1315.09 1120.25,1303.75 1130.75,1266.25              1134.76,1251.93 1152.33,1202.30 1193.25,1169.25              1214.13,1152.39 1234.28,1134.51 1255.25,1118.25              1268.34,1108.10 1275.79,1100.69 1288.75,1094.25              1303.08,1087.13 1303.85,1070.55 1310.75,1061.75              1319.33,1050.81 1375.25,1024.25 1375.25,1024.25              1375.25,1024.25 1378.65,1024.37 1395.25,1018.25 Z" fill="none" id="PCE" stroke="#198d92" stroke-width="8"/></a>
  <a xlink:actuate="onRequest" xlink:href="http://www.plidf.fr/prol/10cke4l-tangentielle-essonne.php" xlink:show="replace" xlink:title="Tangentielle Essonne" xlink:type="simple"><path d="M 2091.00,3398.00            C 2091.00,3398.00 1996.31,3390.60 1885.50,3393.50              1817.04,3395.29 1742.08,3408.45 1678.50,3407.00              1608.49,3405.41 1552.24,3388.19 1533.00,3366.50              1513.08,3344.04 1491.20,3331.43 1487.50,3300.50              1479.43,3233.04 1522.71,3166.73 1529.50,3078.00              1531.47,3052.23 1524.93,3038.55 1518.00,3020.00              1511.96,3003.83 1506.23,2982.96 1498.00,2960.00              1492.59,2944.90 1474.46,2941.53 1458.00,2931.50              1446.40,2924.44 1436.92,2913.76 1426.50,2904.00              1415.90,2894.08 1404.40,2885.04 1398.00,2873.00              1387.32,2852.93 1391.06,2812.14 1384.00,2780.50              1380.04,2762.74 1370.23,2748.23 1358.50,2741.00              1349.53,2735.47 1338.21,2730.41 1325.00,2728.00              1309.42,2725.15 1291.36,2725.21 1273.50,2721.50              1239.80,2714.49 1205.51,2700.97 1182.00,2667.50              1169.28,2649.38 1155.62,2629.73 1147.50,2604.00              1140.45,2581.67 1138.35,2553.59 1135.00,2532.50              1132.83,2518.82 1134.89,2505.83 1134.00,2495.00              1132.79,2480.19 1128.18,2469.44 1119.00,2466.50              1083.43,2455.11 1073.51,2480.48 1048.00,2511.50              1032.46,2530.39 1013.00,2539.50 993.00,2566.00              973.00,2592.50 973.03,2596.06 967.00,2608.00              963.55,2614.83 955.24,2618.73 950.50,2624.50              942.46,2634.29 937.53,2645.21 932.00,2654.00              926.26,2663.13 928.15,2674.35 923.50,2680.50              918.45,2687.18 913.50,2691.44 909.00,2693.00              900.56,2695.92 884.43,2690.12 861.50,2689.00              854.42,2688.65 847.95,2691.32 840.50,2691.00              832.86,2690.68 826.62,2688.80 819.50,2689.00              812.87,2689.18 805.38,2691.44 797.77,2690.97              791.44,2690.58 784.75,2687.39 778.50,2687.00              771.24,2686.55 764.44,2688.90 757.50,2688.50              721.85,2686.43 705.90,2682.86 672.00,2690.50              666.69,2691.70 662.13,2698.38 655.50,2704.50              650.28,2709.32 642.76,2712.97 639.50,2719.00              630.94,2734.80 630.72,2751.88 621.50,2754.50              593.48,2762.46 572.76,2769.57 545.00,2776.00              534.50,2778.43 520.71,2766.83 509.50,2770.00              495.16,2774.06 483.33,2792.71 469.50,2793.00              453.03,2793.35 439.18,2785.79 424.50,2779.00              404.23,2769.62 383.53,2759.53 362.50,2754.00              342.31,2748.69 316.66,2764.53 297.00,2760.50              271.44,2755.26 248.18,2739.91 224.00,2736.50              190.13,2731.72 156.25,2739.30 127.50,2733.50              102.24,2728.40 92.28,2707.79 71.50,2705.00              49.67,2702.07 31.16,2706.03 13.50,2707.50              -20.04,2710.29 -43.00,2716.50 -43.00,2716.50" fill="none" id="Tg Ess 1km Saint-Remy - Ste Genevieve" stroke="#0514cf" stroke-width="8"/></a>
  <a xlink:actuate="onRequest" xlink:href="http://www.plidf.fr/prol/194083n-tangentielle-seine-saint-denis.php" xlink:show="replace" xlink:title="Tangentielle Seine-Saint-Denis" xlink:type="simple"><path d="M 2951.50,1178.00            C 2951.50,1178.00 2920.61,1173.25 2883.50,1169.00              2863.12,1166.67 2838.78,1171.39 2811.50,1167.00              2775.50,1161.21 2740.07,1161.18 2691.00,1148.00              2663.79,1140.69 2629.01,1127.69 2595.00,1104.00              2577.03,1091.49 2547.58,1070.61 2525.00,1062.50              2488.25,1049.31 2411.50,1036.50 2389.50,1032.00              2367.50,1027.50 2237.77,997.43 2227.50,996.50              2205.50,994.50 2146.36,1000.76 2106.00,994.00              2081.38,989.88 2075.96,950.52 2066.00,907.50              2061.61,888.52 2054.01,871.38 2047.50,853.00              2042.31,838.34 2038.40,822.06 2033.00,809.50              2025.61,792.31 2024.69,771.00 2023.00,752.00              2021.29,732.74 2018.84,715.82 2014.00,703.50              2005.84,682.72 1982.45,685.05 1972.50,651.50              1968.28,637.26 1965.09,622.68 1959.50,610.00              1948.64,585.36 1931.10,565.23 1916.00,546.00              1902.82,529.22 1889.55,512.19 1872.00,502.50              1860.55,496.18 1824.00,485.00 1808.50,475.50              1793.00,466.00 1787.41,451.44 1768.00,447.00              1723.93,436.93 1672.00,437.00 1634.00,432.00              1596.00,427.50 1580.22,435.23 1573.50,435.50              1548.50,436.50 1520.75,436.82 1490.10,439.18              1476.56,440.23 1466.42,445.89 1453.50,447.00              1441.35,448.04 1426.34,444.53 1415.84,445.51              1395.10,447.42 1378.62,449.08 1370.50,450.00              1360.70,451.11 1344.09,450.98 1331.00,459.00              1321.42,464.87 1315.90,477.83 1308.50,485.00              1298.68,494.52 1288.13,497.70 1285.50,498.50              1273.00,502.28 1219.29,504.53 1168.00,518.00              1146.31,523.70 1129.13,536.43 1110.00,543.00              1096.58,547.61 1080.73,548.19 1068.00,545.50              1052.25,542.18 1046.68,531.23 1039.00,521.50              1026.97,506.25 1015.04,491.64 991.00,496.00              960.87,501.46 895.50,525.00 851.00,540.50              806.50,556.00 709.95,604.09 627.50,636.50              585.92,652.85 539.50,676.00 525.50,676.50              511.50,677.00 503.38,666.19 495.00,658.50              491.61,655.39 439.56,597.11 379.50,540.00              338.25,500.78 297.49,461.99 249.00,442.50              165.50,412.50 74.00,474.50 56.00,485.00              38.00,495.50 -215.08,672.01 -212.50,671.50" fill="none" id="Tg Sd_parallele" stroke="#0514cf" stroke-width="8"/></a>
  <a xlink:actuate="onRequest" xlink:href="http://www.plidf.fr/prol/55l5dn-tangentielle-val-de-marne.php" xlink:show="replace" xlink:title="Tangentielle Val-de-Marne" xlink:type="simple"><path d="M 2948.00,1189.00            C 2948.00,1189.00 2958.00,1189.50 2905.00,1181.50              2852.00,1173.50 2840.14,1178.81 2823.00,1177.50              2804.60,1176.10 2774.73,1171.14 2746.50,1166.50              2717.14,1161.68 2689.88,1155.73 2669.00,1157.50              2652.52,1158.90 2648.92,1170.63 2643.00,1180.00              2637.98,1187.94 2625.32,1191.39 2617.00,1200.50              2607.71,1210.66 2600.48,1229.04 2595.00,1245.50              2590.54,1258.87 2587.05,1277.85 2584.00,1292.00              2580.04,1310.40 2580.30,1325.60 2582.00,1343.50              2584.39,1368.60 2588.32,1392.89 2596.00,1413.50              2602.91,1432.05 2613.73,1446.99 2614.00,1468.00              2614.21,1484.20 2603.36,1495.23 2600.00,1509.00              2596.61,1522.86 2597.93,1535.80 2594.00,1547.00              2584.28,1574.72 2569.50,1592.50 2569.50,1592.50              2569.50,1592.50 2565.00,1598.00 2565.00,1598.00              2565.00,1598.00 2556.84,1602.58 2553.50,1615.50              2550.44,1627.35 2551.87,1646.20 2558.00,1675.00              2566.31,1714.06 2604.00,1785.50 2607.00,1821.00              2610.00,1856.50 2616.77,1914.63 2595.00,1948.50              2585.82,1962.79 2572.90,1980.93 2557.50,1992.50              2538.27,2006.94 2516.63,2014.55 2510.50,2031.00              2504.40,2047.36 2505.97,2069.67 2506.00,2086.70              2506.08,2120.85 2508.03,2151.83 2470.00,2161.50              2451.37,2166.24 2423.61,2172.74 2390.41,2180.31              2322.05,2195.88 2230.65,2215.98 2148.50,2234.50              2129.57,2238.77 2110.30,2242.67 2093.00,2245.00              2068.46,2248.30 2048.88,2248.18 2034.00,2258.50              2010.33,2274.92 1989.35,2299.61 1982.50,2319.00              1976.09,2337.15 1978.75,2353.62 1973.50,2365.50              1962.33,2390.79 1943.16,2391.52 1932.00,2390.00              1910.00,2387.00 1884.85,2362.24 1864.50,2331.00              1845.84,2302.35 1835.50,2275.50 1818.50,2271.50              1801.50,2267.50 1796.18,2267.82 1788.00,2270.50              1754.20,2281.57 1719.25,2311.55 1681.00,2334.50              1633.50,2363.00 1629.48,2368.22 1603.00,2378.50              1586.25,2385.01 1570.47,2387.24 1557.00,2390.00              1542.67,2392.94 1530.98,2396.17 1525.00,2395.00              1504.50,2391.00 1460.20,2368.90 1439.00,2354.00              1401.76,2327.83 1378.87,2302.32 1352.00,2318.50              1338.44,2326.67 1330.29,2336.88 1317.00,2344.50              1295.71,2356.71 1272.05,2361.99 1252.00,2373.50              1242.35,2379.04 1232.27,2382.91 1223.00,2388.50              1214.16,2393.83 1206.09,2400.91 1198.00,2405.00              1185.22,2411.46 1174.04,2412.01 1162.00,2417.00              1146.20,2423.54 1135.53,2431.32 1123.50,2439.00              1105.05,2450.78 1093.82,2464.64 1084.00,2476.00              1065.63,2497.25 1058.00,2513.00 1058.00,2513.00" fill="none" id="Tg Vdm Massy" stroke="#0514cf" stroke-width="8"/></a>
  <a xlink:actuate="onRequest" xlink:href="http://www.plidf.fr/prol/18n3c30-tangentielle-yvelines.php" xlink:show="replace" xlink:title="Tangentielle Yvelines" xlink:type="simple"><path d="M -388.50,-347.50            C -388.50,-347.50 -376.54,-367.19 -347.00,-371.00              -314.47,-375.20 -270.00,-361.96 -218.00,-354.50              -186.06,-349.92 -150.31,-343.56 -116.00,-338.00              -100.05,-335.42 -83.84,-338.07 -69.50,-332.00              -41.08,-319.97 -28.86,-282.51 -5.50,-258.00              11.35,-240.32 25.95,-226.23 43.00,-212.00              53.66,-203.10 67.51,-194.73 74.50,-181.50              82.79,-165.81 75.50,-136.29 61.00,-117.50              47.26,-99.70 25.34,-90.16 13.00,-74.00              -4.73,-50.79 4.05,-31.31 -1.50,-16.50              -4.72,-7.92 -17.35,7.68 -22.50,27.50              -25.91,40.61 -27.53,55.90 -27.00,72.00              -26.70,81.23 -26.07,97.17 -26.00,106.00              -25.84,126.71 -26.78,150.56 -22.50,170.50              -16.42,198.85 -4.00,223.50 -0.50,243.50              3.00,263.50 -6.50,347.50 1.00,391.00              2.25,398.25 12.62,421.94 21.00,446.50              28.64,468.89 33.53,486.73 21.50,504.00              8.37,522.84 -7.72,520.41 -28.50,539.00              -46.93,555.49 -37.53,592.67 -48.00,621.50              -54.02,638.08 -77.41,650.18 -86.50,661.50              -104.99,684.52 -123.46,703.26 -144.00,722.50              -157.42,735.07 -180.72,746.42 -180.50,763.00              -179.69,824.90 -80.63,812.37 -35.00,868.00              -26.90,877.88 -29.08,893.69 -28.50,911.50              -27.82,932.53 -25.55,956.31 -30.50,976.00              -35.78,997.01 -47.47,1004.21 -45.50,1022.50              -42.06,1054.44 -14.35,1077.83 -0.50,1099.00              7.61,1111.39 9.79,1125.25 6.00,1137.00              -0.59,1157.44 -19.37,1172.57 -33.50,1189.00              -47.99,1205.85 -59.93,1221.79 -75.50,1226.50              -99.68,1233.81 -116.00,1214.50 -136.00,1226.50              -145.57,1232.24 -156.48,1242.16 -158.00,1253.50              -159.66,1265.85 -152.61,1286.46 -156.00,1300.50              -159.30,1314.19 -169.98,1325.35 -175.00,1336.00              -179.92,1346.44 -179.27,1356.42 -174.50,1366.00              -167.58,1379.91 -156.21,1398.47 -145.00,1418.00              -134.92,1435.56 -125.21,1456.03 -111.50,1473.00              -106.44,1479.26 -118.00,1477.00 -94.00,1489.00              -70.00,1501.00 -45.92,1503.52 -26.00,1519.50              0.47,1540.73 16.25,1581.90 23.50,1610.50              27.00,1624.32 26.93,1639.99 23.50,1653.50              19.52,1669.19 11.48,1682.69 6.50,1698.50              -1.34,1723.38 -2.27,1749.24 -8.00,1772.00              -15.94,1803.52 -10.87,1831.48 12.00,1848.00              23.30,1856.16 38.82,1855.00 50.00,1864.00              62.58,1874.13 68.40,1885.65 83.00,1889.00              101.50,1893.24 122.64,1879.15 147.00,1878.00              172.20,1876.81 193.59,1891.76 215.00,1901.00              237.45,1910.69 258.88,1907.71 284.00,1907.00              303.23,1906.46 303.91,1892.97 332.00,1885.00              346.44,1880.90 362.29,1879.83 376.00,1880.00              394.94,1880.24 412.38,1892.57 419.50,1900.00              424.58,1905.30 428.85,1912.04 430.50,1919.50              433.04,1930.99 431.07,1944.42 429.69,1958.55              427.16,1984.31 458.96,1995.88 452.00,2024.00              449.52,2034.00 441.27,2046.56 432.00,2060.00              426.05,2068.63 405.64,2087.75 402.00,2107.00              399.08,2122.44 404.00,2132.00 415.00,2142.00              426.00,2152.00 455.03,2162.06 483.50,2164.50              496.05,2165.57 508.19,2164.28 524.00,2166.50              551.70,2170.39 583.57,2180.14 610.00,2189.00              631.84,2196.32 652.40,2203.54 668.50,2215.00              679.11,2222.55 686.11,2233.84 700.00,2241.50              729.87,2257.97 765.70,2266.98 793.50,2281.50              825.28,2298.10 849.17,2317.56 859.00,2325.00              872.38,2335.14 880.39,2347.97 885.50,2360.50              892.94,2378.73 891.63,2398.58 894.50,2414.50              896.96,2428.12 902.99,2438.79 914.50,2444.00              935.22,2453.38 955.68,2461.04 972.39,2468.71              979.61,2472.02 985.03,2480.93 987.50,2490.00              991.27,2503.87 989.00,2517.00 1001.50,2525.50              1014.00,2534.00 1018.49,2523.67 1028.00,2520.00              1041.07,2514.95 1043.00,2499.00 1043.00,2499.00" fill="none" id="Tg Y_parallele" stroke="#0514cf" stroke-width="8"/></a>
  <a xlink:actuate="onRequest" xlink:href="http://www.plidf.fr/prol/77eama-transilien-u-argenteuil.php" xlink:show="replace" xlink:title="Transilien U Argenteuil" xlink:type="simple"><path d="M 1038.25,552.50            C 1038.25,552.50 1045.82,567.35 1055.75,588.25              1061.53,600.41 1067.93,614.74 1068.50,630.25              1069.24,650.63 1058.95,671.04 1052.75,691.00              1045.45,714.50 1043.59,745.99 1045.00,757.50              1046.34,768.41 1063.32,777.64 1063.50,788.75              1063.86,811.11 1049.28,822.34 1054.00,843.00              1056.07,852.07 1070.20,856.96 1075.50,865.00              1079.81,871.55 1080.36,880.29 1082.50,887.00              1084.21,892.37 1090.57,918.30 1083.00,932.00              1073.33,949.51 1049.52,953.73 1039.00,959.00              1022.68,967.18 1007.37,976.00 1001.50,979.50              983.98,989.95 966.34,999.08 953.00,1007.50              915.13,1031.41 917.00,1082.50 917.00,1082.50" fill="none" id="transilien U argenteuil 1 km" stroke="#ed0677" stroke-width="8"/></a>
  <a xlink:actuate="onRequest" xlink:href="http://www.plidf.fr/prol/11d4145-transilien-u-rive-droite.php" xlink:show="replace" xlink:title="Transilien U Variante Rive-Droite" xlink:type="simple"><path d="M -357.50,2056.00            C -357.50,2056.00 -324.94,2048.92 -235.50,1998.50              -195.46,1975.93 -122.50,1914.00 -98.00,1896.50              -73.50,1879.00 -23.19,1863.87 -10.50,1833.00              16.72,1766.79 7.21,1656.31 75.00,1640.00              98.15,1634.43 174.29,1646.01 230.00,1681.50              255.85,1697.97 251.41,1731.25 271.00,1750.00              287.65,1765.94 329.53,1768.89 338.50,1768.50              378.72,1766.73 408.50,1781.50 431.00,1797.00              447.33,1808.78 476.02,1805.24 510.00,1805.50              539.49,1805.73 544.89,1796.27 561.50,1792.50              579.31,1788.46 597.75,1785.15 609.00,1774.00              623.84,1759.30 631.12,1735.06 640.50,1718.00              657.00,1688.00 685.50,1670.50 685.50,1670.50" fill="none" id="Transilien u Variante Rive-Droite" stroke="#ed0677" stroke-width="8"/></a>
</svg>