<?xml version="1.0" encoding="UTF-8" standalone="no"?><svg xmlns="http://www.w3.org/2000/svg" xmlns:xlink="http://www.w3.org/1999/xlink" contentScriptType="text/ecmascript" contentStyleType="text/css" preserveAspectRatio="xMidYMid meet" version="1.0" viewBox="0 0 3193 2764" width="886px" zoomAndPan="magnify"><title content="structured text">Métro | Les propositions d'extension du réseau PLIDF</title><image height="100%" opacity=".7" preserveAspectRatio="xMidYMid meet" width="100%" x="0" xlink:actuate="onLoad" xlink:href="paris_bg.jpg" xlink:show="embed" xlink:type="simple" y="0"/>
  <a xlink:actuate="onRequest" xlink:show="replace" xlink:title="1 km" xlink:type="simple"><path d="M 6.50,2744.00            C 6.50,2744.00 87.50,2744.00 87.50,2744.00" fill="none" id="1 km" stroke="black" stroke-width="1"/></a>
  <a xlink:actuate="onRequest" xlink:show="replace" xlink:title="Seine" xlink:type="simple"><path d="M 1845.00,2758.00            C 1845.00,2758.00 1870.65,2657.71 1956.00,2576.00              2005.22,2528.88 2134.00,2537.00 2139.00,2456.00              2140.90,2425.20 2121.69,2377.24 2087.00,2333.00              2030.48,2260.92 1953.27,2180.66 1952.00,2117.00              1950.18,2025.78 2049.53,1953.80 1992.00,1885.00              1980.81,1871.62 1935.84,1829.19 1930.00,1794.00              1925.70,1768.08 1946.49,1729.75 1932.00,1707.00              1910.23,1672.81 1848.94,1670.83 1821.47,1631.69              1786.71,1582.17 1747.47,1530.99 1704.00,1484.00              1654.24,1430.22 1609.25,1371.06 1544.00,1342.00              1467.41,1307.89 1343.55,1256.25 1262.00,1311.00              1232.98,1330.49 1210.81,1361.62 1189.00,1394.00              1160.12,1436.89 1133.04,1483.39 1103.00,1522.00              1065.75,1569.87 1037.81,1623.81 1003.00,1648.00              961.56,1676.79 920.60,1661.32 895.00,1633.00              883.44,1620.21 854.45,1593.90 848.00,1544.00              843.66,1510.47 851.27,1469.37 858.00,1425.00              864.16,1384.40 852.01,1337.07 871.00,1292.00              893.81,1237.87 950.28,1185.76 987.00,1136.00              1020.29,1090.89 1052.81,1046.65 1091.00,1012.00              1122.69,983.26 1168.03,969.36 1202.00,948.00              1229.56,930.68 1254.77,903.00 1281.00,888.00              1330.21,859.86 1370.56,847.73 1411.00,820.00              1489.70,766.03 1548.06,681.55 1537.00,631.00              1525.04,576.32 1452.27,545.43 1388.00,528.00              1301.82,504.63 1210.71,510.16 1109.00,560.00              1004.95,610.99 901.88,699.27 810.00,795.00              792.04,813.72 749.11,861.89 696.00,890.00              644.01,917.52 582.04,924.74 545.00,964.00              503.27,1008.24 495.01,1068.72 476.00,1113.00              462.98,1143.34 445.85,1192.54 411.00,1219.00              387.37,1236.94 349.88,1239.83 322.00,1237.00              274.15,1232.15 217.82,1164.53 193.00,1083.00              182.03,1046.96 176.55,1005.40 179.00,968.00              180.20,949.67 197.74,921.44 214.00,886.00              233.30,843.94 254.02,792.53 289.00,747.00              343.60,675.93 417.19,617.69 458.01,575.97              547.00,485.00 620.00,409.00 570.00,308.00              560.23,288.27 551.98,255.24 514.00,228.00              479.22,203.05 416.43,183.33 369.00,175.00              287.16,160.62 194.11,156.30 122.00,164.00              48.01,171.90 -4.00,192.00 -4.00,192.00" fill="none" id="Seine" stroke="#3cb0ff" stroke-width="18"/></a>
  <a xlink:actuate="onRequest" xlink:show="replace" xlink:title="Marne" xlink:type="simple"><path d="M 3187.00,1339.00            C 3187.00,1339.00 3156.97,1345.73 3123.00,1324.00              3099.28,1308.83 3079.92,1264.93 3041.00,1258.00              3012.73,1252.97 2998.91,1269.36 2963.00,1276.00              2925.10,1283.01 2864.87,1280.71 2826.00,1292.00              2787.49,1303.18 2779.21,1348.98 2724.00,1368.00              2668.16,1387.23 2565.47,1379.80 2538.00,1410.00              2531.32,1417.34 2521.69,1446.32 2529.00,1472.00              2536.54,1498.47 2556.95,1526.94 2560.00,1549.00              2562.00,1563.44 2546.33,1580.94 2533.00,1588.00              2511.75,1599.25 2486.41,1581.90 2454.00,1573.00              2433.46,1567.36 2407.65,1569.86 2386.00,1570.00              2319.58,1570.42 2279.00,1596.00 2276.00,1635.00              2273.00,1674.00 2281.36,1688.17 2300.00,1708.00              2318.24,1727.40 2346.24,1739.51 2378.00,1748.00              2441.41,1764.94 2528.60,1747.64 2562.00,1784.00              2589.47,1813.90 2602.87,1886.66 2582.00,1934.00              2563.28,1976.45 2537.00,1995.00 2510.00,1993.00              2483.00,1991.00 2456.24,1992.70 2430.00,1992.00              2382.56,1990.74 2327.99,1992.95 2300.00,1954.00              2279.73,1925.79 2296.63,1880.98 2286.00,1842.00              2276.96,1808.84 2245.22,1780.63 2222.00,1756.00              2210.57,1743.88 2204.04,1730.88 2193.00,1722.00              2156.73,1692.82 2119.59,1711.70 2076.00,1710.00              2002.41,1707.13 1932.00,1700.00 1932.00,1700.00" fill="none" id="Marne" stroke="#3cb0ff" stroke-width="18"/></a>
  <a xlink:actuate="onRequest" xlink:href="http://www.plidf.fr/prol/15nl386-m1-nord-est-fort-de-nogent-raincy.php" xlink:show="replace" xlink:title="M1 Nord Est - Le Raincy" xlink:type="simple"><path d="M 3081.50,1057.00            C 3081.50,1057.00 3053.50,1016.00 3056.50,984.00              3059.50,952.00 2993.81,936.65 2962.50,928.00              2953.80,925.60 2914.66,935.39 2878.50,949.00              2855.18,957.78 2845.32,970.85 2826.50,983.00              2797.28,990.75 2764.81,980.98 2756.50,980.25              2732.16,978.12 2721.00,969.25 2687.75,973.50              2654.50,977.75 2642.21,993.84 2629.50,998.50              2617.01,1003.08 2611.58,1015.83 2591.25,1025.50              2562.76,1039.05 2535.75,1045.81 2525.25,1060.25              2507.25,1085.00 2613.29,1242.80 2577.25,1259.75              2553.41,1270.96 2503.78,1263.48 2483.00,1271.00              2454.80,1281.21 2420.46,1300.55 2397.75,1313.50              2374.10,1326.99 2419.00,1413.50 2410.75,1437.25              2402.50,1461.00 2347.75,1491.25 2323.50,1483.50              2323.50,1483.50 2309.29,1481.50 2293.00,1477.00              2268.51,1470.23 2238.50,1460.00 2238.50,1460.00              2238.50,1460.00 2197.02,1442.60 2168.50,1442.50              2161.46,1442.48 2156.44,1457.38 2143.50,1461.00              2128.03,1465.33 2108.50,1459.00 2108.50,1459.00" fill="none" id="M1 Nord_Est" stroke="#f2c931" stroke-width="6"/></a>
  <a xlink:actuate="onRequest" xlink:href="http://www.plidf.fr/prol/jbab92-m1-est-vincennes-chelles.php" xlink:show="replace" xlink:title="M1 Est - Chelles" xlink:type="simple"><path d="M 3085.00,1062.25            C 3085.00,1062.25 3084.06,1090.36 3037.50,1131.00              3029.14,1138.30 2983.80,1145.73 2974.75,1153.75              2960.73,1166.17 2950.27,1181.16 2934.75,1194.50              2908.86,1216.75 2897.94,1243.76 2865.50,1264.50              2833.12,1285.21 2809.97,1269.77 2769.00,1280.50              2730.90,1290.48 2675.06,1326.54 2642.25,1346.75              2610.76,1366.15 2559.50,1374.00 2537.25,1386.00              2524.39,1392.94 2515.25,1404.75 2510.50,1415.50              2505.75,1426.25 2509.50,1430.28 2507.50,1434.50              2502.75,1444.50 2489.50,1460.00 2478.50,1470.75              2467.50,1481.50 2457.34,1479.78 2448.25,1489.25              2439.59,1498.27 2432.44,1510.17 2423.00,1511.50              2394.83,1515.46 2364.55,1487.69 2340.25,1485.50              2301.23,1481.98 2278.79,1471.18 2248.75,1462.00              2217.86,1452.56 2182.85,1441.75 2174.00,1442.00              2157.95,1442.45 2159.43,1455.99 2143.50,1461.50              2133.12,1465.09 2121.84,1460.16 2103.50,1457.50" fill="none" id="M1 Est" stroke="#f2c931" stroke-width="6"/></a>
  <a xlink:actuate="onRequest" xlink:href="http://www.plidf.fr/prol/m6jd3d-m1-ouest-la-defense-louveciennes.php" xlink:show="replace" xlink:title="M1 Ouest - Louveciennes" xlink:type="simple"><path d="M 253.00,1308.00            C 264.50,1281.50 286.00,1236.00 341.50,1254.00              355.36,1258.52 383.51,1253.28 411.50,1248.50              429.97,1245.35 451.89,1241.52 466.00,1235.00              485.21,1226.13 500.00,1208.00 521.50,1193.00              543.00,1178.00 585.37,1149.92 622.50,1131.50              655.96,1114.90 687.50,1098.00 714.50,1081.50              724.37,1075.47 754.14,1038.14 786.00,1020.00              806.35,1008.41 823.67,1006.13 834.00,1011.00              860.50,1023.50 873.00,1011.00 929.00,1033.00" fill="none" id="M1 ouest" stroke="#f2c931" stroke-width="6"/></a>
  <a xlink:actuate="onRequest" xlink:href="http://www.plidf.fr/prol/nm7k5c-m2-ouest-porte-dauphine-mareil-marly.php" xlink:show="replace" xlink:title="M2 Ouest - Mareil-Marly" xlink:type="simple"><path d="M 8.25,1136.75            C 8.25,1136.75 41.47,1107.04 87.25,1087.25              105.51,1079.35 127.65,1081.60 145.75,1073.25              181.80,1056.62 217.24,1040.77 226.75,1035.75              253.00,1021.89 262.49,1007.80 264.75,997.75              278.75,968.25 283.75,960.25 302.75,959.25              317.99,955.02 323.97,952.93 344.50,944.50              362.52,937.10 381.35,925.06 402.25,917.25              413.18,913.17 427.03,914.96 438.25,910.75              463.52,901.27 489.75,881.25 512.75,868.25              535.75,855.25 560.05,853.94 595.00,863.50              634.15,874.21 649.70,881.16 670.50,918.25              683.19,940.87 681.17,981.29 691.75,1005.75              702.80,1031.29 691.60,1066.55 715.75,1082.00              736.79,1095.46 766.75,1081.00 790.75,1092.00              814.75,1103.00 823.25,1105.75 844.25,1118.50              865.25,1131.25 874.49,1140.72 890.25,1143.75              915.51,1148.61 939.55,1147.01 950.25,1152.00              964.56,1158.68 970.40,1172.65 982.00,1180.00              997.76,1189.98 1018.64,1192.86 1034.50,1196.25              1101.69,1210.59 1144.75,1221.25 1144.75,1221.25" fill="none" id="M2 ouest" stroke="#216eb4" stroke-width="6"/></a>
  <a xlink:actuate="onRequest" xlink:href="http://www.plidf.fr/prol/m685l8-m3-est-gallieni-le-plessis-trevise.php" xlink:show="replace" xlink:title="M3 Est - Le Plessis Trévise" xlink:type="simple"><path d="M 2886.50,1770.00            C 2886.72,1768.98 2880.25,1759.20 2860.75,1743.00              2851.01,1734.91 2835.50,1726.80 2821.00,1714.25              2805.40,1700.74 2789.86,1671.51 2767.75,1657.50              2759.28,1652.14 2710.56,1655.41 2702.00,1650.00              2690.89,1638.78 2696.00,1604.75 2687.75,1594.25              2679.50,1583.75 2658.33,1576.63 2644.25,1565.50              2629.68,1553.97 2611.24,1549.80 2578.00,1551.00              2567.79,1544.91 2554.89,1557.57 2543.25,1551.00              2529.78,1540.66 2524.06,1528.26 2515.00,1516.25              2504.36,1502.13 2489.15,1488.19 2479.50,1473.75              2466.97,1454.99 2451.08,1437.38 2435.75,1420.50              2424.24,1407.83 2413.13,1393.52 2396.00,1384.25              2389.38,1380.67 2391.85,1341.77 2382.00,1336.00              2371.03,1329.58 2335.39,1340.15 2321.50,1339.25              2305.00,1338.18 2286.12,1353.36 2268.75,1354.00              2258.84,1354.36 2233.03,1353.10 2212.50,1359.00              2208.39,1360.18 2207.86,1366.12 2204.00,1367.50              2187.44,1373.42 2175.61,1382.92 2170.00,1385.50              2165.23,1387.69 2160.58,1384.44 2156.50,1384.00              2146.90,1382.97 2142.39,1359.10 2135.25,1355.00              2116.50,1344.25 2107.83,1343.91 2088.00,1341.25              2050.47,1336.21 2044.61,1308.34 2026.25,1293.25              2004.74,1275.56 2003.00,1273.50 1974.50,1276.50" fill="none" id="M3 est" stroke="#9a9940" stroke-width="6"/></a>
  <a xlink:actuate="onRequest" xlink:href="http://www.plidf.fr/prol/7m6n59-m3-ouest-levallois-franconville.php" xlink:show="replace" xlink:title="M3 Ouest - Franconville" xlink:type="simple"><path d="M 915.00,138.00            C 915.00,138.00 931.25,141.76 935.75,152.25              938.53,158.72 930.10,170.09 930.75,177.75              931.97,191.98 920.34,203.83 922.75,220.50              924.16,230.26 933.56,228.61 934.25,239.25              934.88,248.90 928.55,254.78 928.75,265.00              929.31,293.14 922.93,313.47 921.00,346.50              917.75,402.15 884.93,465.17 892.00,527.00              893.88,543.46 909.91,564.74 912.25,581.25              914.99,600.60 905.04,603.98 915.00,620.00              929.88,643.94 951.75,674.00 968.75,693.50              985.75,713.00 1004.47,700.75 1017.50,713.50              1027.82,723.59 1019.88,747.72 1018.00,761.75              1013.75,793.50 1016.35,832.16 1023.50,859.00              1030.05,883.60 1067.54,861.78 1088.25,878.75              1096.06,885.15 1098.87,917.07 1101.00,924.00              1105.58,938.94 1112.47,957.65 1123.25,965.50              1138.20,976.39 1158.29,973.82 1169.00,978.00              1176.89,981.08 1176.00,988.50 1176.00,988.50" fill="none" id="M3 Ouest" stroke="#9a9940" stroke-width="6"/></a>
  <a xlink:actuate="onRequest" xlink:href="http://www.plidf.fr/prol/m6255b-m4-nord-saint-ouen-montmorency.php" xlink:show="replace" xlink:title="M4 Nord - Montmorency" xlink:type="simple"><path d="M 1560.00,1002.00            C 1539.00,964.50 1553.00,932.75 1546.75,914.00              1543.73,904.93 1533.59,900.35 1524.25,889.00              1514.28,876.87 1504.81,857.93 1492.50,847.00              1485.35,840.65 1479.49,832.06 1472.00,826.00              1462.11,817.99 1449.69,820.32 1442.00,810.00              1440.07,807.41 1430.98,795.55 1432.00,780.25              1432.68,770.05 1443.75,755.75 1446.50,737.00              1449.16,721.73 1444.23,704.31 1443.00,700.00              1433.56,667.06 1437.12,637.69 1431.00,607.25              1424.94,577.13 1461.78,542.57 1457.25,518.75              1448.40,472.17 1439.50,469.50 1446.00,447.00              1446.00,447.00 1452.50,438.50 1452.50,438.50              1452.50,438.50 1499.40,427.57 1490.50,377.00              1486.82,356.08 1460.42,325.52 1452.50,291.50              1443.33,252.11 1461.59,194.87 1450.00,169.50              1430.03,125.79 1408.50,134.00 1408.50,134.00" fill="none" id="M4 Nord" stroke="#bb4d98" stroke-width="6"/></a>
  <a xlink:actuate="onRequest" xlink:href="http://www.plidf.fr/prol/dmjk28-m4-sud-montrouge-massy.php" xlink:show="replace" xlink:title="M4 Sud - Massy" xlink:type="simple"><path d="M 1405.25,1691.25            C 1405.25,1691.25 1389.00,1733.00 1385.50,1743.25              1382.00,1753.50 1392.92,1764.55 1395.25,1774.75              1399.81,1794.69 1401.75,1797.50 1401.75,1823.50              1401.75,1828.95 1392.01,1862.44 1395.00,1885.00              1396.81,1898.66 1400.50,1904.75 1413.25,1910.00              1426.00,1915.25 1462.15,1929.21 1471.00,1951.00              1474.10,1958.62 1448.75,1986.25 1455.00,2034.75              1456.38,2045.47 1511.84,2029.35 1523.75,2049.75              1529.59,2059.76 1521.94,2098.52 1505.75,2135.75              1496.38,2157.29 1488.33,2182.65 1479.25,2200.75              1473.24,2212.72 1466.68,2220.44 1463.25,2228.25              1460.00,2235.65 1411.79,2263.34 1379.25,2313.75              1359.52,2344.32 1360.05,2393.25 1346.25,2429.75              1336.24,2456.21 1312.50,2469.21 1301.75,2489.75              1281.32,2528.79 1283.38,2583.03 1281.25,2604.25" fill="none" id="M4 Sud" stroke="#bb4d98" stroke-width="6"/></a>
  <a xlink:actuate="onRequest" xlink:href="http://www.plidf.fr/prol/13c6cl9-m5-sud-italie-chatillon.php" xlink:show="replace" xlink:title="M5 Sud - Châtillon" xlink:type="simple"><path d="M 1303.50,1755.00            C 1303.50,1755.00 1366.50,1765.00 1395.50,1763.50              1424.50,1762.00 1424.50,1771.50 1445.00,1762.00              1465.50,1752.50 1472.50,1703.50 1484.00,1694.00              1495.50,1684.50 1509.00,1677.00 1520.50,1671.50              1532.00,1666.00 1555.00,1662.00 1565.50,1651.50              1576.00,1641.00 1567.00,1654.50 1586.00,1625.00              1605.00,1595.50 1618.00,1574.00 1618.00,1574.00" fill="none" id="M5 Sud" stroke="#de8b53" stroke-width="6"/></a>
  <a xlink:actuate="onRequest" xlink:href="http://www.plidf.fr/prol/a53ghg-m5-nord-bobigny-villepinte.php" xlink:show="replace" xlink:title="M5 Nord - Villepinte" xlink:type="simple"><path d="M 2161.00,907.00            C 2156.25,872.00 2159.25,869.25 2166.25,853.25              2173.25,837.25 2186.75,824.25 2199.00,813.75              2211.25,803.25 2241.17,769.60 2239.25,757.50              2234.19,725.61 2187.50,700.00 2201.00,672.75              2214.50,645.50 2234.22,613.10 2259.75,589.75              2269.50,580.83 2259.00,549.75 2261.75,533.75              2263.46,523.78 2274.50,507.50 2300.00,501.25              2325.50,495.00 2364.75,465.25 2386.25,440.75              2397.76,427.63 2436.18,436.73 2470.75,434.00              2500.73,431.63 2519.50,423.75 2530.75,414.75              2542.00,405.75 2610.50,359.25 2610.50,359.25M 878.00,471.00" fill="none" id="M5 Nord" stroke="#de8b53" stroke-width="6"/></a>
  <a xlink:actuate="onRequest" xlink:href="http://www.plidf.fr/prol/103an0n-m6-ouest-etoile-villeneuve.php" xlink:show="replace" xlink:title="M6 Nord-Ouest - Villeneuve" xlink:type="simple"><path d="M 1441.63,711.00            C 1441.63,711.00 1445.07,724.51 1442.25,737.00              1441.05,742.33 1440.15,747.32 1435.00,751.25              1426.51,757.73 1420.30,755.44 1417.00,758.25              1407.00,766.75 1408.31,772.16 1401.50,778.75              1391.73,788.21 1391.00,783.25 1373.50,791.75              1369.61,793.91 1348.61,799.51 1342.50,808.50              1339.30,813.21 1348.44,818.31 1348.50,825.50              1348.56,831.97 1366.73,847.27 1366.98,853.91              1367.92,879.40 1369.53,903.51 1366.50,906.00              1361.25,916.04 1363.50,914.25 1352.00,920.25              1340.50,926.25 1294.20,948.39 1285.25,968.00              1281.66,975.86 1283.67,984.90 1280.00,993.25              1277.87,998.09 1269.05,1010.55 1260.50,1023.00              1257.47,1027.41 1246.32,1039.94 1248.50,1053.00              1251.21,1069.24 1268.07,1086.86 1271.00,1097.50              1275.15,1112.54 1265.77,1131.44 1264.50,1136.00              1260.55,1150.23 1258.18,1162.14 1258.25,1163.75              1258.89,1179.13 1261.25,1198.50 1261.25,1198.50" fill="none" id="M6 Nord_ouest" stroke="#79bb92" stroke-width="6"/></a>
  <a xlink:actuate="onRequest" xlink:href="http://www.plidf.fr/prol/h41lk4-m7-nord-courneuve-gonesse.php" xlink:show="replace" xlink:title="M7 Nord - Gonesse" xlink:type="simple"><path d="M 2212.00,230.00            C 2195.11,248.81 2201.26,245.55 2188.00,265.00              2180.46,276.06 2234.82,302.70 2228.00,313.00              2196.12,361.18 2160.77,425.28 2153.00,439.50              2146.69,451.06 2139.83,462.84 2133.50,474.25              2087.00,558.10 2041.42,636.32 2007.50,689.25              2001.15,699.17 1994.10,705.06 1988.75,713.25              1953.12,767.83 1943.00,780.00 1943.00,780.00" fill="none" id="M7 Nord" stroke="#df9ab1" stroke-width="6"/></a>
  <a xlink:actuate="onRequest" xlink:href="http://www.plidf.fr/prol/a6c2ll-m7-sud-est-ivry-creteil-ormesson.php" xlink:show="replace" xlink:title="M7 Sud-Est - Ormesson" xlink:type="simple"><path d="M 2782.00,1922.50            C 2782.00,1922.50 2725.14,1961.40 2639.00,2014.75              2615.06,2029.58 2618.50,2090.00 2585.50,2109.00              2552.50,2128.00 2524.00,2119.00 2504.50,2112.00              2485.00,2105.00 2482.28,2093.41 2465.25,2091.00              2446.42,2088.34 2421.95,2088.56 2407.25,2087.25              2379.25,2084.75 2342.50,2027.75 2308.50,2020.00              2274.50,2012.25 2257.85,2030.50 2222.00,2028.25              2185.16,2025.94 2153.24,2005.74 2123.25,1985.25              2099.79,1969.23 2071.76,1971.30 2045.00,1952.00              2023.39,1936.42 2004.87,1891.66 1975.00,1888.00              1943.53,1884.14 1931.05,1891.80 1905.00,1873.25              1895.96,1866.81 1872.89,1838.95 1864.25,1832.75              1852.50,1824.32 1832.58,1819.14 1824.00,1811.00              1791.14,1779.82 1785.75,1755.86 1784.50,1750.00" fill="none" id="M7 Sud_Est" stroke="#df9ab1" stroke-width="6"/></a>
  <a xlink:actuate="onRequest" xlink:href="http://www.plidf.fr/prol/117bh46-m7-sud-villejuif-ablon.php" xlink:show="replace" xlink:title="M7 Sud - Ablon" xlink:type="simple"><path d="M 1683.50,1980.50            C 1683.50,1980.50 1684.75,2019.25 1687.50,2059.00              1689.30,2084.95 1689.83,2100.71 1690.16,2114.36              1690.34,2121.62 1689.00,2128.00 1695.50,2135.50              1702.00,2143.00 1711.00,2139.50 1720.50,2139.50              1723.71,2139.50 1741.38,2137.21 1754.00,2159.00              1778.74,2201.71 1805.40,2286.31 1815.00,2307.50              1820.56,2319.78 1858.53,2338.72 1889.50,2376.50              1904.43,2394.71 1970.00,2423.50 1977.00,2443.00              1984.00,2462.50 1982.00,2536.50 1982.00,2536.50" fill="none" id="M7 Sud" stroke="#df9ab1" stroke-width="6"/></a>
  <a xlink:actuate="onRequest" xlink:href="http://www.plidf.fr/prol/j3l7hi-m7-sud-ouest-chevilly-villebon.php" xlink:show="replace" xlink:title="M7 Sud-Ouest - Villebon" xlink:type="simple"><path d="M 1033.00,2696.00            C 1033.00,2696.00 1079.53,2668.63 1084.00,2619.50              1087.02,2586.27 1040.65,2536.35 1063.00,2504.00              1085.17,2471.92 1133.50,2486.00 1168.00,2498.00              1202.50,2510.00 1300.51,2474.10 1328.50,2439.50              1345.34,2418.69 1406.71,2452.25 1439.50,2448.50              1469.42,2445.08 1479.99,2400.13 1493.50,2378.00              1524.45,2327.29 1528.00,2254.50 1561.50,2225.50              1595.00,2196.50 1672.50,2201.00 1683.50,2146.50              1694.50,2092.00 1684.84,2035.16 1682.00,1984.00              1680.51,1957.12 1703.40,1945.51 1702.00,1922.00              1701.25,1909.47 1696.67,1881.92 1688.50,1866.50              1681.87,1853.99 1671.40,1853.14 1670.50,1845.50              1666.26,1809.35 1660.00,1788.50 1660.00,1788.50" fill="none" id="M7 Sud-Ouest" stroke="#df9ab1" stroke-width="6"/></a>
  <a xlink:actuate="onRequest" xlink:href="http://www.plidf.fr/prol/d6g5h5-m8-sud-ouest-balard-clamart.php" xlink:show="replace" xlink:title="M8 Sud-Ouest - Clamart" xlink:type="simple"><path d="M 1028.50,2148.00            C 997.00,2121.25 999.00,2129.50 996.50,2118.50              995.39,2113.61 994.87,2084.11 1001.50,2059.00              1005.00,2045.73 1014.19,2036.96 1018.25,2024.75              1023.78,2008.11 1023.53,1988.63 1021.00,1975.50              1011.07,1923.90 1027.76,1878.25 1011.75,1837.50              1004.77,1819.74 975.75,1804.00 952.75,1783.25              929.75,1762.50 933.50,1743.25 958.00,1729.00              969.78,1722.15 970.50,1726.50 981.50,1717.25              992.50,1708.00 979.50,1700.75 997.00,1691.00              1016.87,1683.56 1087.26,1660.29 1097.00,1650.00              1112.62,1633.49 1099.40,1615.32 1107.50,1603.50              1130.71,1569.63 1168.25,1532.50 1168.25,1532.50" fill="none" id="M8 Sud_Ouest" stroke="#c5a3ca" stroke-width="6"/></a>
  <a xlink:actuate="onRequest" xlink:href="http://www.plidf.fr/prol/1433a3i-m8-valenton.php" xlink:show="replace" xlink:title="M8 Sud-Est - Valenton" xlink:type="simple"><path d="M 2301.00,2290.00            C 2301.00,2290.00 2296.15,2225.31 2285.00,2192.00              2273.40,2157.34 2253.00,2130.00 2253.00,2130.00" fill="none" id="M8 Sud_Est" stroke="#c5a3ca" stroke-width="6"/></a>
  <a xlink:actuate="onRequest" xlink:href="http://www.plidf.fr/prol/ce2na6-m9-nord-est-aulnay.php" xlink:show="replace" xlink:title="M9 Nord-Est Villepinte par Aulnay" xlink:type="simple"><path d="M 2787.50,423.00            C 2787.50,423.00 2744.81,439.92 2656.50,490.00              2640.11,499.29 2630.15,529.13 2607.50,541.50              2588.06,552.12 2538.58,546.44 2520.00,558.50              2497.74,572.95 2491.06,591.68 2478.00,607.00              2458.88,629.44 2438.52,652.41 2425.50,678.00              2413.00,702.57 2409.00,725.50 2407.00,749.00              2405.00,772.50 2406.00,783.50 2417.00,817.50              2436.00,866.50 2409.86,901.17 2389.00,905.50" fill="none" id="M9 Nord_Est" stroke="#cec92b" stroke-width="6"/></a>
  <a xlink:actuate="onRequest" xlink:href="http://www.plidf.fr/prol/14f2dg4-m9-est-montreuil-villepinte.php" xlink:show="replace" xlink:title="M9 Est - Villepinte" xlink:type="simple"><path d="M 2769.50,394.00            C 2769.50,394.00 2863.50,550.25 2855.00,577.00              2846.50,603.75 2841.94,635.96 2821.25,668.00              2813.39,680.18 2786.21,686.71 2774.50,698.00              2758.99,712.95 2751.37,733.41 2735.75,747.75              2705.15,775.84 2679.31,803.11 2642.25,820.25              2631.25,825.34 2609.39,838.03 2594.50,852.00              2580.46,865.17 2577.83,880.84 2560.75,887.75              2550.59,890.53 2534.07,866.43 2506.50,878.75              2459.44,893.69 2432.59,893.77 2389.00,905.00              2334.55,919.02 2286.18,926.61 2276.75,935.75              2254.31,957.71 2253.35,976.52 2239.25,1009.25              2228.78,1033.55 2220.27,1055.89 2209.25,1072.00              2185.75,1119.50 2217.27,1138.69 2207.25,1165.00              2196.29,1193.78 2197.75,1205.50 2178.25,1224.00              2158.75,1242.50 2139.41,1259.40 2129.25,1275.50              2116.05,1296.41 2116.75,1318.25 2116.75,1318.25" fill="none" id="M9 Est" stroke="#cec92b" stroke-width="6"/></a>
  <a xlink:actuate="onRequest" xlink:href="http://www.plidf.fr/prol/imgjkh-m9-sud-ouest-boulogne-saclay.php" xlink:show="replace" xlink:title="M9 Sud-Ouest - Saclay" xlink:type="simple"><path d="M 508.50,2475.75            C 493.50,2462.75 505.38,2389.38 508.50,2300.50              509.35,2276.24 543.40,2260.35 543.50,2236.00              543.59,2214.18 508.90,2183.68 522.25,2165.25              549.13,2134.32 506.92,2110.88 533.00,2080.00              547.18,2063.21 636.35,2046.41 642.00,2020.00              653.07,1968.23 614.85,1931.59 611.50,1881.50              610.27,1863.05 645.50,1853.25 643.50,1811.25              642.63,1785.60 632.07,1760.06 642.00,1738.00              649.12,1722.19 667.99,1716.06 681.75,1704.25              693.44,1694.21 702.03,1678.04 716.75,1670.00              728.88,1663.38 745.03,1660.10 757.50,1653.50              824.85,1617.82 888.00,1588.00 888.00,1588.00" fill="none" id="M9 sud_ouest" stroke="#cec92b" stroke-width="6"/></a>
  <a xlink:actuate="onRequest" xlink:href="http://www.plidf.fr/prol/mmc7bb-m10-est-austerlitz-noisiel.php" xlink:show="replace" xlink:title="M10 Est - Noisiel" xlink:type="simple"><path d="M 3115.25,1387.25            C 3115.25,1387.25 3098.73,1391.02 3074.25,1390.25              3064.94,1389.96 3055.26,1393.79 3043.75,1389.50              3034.24,1385.95 3031.92,1375.51 3022.25,1369.75              3013.31,1364.43 3019.00,1367.00 2998.00,1361.00              2977.00,1355.00 2957.53,1360.81 2937.50,1364.00              2924.00,1366.15 2909.45,1366.91 2888.00,1383.00              2866.55,1399.09 2860.08,1411.74 2848.50,1414.50              2830.36,1418.82 2822.99,1409.81 2804.50,1416.00              2779.54,1424.35 2778.20,1482.07 2752.25,1491.75              2743.29,1495.09 2737.28,1518.59 2728.25,1522.00              2714.02,1527.38 2705.05,1511.67 2686.00,1530.75              2652.75,1552.50 2624.72,1588.42 2596.00,1605.75              2565.53,1624.13 2533.25,1605.25 2507.25,1613.75              2481.25,1622.25 2509.99,1617.38 2480.50,1626.00              2432.72,1639.96 2406.02,1667.54 2360.50,1677.75              2342.08,1681.88 2323.23,1677.69 2304.96,1676.72              2297.78,1676.33 2287.44,1691.19 2280.50,1692.50              2275.20,1693.50 2272.83,1679.16 2267.20,1679.48              2259.73,1679.91 2252.26,1680.20 2245.50,1681.50              2229.15,1684.66 2229.06,1698.41 2212.00,1700.50              2192.06,1702.94 2156.20,1692.58 2136.25,1694.50              2110.54,1696.97 2080.42,1691.84 2055.00,1694.50              2043.18,1695.74 2006.40,1717.71 1995.00,1718.75              1957.03,1722.23 1922.70,1721.49 1890.50,1723.50              1861.32,1725.32 1872.17,1698.92 1862.25,1666.25              1854.19,1639.72 1824.95,1608.89 1809.50,1587.00              1793.15,1563.82 1776.19,1542.04 1757.50,1530.75              1745.65,1523.59 1731.18,1527.92 1720.75,1520.50              1696.46,1503.23 1679.00,1474.50 1679.00,1474.50" fill="none" id="M10 est" stroke="#dfb039" stroke-width="6"/></a>
  <a xlink:actuate="onRequest" xlink:href="http://www.plidf.fr/prol/8a8g6l-m10-ouest-boulogne-montesson.php" xlink:show="replace" xlink:title="M10 Ouest - Montesson" xlink:type="simple"><path d="M 436.00,911.00            C 436.00,911.00 428.00,947.00 438.00,970.50              443.37,979.56 456.00,985.52 461.75,995.75              465.31,1002.07 463.02,1027.93 467.00,1034.50              476.19,1049.66 472.30,1046.36 485.50,1061.75              499.94,1078.58 551.15,1067.06 566.50,1086.00              574.64,1096.04 584.29,1107.82 596.25,1115.75              604.99,1121.54 616.46,1123.10 622.00,1131.25              624.56,1135.01 638.94,1159.48 635.25,1169.75              631.28,1180.81 612.08,1188.23 611.50,1200.50              610.78,1215.70 625.75,1227.09 628.75,1238.00              639.72,1277.88 671.28,1293.07 687.75,1319.25              715.75,1363.75 717.99,1360.00 742.75,1390.25              770.92,1424.23 797.41,1429.68 818.25,1444.75              829.22,1452.68 833.26,1466.06 841.50,1472.25              863.39,1488.68 856.00,1486.50 877.25,1489.75" fill="none" id="M10 ouest" stroke="#dfb039" stroke-width="6"/></a>
  <a xlink:actuate="onRequest" xlink:href="http://www.plidf.fr/prol/649316-m11-est.php" xlink:show="replace" xlink:title="M11 Est - Noisy-Champs" xlink:type="simple"><path d="M 2950.00,1472.00            C 2950.00,1472.00 2956.43,1401.56 2935.00,1339.50              2920.29,1296.92 2888.50,1267.50 2842.00,1275.00              2824.81,1277.77 2803.19,1266.78 2789.00,1248.00              2779.52,1235.46 2776.63,1217.82 2768.50,1204.50              2762.68,1194.97 2755.22,1191.26 2750.00,1184.50              2743.89,1176.59 2740.36,1166.20 2738.50,1163.00              2729.50,1147.50 2694.72,1136.03 2668.50,1126.50              2661.09,1123.81 2654.37,1118.46 2647.00,1116.00              2627.21,1109.39 2602.91,1134.01 2580.50,1131.00              2576.75,1130.50 2570.19,1125.79 2564.00,1125.00              2553.48,1123.66 2542.28,1125.90 2535.00,1123.00              2525.79,1119.34 2529.18,1113.33 2518.50,1110.00              2506.14,1106.14 2496.75,1102.54 2480.50,1104.50              2467.07,1106.12 2444.00,1130.00 2406.50,1156.50              2369.00,1183.00 2356.98,1141.99 2348.50,1128.00              2342.86,1118.69 2320.00,1062.50 2268.50,1132.50              2260.34,1143.60 2258.00,1196.50 2235.00,1190.50              2212.00,1184.50 2228.00,1163.00 2192.00,1161.50              2183.80,1161.16 2175.40,1164.22 2169.00,1160.50              2160.40,1155.51 2157.43,1146.57 2150.50,1138.50              2139.93,1126.19 2127.73,1119.23 2114.00,1117.50              2090.44,1114.54 2065.26,1128.81 2040.50,1135.50              1994.93,1147.82 1958.50,1155.50 1958.50,1155.50M 2962.00,1439.00" fill="none" id="M11 Est" stroke="#8e6538" stroke-width="6"/></a>
  <a xlink:actuate="onRequest" xlink:href="http://www.plidf.fr/prol/bbi210-m11-sud-ouest-rambuteau-velizy.php" xlink:show="replace" xlink:title="M11 Sud-Ouest - Vélizy" xlink:type="simple"><path d="M 806.00,2098.75            C 821.02,2098.58 818.25,2072.02 827.50,2045.50              831.80,2033.18 843.04,2021.08 852.00,2011.25              865.32,1996.63 844.33,1991.69 871.25,1987.00              877.71,1985.87 922.46,1988.44 928.75,1987.75              934.57,1987.11 939.85,1983.29 945.25,1983.25              948.62,1983.23 953.92,1989.40 957.00,1989.50              968.55,1989.87 983.33,2002.07 987.25,1999.75              1012.16,1984.98 992.60,1998.13 1018.50,1978.75              1044.46,1959.33 1069.16,1939.73 1092.50,1915.50              1108.67,1898.71 1079.84,1832.38 1095.25,1815.50              1105.18,1804.62 1106.50,1784.00 1113.25,1769.25              1120.00,1754.50 1129.87,1727.94 1142.50,1714.25              1156.29,1699.32 1173.40,1677.06 1185.25,1664.75              1192.61,1657.11 1185.54,1646.07 1192.00,1639.75              1195.52,1636.30 1225.56,1629.27 1228.75,1626.25              1232.36,1622.83 1235.61,1619.06 1238.75,1616.25              1252.49,1603.95 1274.73,1616.76 1277.00,1617.50              1295.50,1623.50 1294.46,1607.78 1300.00,1602.00              1305.24,1596.54 1299.25,1584.00 1309.50,1569.50              1319.75,1555.00 1330.27,1535.25 1331.75,1534.75              1342.75,1531.00 1348.63,1531.78 1350.25,1532.00              1370.50,1534.75 1368.88,1524.14 1377.50,1515.25              1380.85,1511.79 1378.70,1498.40 1382.00,1495.00              1389.94,1486.81 1406.91,1488.11 1414.50,1480.25              1422.82,1471.64 1431.15,1465.16 1439.00,1457.00              1444.34,1451.44 1447.14,1438.57 1452.25,1433.25              1468.18,1416.64 1474.90,1390.56 1488.25,1376.75              1498.32,1366.34 1505.65,1352.01 1514.00,1343.50              1522.80,1334.54 1526.58,1323.06 1533.25,1316.50              1537.18,1312.63 1567.18,1315.72 1570.25,1312.75              1579.15,1304.15 1592.00,1316.75 1601.50,1318.25              1611.00,1319.75 1605.00,1308.00 1605.00,1308.00" fill="none" id="M11 sud" stroke="#8e6538" stroke-width="6"/></a>
  <a xlink:actuate="onRequest" xlink:href="http://www.plidf.fr/prol/18afc51-m12-nord-aubervilliers-sarcelles.php" xlink:show="replace" xlink:title="M12 Nord - Sarcelles" xlink:type="simple"><path d="M 1788.50,65.75            C 1788.50,65.75 1690.00,119.50 1690.00,119.50              1690.00,119.50 1649.81,133.25 1644.00,171.00              1642.31,181.97 1645.43,201.44 1650.00,215.00              1658.97,241.60 1669.67,272.37 1673.50,304.00              1674.06,308.63 1676.67,323.16 1677.00,342.50              1677.12,349.59 1673.07,357.41 1674.00,365.50              1674.41,369.01 1665.06,411.70 1683.00,427.50              1693.41,436.67 1717.01,431.55 1731.50,435.50              1755.48,442.04 1770.29,452.70 1771.00,454.00              1785.32,480.28 1789.25,520.32 1790.50,527.50              1798.55,573.67 1798.21,589.89 1802.75,633.50              1804.24,647.81 1794.75,686.75 1792.00,702.50              1789.25,718.25 1783.05,749.86 1781.50,759.25              1777.75,782.00 1770.25,810.25 1764.25,836.25              1758.25,862.25 1753.98,866.34 1749.25,882.00              1734.75,911.50 1676.00,908.75 1676.00,908.75" fill="none" id="M12 nord" stroke="#328e5b" stroke-width="6"/></a>
  <a xlink:actuate="onRequest" xlink:href="http://www.plidf.fr/prol/126ajd2-m12-sud-ouest-issy-vaucresson.php" xlink:show="replace" xlink:title="M12 ouest" xlink:type="simple"><path d="M 1229.62,1569.00            C 1229.62,1569.00 1202.91,1599.60 1169.12,1623.50              1133.85,1648.44 1091.08,1666.78 1072.62,1670.00              1051.19,1673.74 1028.09,1662.58 1013.12,1665.00              996.03,1667.77 977.68,1680.93 955.62,1685.50              928.24,1691.18 898.03,1687.80 891.62,1684.00              879.54,1676.84 873.76,1658.11 861.62,1651.50              844.55,1642.21 826.39,1641.60 808.12,1634.50              803.08,1632.54 791.13,1643.34 786.12,1641.50              765.87,1634.07 749.42,1629.05 727.62,1625.50              718.10,1623.95 706.14,1623.91 695.12,1625.00              682.96,1626.20 663.15,1618.14 651.12,1618.00              643.22,1617.91 635.81,1615.22 628.62,1613.50              613.87,1609.97 605.55,1589.32 592.12,1587.00              584.62,1585.71 579.64,1590.09 572.62,1589.00              558.07,1586.73 545.54,1594.02 533.62,1590.00              469.09,1568.23 440.12,1529.50 440.12,1529.50" fill="none" id="M12 ouest" stroke="#328e5b" stroke-width="6"/></a>
  <a xlink:actuate="onRequest" xlink:href="http://www.plidf.fr/prol/d8lf00-m13-nord-saint-denis-la-cerisaie.php" xlink:show="replace" xlink:title="M13 Nord - La Cerisaie" xlink:type="simple"><path d="M 1672.00,560.00            C 1672.00,560.00 1698.98,554.41 1740.00,541.00              1756.57,535.58 1776.01,534.01 1796.00,522.00              1816.01,509.97 1812.19,506.91 1844.00,470.00" fill="none" id="M13 Nord" stroke="#89c7d6" stroke-width="6"/></a>
  <a xlink:actuate="onRequest" xlink:href="http://www.plidf.fr/prol/n26lnm-m13-sud-chatillon-longjumeau.php" xlink:show="replace" xlink:title="M13 Sud - Longjumeau" xlink:type="simple"><path d="M 1300.50,1753.75            C 1300.50,1753.75 1316.60,1777.86 1309.50,1806.25              1304.97,1824.36 1276.71,1861.31 1264.50,1885.25              1250.81,1912.08 1252.68,1926.53 1239.50,1958.25              1232.64,1974.76 1209.07,1982.92 1195.50,1995.25              1185.93,2003.95 1185.59,2016.08 1181.00,2028.75              1175.61,2043.64 1167.66,2057.91 1161.50,2071.75              1142.62,2114.20 1131.00,2159.75 1118.50,2205.75              1106.00,2251.75 1113.61,2264.55 1122.00,2279.75              1133.17,2299.98 1151.34,2291.44 1169.50,2306.75              1190.47,2324.43 1211.27,2365.70 1218.50,2386.25              1227.73,2412.46 1235.85,2436.83 1242.94,2459.04              1271.16,2547.50 1283.00,2601.75 1283.00,2601.75              1283.00,2601.75 1281.50,2626.25 1281.50,2626.25              1281.50,2626.25 1278.31,2683.24 1269.50,2737.25              1264.30,2769.14 1254.50,2792.25 1254.50,2792.25" fill="none" id="M13 Sud" stroke="#89c7d6" stroke-width="6"/></a>
  <a xlink:actuate="onRequest" xlink:href="http://www.plidf.fr/prol/180im8k-m14-nord-saint-lazare-pleyel.php" xlink:show="replace" xlink:title="M14 Nord - Pleyel" xlink:type="simple"><path d="M 1546.00,795.50            C 1515.00,829.50 1498.99,848.04 1443.00,909.50              1416.78,938.28 1369.58,959.06 1359.00,995.50              1356.45,1004.29 1370.28,1010.24 1372.00,1021.50              1373.93,1034.17 1364.23,1052.22 1370.00,1062.50              1382.21,1084.26 1400.92,1096.60 1414.00,1118.50              1431.20,1147.30 1433.00,1184.50 1433.00,1184.50M -73.00,364.00" fill="none" id="M14 Nord" stroke="#67328e" stroke-width="6"/></a>
  <a xlink:actuate="onRequest" xlink:href="http://www.plidf.fr/prol/12n8h07-m14-sud-olympiades-vigneux.php" xlink:show="replace" xlink:title="M14 Sud - Vigneux" xlink:type="simple"><path d="M 1679.00,1615.25            C 1679.00,1615.25 1650.98,1626.02 1636.00,1651.25              1621.71,1675.31 1633.23,1680.02 1621.00,1714.25              1619.05,1719.71 1615.75,1729.25 1607.50,1738.75              1598.40,1749.23 1583.96,1760.00 1574.50,1773.25              1561.09,1792.03 1553.17,1813.38 1549.00,1828.25              1544.98,1842.61 1542.08,1860.65 1543.00,1877.75              1543.76,1891.81 1548.10,1904.87 1548.00,1917.75              1547.83,1939.52 1541.59,1958.64 1538.00,1976.25              1535.63,1987.86 1536.58,1998.94 1533.50,2009.25              1529.35,2023.15 1527.69,2073.55 1522.00,2092.25              1515.83,2112.52 1504.69,2132.18 1505.00,2144.75              1505.75,2175.50 1523.10,2189.40 1536.50,2204.75              1549.63,2219.79 1558.64,2236.30 1575.50,2262.75              1596.18,2295.18 1585.53,2342.58 1604.50,2376.75              1617.70,2400.52 1646.51,2402.76 1663.50,2420.25              1689.36,2446.87 1698.00,2479.75 1698.00,2479.75              1698.00,2479.75 1699.00,2485.25 1699.00,2485.25              1699.00,2485.25 1699.50,2493.25 1699.50,2493.25              1699.50,2493.25 1698.83,2525.98 1706.50,2559.25              1711.28,2579.96 1719.97,2603.74 1732.00,2611.25              1749.62,2622.24 1778.24,2644.92 1805.00,2640.25              1838.51,2634.41 1871.28,2600.71 1900.50,2619.25              1920.24,2631.77 1940.07,2641.73 1957.50,2653.25              1968.35,2660.42 1970.29,2673.06 1979.50,2679.25              2001.57,2694.08 2029.78,2704.34 2036.50,2711.25              2048.41,2723.49 2053.50,2742.86 2061.00,2760.75              2075.86,2796.20 2087.00,2831.25 2087.00,2831.25" fill="none" id="M14 Sud" stroke="#67328e" stroke-width="6"/></a>
  <a xlink:actuate="onRequest" xlink:href="http://www.plidf.fr/prol/11if8l9-metro-15.php" xlink:show="replace" xlink:title="M15 Grande rocade de Paris" xlink:type="simple"><path d="M 2483.00,1716.00            C 2483.00,1716.00 2490.57,1711.67 2497.00,1694.00              2500.78,1683.62 2507.72,1667.47 2503.00,1648.00              2498.23,1628.33 2469.31,1608.69 2454.00,1582.00              2435.17,1549.16 2429.76,1509.79 2428.00,1497.00              2421.00,1446.00 2418.08,1417.93 2408.00,1382.00              2396.72,1341.77 2380.00,1292.00 2378.00,1266.00              2376.00,1240.00 2383.00,1252.00 2385.00,1208.00              2387.00,1164.00 2363.00,1140.00 2353.00,1120.00              2343.00,1100.00 2324.00,1073.00 2334.00,1018.00              2344.00,963.00 2318.00,937.00 2289.00,918.00              2260.00,899.00 2189.00,908.00 2160.00,908.00              2131.00,908.00 2121.82,863.36 2083.00,855.00              2021.12,841.68 1932.87,857.13 1896.00,843.00              1836.00,820.00 1778.23,832.38 1758.00,834.00              1728.24,836.38 1701.32,812.02 1654.00,804.00              1621.81,798.54 1569.53,814.81 1542.00,797.00              1474.00,753.00 1436.51,787.73 1380.00,788.00              1344.31,788.17 1263.08,749.96 1211.00,763.00              1173.89,772.29 1145.00,797.00 1138.00,846.00              1131.00,895.00 1124.00,903.00 1103.00,921.00              1082.00,939.00 976.54,990.03 939.00,1008.00              911.39,1021.22 898.90,989.72 889.00,984.00              844.00,958.00 714.51,1053.26 714.00,1088.00              713.42,1127.43 798.00,1137.00 830.00,1221.00              845.00,1263.00 801.16,1281.61 793.00,1324.00              785.89,1360.94 810.38,1403.42 812.00,1442.00              814.59,1503.83 849.86,1558.57 896.00,1594.00              934.44,1623.52 991.09,1652.54 1034.00,1678.00              1066.97,1697.56 1084.02,1715.27 1126.00,1728.00              1176.10,1743.20 1252.95,1731.73 1304.00,1754.00              1337.07,1768.42 1367.15,1812.02 1396.00,1836.00              1421.18,1856.93 1427.00,1853.00 1456.00,1868.00              1485.00,1883.00 1509.92,1912.18 1560.00,1935.00              1603.54,1954.84 1652.76,1965.14 1684.00,1964.00              1794.00,1960.00 1801.00,1964.00 1833.00,1980.00              1865.00,1996.00 1898.72,2004.20 1930.00,2003.00              1971.63,2001.40 2028.06,1976.34 2067.00,1954.00              2096.52,1937.07 2121.09,1905.83 2166.00,1884.00              2210.98,1862.14 2253.15,1826.26 2306.00,1800.00              2361.84,1772.25 2420.80,1742.81 2481.00,1716.00              2530.15,1694.11 2580.00,1632.00 2627.00,1641.00              2645.95,1644.63 2665.66,1651.11 2695.00,1644.00              2738.41,1633.47 2769.00,1607.00 2822.00,1566.00              2875.00,1525.00 2954.00,1472.00 2954.00,1472.00" fill="none" id="M15 Complet" stroke="#a60f31" stroke-width="6"/></a>
  <a xlink:actuate="onRequest" xlink:href="http://www.plidf.fr/prol/c4fmej-metro-16-grand-paris-express.php" xlink:show="replace" xlink:title="M16 Rocade de Seine-Saint-Denis" xlink:type="simple"><path d="M 1693.00,424.00            C 1693.00,424.00 1713.51,426.54 1742.00,431.00              1755.06,433.04 1763.00,436.00 1781.00,446.00              1799.00,456.00 1810.58,474.98 1838.00,480.00              1875.91,486.94 1922.21,492.34 1971.83,495.31              2017.57,498.05 2062.62,508.19 2110.00,517.50              2127.23,520.89 2159.80,521.09 2193.00,523.00              2216.55,524.36 2236.46,529.37 2257.00,524.50              2263.53,522.95 2276.29,521.19 2286.00,514.00              2296.11,506.51 2305.76,504.08 2317.00,502.00              2326.73,500.20 2342.61,486.01 2353.00,489.00              2369.15,493.64 2375.04,503.75 2382.00,506.00              2390.42,508.72 2428.30,504.17 2467.00,496.00              2512.72,486.35 2516.10,492.25 2532.50,503.00              2540.44,508.20 2580.81,512.46 2606.00,545.00              2630.67,576.86 2647.57,634.94 2665.50,647.00              2676.77,654.58 2691.88,662.01 2709.00,666.00              2738.27,672.82 2771.27,675.44 2785.50,694.00              2811.14,727.44 2819.25,780.53 2838.00,818.50              2860.56,864.18 2859.36,915.26 2878.50,959.00              2883.61,970.68 2899.70,998.65 2905.50,1008.00              2917.27,1026.97 2924.42,1036.82 2934.50,1051.00              2940.12,1058.91 2947.65,1067.21 2955.00,1081.50              2982.00,1134.00 2957.38,1177.79 2948.00,1193.00              2927.57,1226.14 2889.78,1245.56 2893.00,1264.00              2895.68,1279.33 2907.98,1276.12 2922.00,1293.00              2937.13,1311.21 2944.00,1341.00 2949.00,1356.00              2954.00,1371.00 2957.69,1397.64 2959.50,1414.00              2963.06,1446.23 2959.50,1466.50 2959.50,1466.50" fill="none" id="M16 complet_parallele" stroke="#427b7b" stroke-width="6"/></a>
  <a xlink:actuate="onRequest" xlink:href="http://www.plidf.fr/prol/mk5115-m17-pleyel-roissy.php" xlink:show="replace" xlink:title="M17 Pleyel - Roissy" xlink:type="simple"><path d="M 2840.00,-40.00            C 2840.00,-40.00 2824.00,8.00 2824.00,8.00              2824.00,8.00 2805.06,66.20 2706.00,78.00              2694.65,79.35 2660.66,79.74 2640.00,70.00              2612.96,57.26 2605.93,41.74 2574.00,30.00              2567.35,27.56 2553.00,23.00 2544.00,26.00              2535.00,29.00 2535.00,29.50 2518.00,34.00              2501.00,38.50 2495.63,35.93 2484.00,32.00              2446.70,19.38 2423.19,6.64 2410.00,2.00              2373.09,-10.99 2345.75,-26.92 2310.00,-24.00              2291.63,-22.50 2259.00,1.00 2255.00,16.00              2251.00,31.00 2268.50,61.00 2263.00,82.00              2260.73,90.66 2247.95,94.97 2241.00,103.00              2231.10,114.44 2223.63,131.24 2214.00,141.00              2206.85,148.24 2235.00,180.00 2236.00,195.00              2237.00,210.00 2224.26,231.55 2211.00,251.00              2203.46,262.06 2176.00,271.00 2176.00,271.00              2176.00,271.00 2149.23,261.03 2129.00,249.00              2121.47,244.52 2116.63,242.07 2109.00,239.00              2101.84,236.12 2091.91,229.35 2084.00,233.00              2045.00,251.00 2039.61,246.15 2022.00,263.00              2004.05,280.17 2003.20,307.78 1983.00,329.00              1927.88,386.92 1897.73,426.21 1837.00,493.00              1824.33,506.93 1804.16,512.00 1801.00,535.00              1796.49,567.85 1811.92,596.58 1813.00,633.00              1813.63,654.22 1805.47,687.37 1800.00,701.00              1793.71,716.68 1767.08,727.29 1746.00,739.50              1727.24,750.37 1707.70,761.96 1691.00,772.00              1685.65,775.21 1646.83,803.27 1624.00,807.00              1581.76,813.89 1545.50,795.00 1545.50,795.00" fill="none" id="M17 complet_parallele" stroke="#ec7cae" stroke-width="6"/></a>
  <a xlink:actuate="onRequest" xlink:href="http://www.plidf.fr/prol/15kad4a-metro-18-orly-saint-quentin-en-yvelines.php" xlink:show="replace" xlink:title="M18 Saint-Quentin - Saclay - Orly" xlink:type="simple"><path d="M 1666.50,2445.00            C 1666.50,2445.00 1664.00,2414.69 1653.00,2410.25              1639.04,2404.61 1614.42,2401.97 1588.00,2394.75              1578.18,2392.06 1568.35,2383.44 1557.50,2380.00              1544.58,2375.91 1531.78,2384.78 1517.75,2382.00              1506.17,2379.71 1496.18,2367.92 1484.25,2364.00              1473.79,2360.56 1462.04,2352.28 1451.50,2348.75              1420.66,2338.42 1402.78,2309.76 1372.25,2303.75              1369.34,2303.18 1337.49,2302.88 1308.00,2306.50              1299.42,2307.55 1295.40,2313.15 1286.50,2315.00              1274.43,2317.51 1231.30,2276.76 1210.50,2276.50              1162.70,2275.91 1129.41,2312.18 1124.00,2315.50              1111.20,2323.35 1114.32,2344.37 1081.50,2398.00              1064.11,2426.41 1067.30,2492.25 1053.50,2507.00              1036.08,2525.62 1022.15,2537.34 1009.50,2543.00              995.43,2549.30 978.39,2528.49 957.50,2524.00              952.74,2522.98 909.29,2530.66 850.00,2508.00              809.58,2492.55 762.24,2445.26 713.00,2441.00              671.27,2437.39 624.56,2465.39 587.00,2479.00              558.47,2489.34 533.37,2486.09 530.50,2485.00              525.02,2482.92 520.58,2478.89 515.00,2477.00              505.65,2473.83 494.96,2472.47 486.00,2470.00              469.83,2465.54 455.83,2461.20 441.00,2462.50              401.01,2466.02 363.13,2484.79 310.00,2477.00              307.43,2477.83 290.35,2473.50 269.32,2468.00              247.34,2462.25 221.04,2455.23 202.50,2451.50              194.33,2450.09 185.88,2453.92 177.00,2453.50              170.72,2453.20 156.04,2446.71 142.00,2441.00              128.10,2435.34 114.82,2430.48 113.00,2426.00              109.22,2416.71 115.64,2404.51 116.00,2394.00              116.34,2384.14 110.72,2375.84 105.00,2371.00              82.98,2352.37 32.79,2336.25 9.00,2326.00              -17.43,2314.61 -37.19,2299.13 -59.00,2284.50              -78.06,2271.71 -99.92,2260.68 -113.00,2239.00              -120.33,2226.85 -122.30,2212.18 -131.00,2200.50              -134.62,2195.64 -149.98,2179.98 -149.50,2161.00              -149.04,2142.83 -132.97,2121.54 -126.42,2106.69              -112.55,2075.22 -102.35,2038.70 -104.50,2022.50              -106.28,2009.08 -129.50,1999.03 -149.00,1983.00              -163.34,1971.21 -171.02,1956.05 -176.00,1949.00              -190.75,1928.14 -220.67,1929.10 -242.50,1917.50              -259.91,1908.25 -266.23,1889.43 -270.50,1875.50              -283.35,1833.56 -229.50,1786.50 -229.50,1786.50" fill="none" id="M18 complet Vauhallan_parallele" stroke="#95bf32" stroke-width="6"/></a>
  <a xlink:actuate="onRequest" xlink:href="http://www.plidf.fr/prol/11gl6jj-metro-nord-margency-boissy.php" xlink:show="replace" xlink:title="Métro Nord" xlink:type="simple"><path d="M 2613.00,2249.00            C 2591.13,2263.15 2530.46,2280.72 2491.00,2267.00              2469.12,2259.39 2462.05,2227.46 2452.00,2215.00              2433.30,2191.83 2405.20,2166.71 2376.50,2130.50              2349.50,2096.43 2272.84,1967.95 2264.00,1959.00              2256.03,1950.93 2244.46,1948.23 2237.00,1938.00              2233.02,1932.55 2234.59,1923.77 2230.00,1916.00              2221.99,1902.46 2209.78,1888.38 2196.50,1882.50              2183.49,1876.75 2170.74,1883.86 2155.00,1880.00              2143.62,1877.21 2137.03,1867.80 2126.00,1865.00              2115.74,1862.39 2104.23,1864.33 2094.50,1862.00              2064.03,1854.71 2039.62,1842.86 2032.50,1824.50              2005.92,1761.86 1995.50,1743.00 1996.00,1734.00              1996.50,1725.00 2002.50,1720.50 2002.50,1720.50              2002.50,1720.50 2019.83,1702.53 2018.50,1664.50              2017.93,1648.27 1980.43,1635.05 1986.50,1612.50              1993.99,1584.66 2074.78,1525.92 2072.50,1495.00              2070.42,1466.77 2074.91,1462.76 2056.00,1443.50              2046.28,1433.60 2030.13,1421.65 2020.00,1406.50              2009.46,1390.73 2010.04,1340.51 1998.00,1325.00              1987.12,1310.99 1962.39,1302.94 1953.00,1288.50              1945.41,1276.82 1910.98,1288.76 1900.00,1282.50              1889.79,1276.68 1884.72,1260.62 1885.00,1251.50              1885.25,1243.37 1893.64,1235.52 1899.00,1224.50              1908.06,1205.86 1915.29,1183.14 1909.50,1171.00              1904.65,1160.81 1878.43,1159.33 1869.00,1148.00              1861.09,1138.49 1847.99,1127.09 1837.00,1129.50              1828.08,1131.46 1821.84,1145.99 1810.55,1150.28              1803.77,1152.85 1792.72,1150.51 1785.00,1152.50              1778.13,1154.27 1774.67,1160.49 1767.00,1161.00              1756.41,1161.70 1746.00,1154.00 1726.50,1140.50              1719.03,1135.33 1710.89,1128.78 1702.50,1128.00              1689.00,1126.74 1675.98,1133.70 1672.50,1135.00              1655.94,1141.20 1638.70,1147.41 1633.00,1148.50              1608.50,1153.16 1603.03,1143.45 1595.00,1141.00              1591.55,1139.95 1579.56,1136.34 1565.00,1129.50              1551.43,1123.12 1535.78,1113.72 1518.50,1107.00              1492.63,1096.95 1465.52,1091.55 1448.50,1084.00              1430.24,1075.90 1415.92,1061.23 1400.00,1047.00              1384.85,1033.46 1370.43,1019.03 1360.00,1004.50              1352.19,993.63 1351.88,985.95 1345.50,975.50              1331.50,952.57 1323.12,938.44 1310.00,916.50              1304.86,907.90 1294.49,901.09 1290.50,892.00              1281.40,871.24 1277.35,848.22 1268.00,833.50              1260.22,821.25 1243.86,812.75 1237.00,805.50              1225.26,793.10 1220.50,782.00 1220.50,782.00              1220.50,782.00 1213.00,772.50 1213.00,772.50              1213.00,772.50 1207.19,760.87 1204.00,741.00              1203.21,736.08 1207.06,717.27 1200.50,699.00              1192.22,675.94 1172.90,651.81 1168.50,636.00              1156.05,591.22 1161.54,544.15 1160.00,495.50              1159.81,489.40 1156.34,482.02 1158.50,474.50              1161.48,464.16 1170.64,453.33 1173.00,443.00              1173.91,439.03 1171.84,427.31 1176.50,418.50              1179.06,413.65 1187.14,407.57 1193.50,395.50              1200.89,381.48 1206.68,361.28 1210.00,355.50              1218.21,341.19 1229.21,332.40 1235.00,318.00              1241.38,302.14 1242.42,280.72 1249.20,265.98              1252.72,258.33 1250.50,249.47 1253.00,242.00              1256.50,231.55 1264.18,222.58 1265.00,212.50              1266.64,192.38 1247.97,174.88 1226.00,163.00              1204.82,151.55 1180.54,145.62 1171.00,132.50              1146.25,98.44 1182.00,50.50 1182.00,50.50M 1875.50,1153.38            C 1875.50,1153.38 1876.01,1152.20 1870.62,1153.00              1865.38,1153.78 1855.90,1157.61 1852.62,1161.50              1847.63,1167.42 1845.22,1175.58 1839.12,1176.00              1829.57,1176.66 1823.37,1164.76 1818.12,1157.00              1815.26,1152.77 1810.62,1150.50 1810.62,1150.50" fill="none" id="Mnord" stroke="#4a25ec" stroke-width="6"/></a>
  <a xlink:actuate="onRequest" xlink:href="http://www.plidf.fr/prol/15gn2ek-metro-des-forts.php" xlink:show="replace" xlink:title="Métro des Forts" xlink:type="simple"><path d="M 1558.00,646.00            C 1558.00,646.00 1621.00,705.00 1621.00,705.00              1621.00,705.00 1635.31,704.80 1649.50,711.50              1656.78,714.94 1661.46,722.71 1669.50,728.00              1683.07,736.93 1688.00,758.50 1703.50,766.00              1719.00,773.50 1723.95,769.13 1733.00,777.50              1748.82,792.14 1748.50,811.00 1764.00,838.00              1779.50,865.00 1814.00,912.00 1829.00,936.50              1844.00,961.00 1853.86,972.96 1865.00,987.00              1873.60,997.85 1886.13,1006.43 1894.50,1012.50              1912.12,1025.27 1930.29,1016.40 1947.00,1028.50              1969.51,1044.80 1991.50,1060.42 2018.50,1077.50              2023.24,1080.50 2026.61,1087.22 2033.00,1091.00              2039.86,1095.06 2049.84,1096.14 2058.00,1098.00              2066.97,1100.04 2076.53,1096.57 2085.00,1097.50              2093.00,1098.38 2100.03,1103.59 2105.00,1108.00              2120.71,1121.94 2107.15,1167.82 2121.50,1186.50              2131.12,1199.02 2148.00,1203.00 2169.00,1221.50              2176.48,1228.09 2188.84,1235.45 2199.00,1244.50              2217.38,1260.87 2234.76,1280.51 2247.00,1295.00              2266.00,1317.50 2259.91,1346.71 2273.50,1369.50              2285.99,1390.44 2318.75,1401.25 2328.00,1421.50              2335.20,1437.25 2333.27,1458.36 2336.50,1476.00              2338.02,1484.30 2343.46,1492.26 2346.00,1499.00              2354.67,1521.97 2358.93,1541.98 2363.00,1562.50              2367.84,1586.90 2367.22,1610.24 2364.79,1629.31              2361.28,1656.87 2355.00,1677.00 2355.00,1677.00              2355.00,1677.00 2300.00,1799.50 2300.00,1799.50              2300.00,1799.50 2290.00,1818.00 2290.00,1818.00              2290.00,1818.00 2297.78,1829.40 2299.00,1841.00              2299.79,1848.54 2299.53,1858.30 2306.00,1865.00              2314.24,1873.54 2324.57,1871.53 2339.50,1878.50              2354.70,1885.60 2366.03,1897.21 2376.50,1909.50              2400.66,1937.87 2430.20,1959.62 2429.50,1995.50              2429.07,2017.65 2405.69,2032.77 2399.50,2052.50              2393.46,2071.74 2404.74,2095.60 2393.50,2116.50              2383.75,2134.63 2356.65,2148.57 2345.50,2165.50              2340.70,2172.78 2336.61,2185.42 2339.50,2197.50              2343.50,2214.23 2355.63,2230.86 2350.50,2239.50              2338.96,2258.95 2314.97,2259.06 2302.50,2268.50              2291.70,2276.68 2291.50,2295.50 2291.50,2295.50M 497.00,11.50" fill="none" id="Mforts" stroke="#cc9058" stroke-width="6"/></a>
  <a xlink:actuate="onRequest" xlink:href="http://www.plidf.fr/prol/i4d43n-metro-sud-gretz-elancourt.php" xlink:show="replace" xlink:title="Métro Sud" xlink:type="simple"><path d="M 3786.48,2333.50            C 3786.48,2333.50 3780.87,2318.44 3763.98,2305.00              3749.76,2293.69 3726.10,2285.09 3705.48,2272.00              3685.48,2259.30 3664.05,2245.35 3642.48,2239.00              3576.88,2219.70 3454.48,2187.00 3434.48,2181.00              3414.48,2175.00 3398.31,2168.92 3376.98,2162.50              3272.77,2131.15 3168.59,2102.51 3066.48,2074.00              3038.00,2066.05 2997.33,2053.36 2954.48,2041.50              2924.10,2033.09 2891.25,2027.14 2866.98,2014.50              2830.93,1995.73 2814.83,1957.94 2808.48,1951.00              2797.05,1938.51 2781.10,1928.12 2766.48,1913.50              2719.36,1866.37 2665.79,1811.73 2652.50,1805.50              2641.22,1800.22 2630.14,1800.00 2619.50,1795.00              2591.59,1781.89 2580.99,1757.69 2558.00,1747.00              2484.47,1712.81 2423.00,1693.50 2423.00,1693.50              2423.00,1693.50 2397.50,1686.50 2397.50,1686.50              2397.50,1686.50 2387.85,1683.88 2370.01,1679.04              2348.21,1673.12 2246.87,1684.66 2232.50,1668.50              2225.17,1660.26 2219.89,1653.08 2213.00,1641.00              2208.00,1632.23 2197.34,1619.99 2190.50,1611.00              2171.99,1586.67 2150.12,1565.22 2131.00,1544.50              2109.48,1521.18 2096.23,1499.87 2086.00,1497.00              2051.12,1487.22 2021.48,1483.32 1988.00,1484.50              1961.77,1485.43 1937.00,1494.50 1910.00,1500.00              1883.00,1505.50 1882.52,1506.95 1866.00,1505.50              1863.11,1505.25 1852.47,1503.41 1840.50,1498.50              1830.69,1494.47 1817.39,1492.49 1807.00,1487.00              1796.12,1481.24 1788.23,1471.97 1781.50,1467.50              1767.95,1458.50 1753.39,1444.94 1741.00,1444.00              1734.39,1443.50 1713.65,1452.85 1694.00,1451.50              1683.25,1450.76 1675.10,1436.90 1664.50,1439.50              1634.96,1446.74 1611.73,1472.38 1603.50,1471.50              1583.50,1469.36 1531.14,1454.94 1524.00,1427.50              1517.79,1417.13 1513.32,1395.53 1505.00,1386.00              1499.48,1379.68 1493.95,1381.57 1487.00,1377.50              1472.12,1368.80 1463.54,1364.31 1452.50,1363.00              1441.85,1361.74 1441.28,1378.74 1426.00,1389.00              1408.01,1401.08 1385.17,1399.73 1372.50,1398.00              1357.85,1396.00 1336.30,1384.91 1317.00,1366.00              1306.38,1355.60 1290.52,1340.61 1276.00,1326.00              1263.83,1313.76 1253.09,1301.52 1242.50,1295.00              1233.59,1289.51 1226.46,1296.69 1221.00,1296.00              1198.15,1293.11 1163.91,1285.78 1142.00,1283.00              1114.81,1279.55 1090.92,1338.88 1065.50,1335.50              1040.60,1332.18 1016.34,1346.53 993.50,1343.00              985.19,1341.72 971.19,1338.36 960.50,1329.50              950.45,1321.17 943.80,1307.61 933.00,1297.50              923.99,1289.06 919.38,1282.39 910.50,1275.50              896.38,1264.54 875.79,1260.74 868.00,1259.50              860.28,1258.28 849.38,1244.23 841.50,1231.00              832.51,1215.91 825.08,1197.80 814.50,1184.00              811.54,1180.14 807.66,1169.21 799.50,1163.50              786.51,1154.41 772.45,1156.75 765.00,1157.00              735.71,1157.97 718.00,1173.00 718.00,1173.00              718.00,1173.00 704.50,1186.50 704.50,1186.50              704.50,1186.50 661.50,1216.00 634.00,1240.50              606.50,1265.00 617.46,1356.16 542.50,1422.50              513.32,1448.33 525.75,1502.91 485.50,1519.00              463.68,1527.72 419.95,1524.74 383.50,1530.00              354.67,1534.16 322.43,1542.98 293.00,1543.50              273.79,1543.84 257.18,1535.45 240.50,1534.00              228.10,1532.93 216.81,1538.24 206.50,1538.50              193.64,1538.83 177.18,1537.69 172.00,1536.50              152.45,1532.00 140.52,1518.92 123.50,1515.00              101.91,1510.02 86.47,1511.39 74.50,1519.50              45.59,1539.09 23.94,1575.83 2.50,1600.50              -20.74,1627.25 -68.68,1680.17 -104.50,1723.00              -126.41,1749.20 -145.84,1778.65 -154.00,1787.00              -175.50,1809.00 -217.50,1785.86 -230.50,1791.00              -247.02,1797.53 -276.10,1822.50 -308.00,1842.00              -332.20,1856.79 -357.98,1869.90 -367.00,1870.50              -392.88,1872.22 -421.72,1866.83 -450.00,1862.50              -472.79,1859.01 -504.73,1862.12 -525.00,1859.50              -534.24,1858.31 -587.00,1833.00 -587.00,1833.00" fill="none" id="Msud" stroke="#e60f0f" stroke-width="6"/></a>
  <a xlink:actuate="onRequest" xlink:href="http://www.plidf.fr/prol/ch779a-grand-orlyval.php" xlink:show="replace" xlink:title="Grand Orlyval" xlink:type="simple"><path d="M 1034.75,2153.25            C 1046.75,2162.00 1092.50,2168.00 1128.50,2173.25              1164.50,2178.50 1170.00,2181.00 1194.50,2186.50              1219.00,2192.00 1224.37,2168.56 1246.25,2165.25              1268.88,2161.83 1298.38,2173.93 1307.75,2180.25              1329.20,2194.72 1301.00,2250.00 1301.00,2250.00              1301.00,2250.00 1286.04,2278.17 1303.25,2291.25              1315.36,2300.45 1321.73,2305.74 1342.50,2315.50              1345.19,2316.76 1356.87,2313.85 1362.75,2312.75              1370.99,2311.21 1381.16,2313.42 1385.25,2315.25              1403.28,2323.33 1417.98,2339.63 1436.25,2351.25              1449.33,2359.57 1461.82,2361.29 1476.25,2368.25              1486.73,2373.31 1499.10,2383.58 1509.25,2389.25              1515.05,2392.49 1524.66,2395.20 1532.75,2393.75              1542.98,2391.92 1555.83,2385.10 1563.25,2388.75              1573.09,2393.59 1574.59,2400.03 1584.75,2402.25              1602.13,2406.04 1636.32,2407.73 1651.25,2413.75              1653.20,2414.54 1657.80,2427.59 1661.25,2441.25              1663.23,2449.07 1665.95,2456.82 1664.75,2463.25              1663.12,2472.01 1649.88,2474.25 1643.75,2474.75              1674.25,2469.25 1662.40,2486.46 1676.25,2485.75              1683.48,2485.38 1694.75,2482.00 1705.00,2478.00              1715.25,2474.00 1725.96,2468.81 1733.25,2465.75              1768.10,2451.11 1793.25,2476.25 1858.75,2452.25              1860.48,2451.62 1867.13,2449.84 1875.00,2448.75              1881.67,2447.83 1885.25,2450.50 1902.75,2442.25              1920.25,2434.00 1931.36,2431.94 1937.50,2430.50              1951.42,2427.23 1969.33,2428.00 1982.50,2430.50              1993.52,2432.59 2002.10,2438.87 2010.50,2443.75              2015.91,2446.89 2021.39,2460.34 2037.75,2470.75              2047.54,2476.98 2058.58,2489.04 2080.75,2491.75              2102.71,2494.44 2135.81,2487.81 2141.75,2487.25              2159.70,2485.56 2155.58,2474.48 2162.25,2465.25              2171.32,2452.70 2177.09,2440.77 2177.75,2439.75              2178.85,2438.04 2189.65,2416.84 2208.75,2386.25              2219.67,2368.76 2223.74,2337.44 2235.25,2319.75              2244.25,2305.91 2279.45,2309.75 2287.75,2303.25              2296.36,2296.51 2292.16,2266.67 2292.50,2266.25" fill="none" id="Grand Orlyval" stroke="#0dc41e" stroke-width="6"/></a>
  <a xlink:actuate="onRequest" xlink:href="http://www.plidf.fr/prol/7km5bg-liaison-buc-bougival.php" xlink:show="replace" xlink:title="Liaison Buc - Bougival" xlink:type="simple"><path d="M 341.00,1258.00            C 341.00,1258.00 349.12,1271.95 354.00,1293.00              356.50,1303.78 350.61,1316.37 358.00,1330.00              374.80,1360.97 419.97,1399.47 418.00,1417.00              414.91,1444.45 348.39,1497.41 298.00,1544.00              272.02,1568.02 248.51,1586.36 244.00,1607.00              236.46,1641.53 349.61,1659.19 346.00,1695.00              340.46,1749.96 308.56,1797.77 297.00,1851.00              293.07,1869.11 326.62,1880.59 323.00,1898.00              321.45,1905.47 303.82,1925.62 281.00,1929.00              263.68,1931.57 245.32,1923.28 227.00,1928.00              194.38,1936.39 166.79,1957.83 164.00,1967.00              153.34,2002.00 236.12,2005.61 251.00,2032.00              274.76,2074.13 243.00,2128.00 243.00,2128.00" fill="none" id="Metro Versailles" stroke="#505d70" stroke-width="6"/></a>
  <a xlink:actuate="onRequest" xlink:href="http://www.plidf.fr/prol/leb6ne-petite-ceinture-express.php" xlink:show="replace" xlink:title="Petite Ceinture Express" xlink:type="simple"><path d="M 1375.25,1024.25            C 1375.25,1024.25 1319.33,1050.81 1310.75,1061.75              1303.85,1070.55 1303.08,1087.13 1288.75,1094.25              1275.79,1100.69 1268.34,1108.10 1255.25,1118.25              1234.28,1134.51 1214.13,1152.39 1193.25,1169.25              1152.33,1202.30 1134.76,1251.93 1130.75,1266.25              1120.25,1303.75 1149.87,1315.09 1134.25,1339.25              1130.12,1345.64 1099.98,1346.77 1084.75,1363.75              1075.31,1374.28 1074.00,1393.87 1069.75,1405.75              1064.26,1421.09 1057.08,1428.03 1054.75,1432.75              1045.19,1452.09 1017.19,1456.13 1009.75,1470.25              1004.42,1480.36 1005.53,1494.36 1011.75,1506.25              1015.73,1513.86 1022.87,1520.36 1028.25,1525.25              1038.13,1534.24 1077.99,1548.86 1100.75,1543.25              1109.06,1541.20 1114.59,1526.02 1120.25,1521.75              1128.74,1515.34 1138.40,1515.23 1147.25,1519.75              1159.04,1525.77 1171.36,1533.35 1185.25,1539.25              1198.44,1544.85 1213.15,1548.75 1226.25,1555.25              1233.50,1558.85 1237.34,1567.01 1244.75,1570.25              1269.80,1581.22 1295.32,1587.02 1321.75,1598.25              1346.89,1608.93 1375.05,1615.95 1401.25,1625.25              1439.94,1638.98 1476.56,1660.10 1516.25,1667.75              1532.83,1670.95 1550.28,1661.94 1567.25,1662.25              1594.42,1662.75 1622.32,1664.15 1649.75,1660.25              1664.91,1658.10 1683.88,1658.55 1700.25,1654.75              1722.35,1649.62 1744.55,1639.78 1765.75,1628.75              1782.67,1619.95 1795.38,1606.07 1811.25,1596.75              1822.58,1590.09 1835.04,1587.53 1845.10,1580.94              1860.31,1570.98 1873.72,1561.25 1884.25,1552.25              1902.42,1536.71 1910.12,1521.12 1910.75,1518.25              1912.22,1511.54 1932.97,1464.21 1930.25,1415.25              1929.75,1406.20 1924.58,1383.33 1913.25,1362.75              1900.96,1340.42 1882.24,1320.37 1876.25,1312.75              1868.23,1302.55 1861.75,1293.19 1853.75,1285.25              1841.41,1273.00 1827.97,1263.45 1819.25,1254.25              1809.83,1244.32 1804.21,1234.20 1803.25,1227.25              1800.08,1204.23 1794.11,1152.98 1790.75,1107.75              1787.76,1067.51 1786.70,1031.88 1772.25,1020.25              1745.97,999.10 1714.86,992.48 1680.75,989.25              1659.81,987.26 1638.50,988.52 1615.25,989.25              1596.37,989.84 1575.98,989.52 1555.25,991.25              1524.01,993.85 1494.60,1004.75 1467.75,1008.25              1449.88,1010.58 1432.53,1004.80 1418.75,1008.75              1409.37,1011.44 1402.35,1015.63 1395.25,1018.25              1378.65,1024.37 1375.25,1024.25 1375.25,1024.25 Z" fill="none" id="PCE" stroke="#198d92" stroke-width="8"/></a>
</svg>