<?xml version="1.0" encoding="UTF-8" standalone="no"?>
<!-- Generator: Adobe Illustrator 13.0.0, SVG Export Plug-In . SVG Version: 6.00 Build 14948)  -->

<svg
   xmlns:dc="http://purl.org/dc/elements/1.1/"
   xmlns:cc="http://creativecommons.org/ns#"
   xmlns:rdf="http://www.w3.org/1999/02/22-rdf-syntax-ns#"
   xmlns:svg="http://www.w3.org/2000/svg"
   xmlns="http://www.w3.org/2000/svg"
   xmlns:sodipodi="http://sodipodi.sourceforge.net/DTD/sodipodi-0.dtd"
   xmlns:inkscape="http://www.inkscape.org/namespaces/inkscape"
   version="1.1"
   id="Layer_1"
   x="0px"
   y="0px"
   width="400px"
   height="400px"
   viewBox="0 0 400 400"
   enable-background="new 0 0 400 400"
   xml:space="preserve"
   sodipodi:version="0.32"
   inkscape:version="0.91 r13725"
   sodipodi:docname="cv_2.svg"
   inkscape:output_extension="org.inkscape.output.svg.inkscape"><metadata
     id="metadata8"><rdf:RDF><cc:Work
         rdf:about=""><dc:format>image/svg+xml</dc:format><dc:type
           rdf:resource="http://purl.org/dc/dcmitype/StillImage" /><dc:title></dc:title></cc:Work></rdf:RDF></metadata><defs
     id="defs6"><inkscape:perspective
       sodipodi:type="inkscape:persp3d"
       inkscape:vp_x="0 : 200 : 1"
       inkscape:vp_y="0 : 1000 : 0"
       inkscape:vp_z="400 : 200 : 1"
       inkscape:persp3d-origin="200 : 133.33333 : 1"
       id="perspective10" /></defs><sodipodi:namedview
     inkscape:window-height="634"
     inkscape:window-width="970"
     inkscape:pageshadow="2"
     inkscape:pageopacity="0.0"
     guidetolerance="10.0"
     gridtolerance="10.0"
     objecttolerance="10.0"
     borderopacity="1.0"
     bordercolor="#666666"
     pagecolor="#ffffff"
     id="base"
     showgrid="false"
     inkscape:zoom="1"
     inkscape:cx="263.18891"
     inkscape:cy="208"
     inkscape:window-x="133"
     inkscape:window-y="85"
     inkscape:current-layer="Layer_1"
     inkscape:window-maximized="0" /><path
     d="M 399,200.987 C 399,90.544 306.459,1 200.49,1 C 90.54,1 1,90.544 1,200.987 C 1,310.429 90.54,399 200.49,399 C 310.44,399 399,310.919 399,200.987"
     id="path3157"
     style="fill:#14489e;fill-opacity:1" /><g
     style="font-style:normal;font-weight:normal;font-size:20px;line-height:125%;font-family:Sans;text-align:center;letter-spacing:0px;word-spacing:0px;text-anchor:middle;fill:#ffffff;fill-opacity:0.94117647;stroke:none;stroke-width:1px;stroke-linecap:butt;stroke-linejoin:miter;stroke-opacity:1"
     id="text4177"><path
       d="m 192.68281,81.25 c -32.55,0 -57.4,14 -76.3,38.5 l 27.65,21.7 c 14.35,-17.15 26.6,-24.85 45.15,-24.85 20.3,0 33.95,12.6 33.95,34.3 0,33.25 -19.6,55.3 -100.1,137.2 l 0,32.9 146.65,0 4.9,-35.35 -100.8,0 c 72.8,-69.3 95.55,-98.35 95.55,-138.25 0,-36.75 -28,-66.15 -76.65,-66.15 z"
       style="font-style:normal;font-variant:normal;font-weight:500;font-stretch:normal;font-size:350px;font-family:'Fira Sans';-inkscape-font-specification:'Fira Sans Medium';fill:#ffffff;fill-opacity:0.94117647"
       id="path4204" /></g></svg>