<?xml version="1.0" encoding="UTF-8" standalone="no"?>
<!-- Generator: Adobe Illustrator 13.0.0, SVG Export Plug-In . SVG Version: 6.00 Build 14948)  -->

<svg
   xmlns:dc="http://purl.org/dc/elements/1.1/"
   xmlns:cc="http://creativecommons.org/ns#"
   xmlns:rdf="http://www.w3.org/1999/02/22-rdf-syntax-ns#"
   xmlns:svg="http://www.w3.org/2000/svg"
   xmlns="http://www.w3.org/2000/svg"
   xmlns:sodipodi="../../../sodipodi.sourceforge.net/DTD/sodipodi-0.html"
   xmlns:inkscape="http://www.inkscape.org/namespaces/inkscape"
   version="1.1"
   id="Layer_1"
   x="0px"
   y="0px"
   width="400px"
   height="400px"
   viewBox="0 0 400 400"
   enable-background="new 0 0 400 400"
   xml:space="preserve"
   sodipodi:version="0.32"
   inkscape:version="0.91 r13725"
   sodipodi:docname="logo_cv.svg"
   inkscape:output_extension="org.inkscape.output.svg.inkscape"><metadata
     id="metadata8"><rdf:RDF><cc:Work
         rdf:about=""><dc:format>image/svg+xml</dc:format><dc:type
           rdf:resource="http://purl.org/dc/dcmitype/StillImage" /><dc:title></dc:title></cc:Work></rdf:RDF></metadata><defs
     id="defs6"><inkscape:perspective
       sodipodi:type="inkscape:persp3d"
       inkscape:vp_x="0 : 200 : 1"
       inkscape:vp_y="0 : 1000 : 0"
       inkscape:vp_z="400 : 200 : 1"
       inkscape:persp3d-origin="200 : 133.33333 : 1"
       id="perspective10" /></defs><sodipodi:namedview
     inkscape:window-height="634"
     inkscape:window-width="970"
     inkscape:pageshadow="2"
     inkscape:pageopacity="0.0"
     guidetolerance="10.0"
     gridtolerance="10.0"
     objecttolerance="10.0"
     borderopacity="1.0"
     bordercolor="#666666"
     pagecolor="#ffffff"
     id="base"
     showgrid="false"
     inkscape:zoom="1"
     inkscape:cx="263.18891"
     inkscape:cy="162.13043"
     inkscape:window-x="43"
     inkscape:window-y="98"
     inkscape:current-layer="Layer_1"
     inkscape:window-maximized="0" /><path
     d="M 399,200.987 C 399,90.544 306.459,1 200.49,1 C 90.54,1 1,90.544 1,200.987 C 1,310.429 90.54,399 200.49,399 C 310.44,399 399,310.919 399,200.987"
     id="path3157"
     style="fill:#14489e;fill-opacity:1" /><path
     d="M 371.639,200.987 C 371.639,294.521 294.533,372.604 200.491,372.604 C 105.982,372.604 28.362,295.514 28.362,200.987 C 28.362,105.984 105.982,27.356 200.491,27.356 C 294.532,27.356 371.639,106.467 371.639,200.987 z"
     id="path3155"
     style="fill:#ffffff;fill-opacity:1" /><path
     d="m 210.49054,81.525 c -59.15,0 -107.1,44.1 -107.1,125.3 0,81.9 46.2,125.65 107.8,125.65 29.5742,-0.18367 76.26449,-15.53973 65.96193,-40.91969 -10.30256,-25.37996 -45.05151,7.72924 -64.56193,8.01969 -38.15,0 -66.85,-25.9 -66.85,-92.75 0,-68.25 30.45,-93.45 66.5,-93.45 31.54043,-0.10934 40.95994,30.54526 61.98359,3.52969 C 295.24778,89.88913 220.01725,81.622441 210.49054,81.525 Z"
     style="font-style:normal;font-variant:normal;font-weight:500;font-stretch:normal;font-size:350px;line-height:125%;font-family:'Fira Mono';-inkscape-font-specification:'Fira Mono Medium';text-align:center;letter-spacing:0px;word-spacing:0px;text-anchor:middle;fill:#14489e;fill-opacity:1;stroke:none;stroke-width:1px;stroke-linecap:butt;stroke-linejoin:miter;stroke-opacity:1"
     id="path4141"
     inkscape:connector-curvature="0"
     sodipodi:nodetypes="csczcsczc" /></svg>