<?xml version="1.0" encoding="UTF-8" standalone="no"?>
<!-- Generator: Adobe Illustrator 12.0.1, SVG Export Plug-In  -->

<svg
   xmlns:dc="http://purl.org/dc/elements/1.1/"
   xmlns:cc="http://creativecommons.org/ns#"
   xmlns:rdf="http://www.w3.org/1999/02/22-rdf-syntax-ns#"
   xmlns:svg="http://www.w3.org/2000/svg"
   xmlns="http://www.w3.org/2000/svg"
   xmlns:sodipodi="http://sodipodi.sourceforge.net/DTD/sodipodi-0.dtd"
   xmlns:inkscape="http://www.inkscape.org/namespaces/inkscape"
   version="1.1"
   width="55"
   height="55"
   viewBox="-0.971 -0.697 55 55"
   enable-background="new -0.971 -0.697 55 55"
   xml:space="preserve"
   id="svg2"
   inkscape:version="0.48.2 r9819"
   sodipodi:docname="Paris_m_15_jms.svg"><metadata
   id="metadata14"><rdf:RDF><cc:Work
       rdf:about=""><dc:format>image/svg+xml</dc:format><dc:type
         rdf:resource="http://purl.org/dc/dcmitype/StillImage" /><dc:title></dc:title></cc:Work></rdf:RDF></metadata><sodipodi:namedview
   pagecolor="#ffffff"
   bordercolor="#666666"
   borderopacity="1"
   objecttolerance="10"
   gridtolerance="10"
   guidetolerance="10"
   inkscape:pageopacity="0"
   inkscape:pageshadow="2"
   inkscape:window-width="1883"
   inkscape:window-height="1197"
   id="namedview12"
   showgrid="false"
   inkscape:zoom="6.0682618"
   inkscape:cx="5.37735"
   inkscape:cy="-5.4742694"
   inkscape:window-x="0"
   inkscape:window-y="0"
   inkscape:window-maximized="0"
   inkscape:current-layer="svg2" />
<defs
   id="defs4" />



<g
   id="g3846"><path
     style="fill:#a90f32;fill-opacity:1"
     id="path6"
     d="M0,26.703C0,11.953,11.953,0,26.705,0c14.748,0,26.703,11.953,26.703,26.703S41.453,53.408,26.705,53.408  C11.953,53.408,0,41.453,0,26.703"
     fill="#672F8F" /><path
     fill="#FFFFFF"
     id="path8"
     d="M20.4,40.859V12.564h-4.936c-1.279,1-4.32,2.889-7.611,4.451l-1.725,0.789l1.92,4.336l1.488-0.756  c1.035-0.525,3.891-2,4.848-2.768v22.242H20.4" /><path
     id="path3066"
     d="m 41.983537,31.646 c 0,-4.246 -3.121,-8.531 -10.858996,-8.934 l -0.809,-0.039 0.398,-5.414 H 40.904537 V 12.564 H 26.026541 l -1.125,14.715 4.41,0.039 c 5.215,0.051 6.57,2.848 6.57,4.895 0,3.32 -2.758,4.574 -4.961,4.574 -2.414,0 -4.008,-0.887 -5.375,-1.812 l -2.078,4.418 c 2.195,1.238 4.77,2.047 7.773,2.047 6.449996,-10e-4 10.742996,-4.384 10.742996,-9.794"
     inkscape:connector-curvature="0"
     style="fill:#ffffff;fill-opacity:1" /></g></svg>