<?xml version="1.0" encoding="UTF-8" standalone="no"?>
<!-- Generator: Adobe Illustrator 12.0.1, SVG Export Plug-In  -->

<svg
   xmlns:dc="http://purl.org/dc/elements/1.1/"
   xmlns:cc="http://creativecommons.org/ns#"
   xmlns:rdf="http://www.w3.org/1999/02/22-rdf-syntax-ns#"
   xmlns:svg="http://www.w3.org/2000/svg"
   xmlns="http://www.w3.org/2000/svg"
   xmlns:sodipodi="http://sodipodi.sourceforge.net/DTD/sodipodi-0.dtd"
   xmlns:inkscape="http://www.inkscape.org/namespaces/inkscape"
   version="1.1"
   width="55"
   height="55"
   viewBox="-0.971 -0.697 55 55"
   enable-background="new -0.971 -0.697 55 55"
   xml:space="preserve"
   id="svg2"
   inkscape:version="0.48.2 r9819"
   sodipodi:docname="Paris_m_14_jms.svg"><metadata
   id="metadata14"><rdf:RDF><cc:Work
       rdf:about=""><dc:format>image/svg+xml</dc:format><dc:type
         rdf:resource="http://purl.org/dc/dcmitype/StillImage" /><dc:title></dc:title></cc:Work></rdf:RDF></metadata><sodipodi:namedview
   pagecolor="#ffffff"
   bordercolor="#666666"
   borderopacity="1"
   objecttolerance="10"
   gridtolerance="10"
   guidetolerance="10"
   inkscape:pageopacity="0"
   inkscape:pageshadow="2"
   inkscape:window-width="1815"
   inkscape:window-height="945"
   id="namedview12"
   showgrid="false"
   inkscape:zoom="4.2909091"
   inkscape:cx="-13.983051"
   inkscape:cy="27.5"
   inkscape:window-x="0"
   inkscape:window-y="0"
   inkscape:window-maximized="0"
   inkscape:current-layer="svg2" />
<defs
   id="defs4" />



<g
   id="g3832"><g
     id="g3827"><path
       fill="#427b7b"
       d="M0,26.703C0,11.953,11.953,0,26.705,0c14.748,0,26.703,11.953,26.703,26.703S41.453,53.408,26.705,53.408  C11.953,53.408,0,41.453,0,26.703"
       id="path6"
       style="fill:#427b7b;fill-opacity:1" /><path
       d="M20.4,40.859V12.564h-4.936c-1.279,1-4.32,2.889-7.611,4.451l-1.725,0.789l1.92,4.336l1.488-0.756  c1.035-0.525,3.891-2,4.848-2.768v22.242H20.4"
       id="path8"
       fill="#FFFFFF" /><path
       style="fill:#ffffff;fill-opacity:1"
       inkscape:connector-curvature="0"
       d="m 44.346885,31.619 c 0,-5.305 -3.766,-8.387 -8.391,-8.387 -2.988,0 -4.801,1.082 -5.758,1.926 0.359,-5.688 3.281,-8.539 7.18,-8.539 1.59,0 3.043,0.359 3.793,0.688 l 0.891,-4.812 c -1.16,-0.289 -2.613,-0.477 -4.211,-0.477 -8.898,0 -13.426,6.723 -13.426,16.551 0,7.496 2.719,12.836 10.34,12.836 5.817,-10e-4 9.582,-4.142 9.582,-9.786 m -5.652,0.601 c 0,2.438 -1.402,4.723 -4.133,4.723 -2.809,0 -4.324,-2.605 -4.324,-5.293 0,-0.836 0,-1.922 0.32,-2.402 0.559,-0.887 1.965,-1.559 3.688,-1.559 2.722,0 4.449,1.879 4.449,4.531 z"
       id="path3047" /></g></g></svg>