<?xml version="1.0" encoding="UTF-8" standalone="no"?>
<!-- Generator: Adobe Illustrator 12.0.1, SVG Export Plug-In  -->

<svg
   xmlns:dc="http://purl.org/dc/elements/1.1/"
   xmlns:cc="http://creativecommons.org/ns#"
   xmlns:rdf="http://www.w3.org/1999/02/22-rdf-syntax-ns#"
   xmlns:svg="http://www.w3.org/2000/svg"
   xmlns="http://www.w3.org/2000/svg"
   xmlns:sodipodi="http://sodipodi.sourceforge.net/DTD/sodipodi-0.dtd"
   xmlns:inkscape="http://www.inkscape.org/namespaces/inkscape"
   version="1.1"
   width="55"
   height="55"
   viewBox="-0.971 -0.697 55 55"
   enable-background="new -0.971 -0.697 55 55"
   xml:space="preserve"
   id="svg2"
   inkscape:version="0.91 r13725"
   sodipodi:docname="m_nord.svg"><metadata
     id="metadata14"><rdf:RDF><cc:Work
         rdf:about=""><dc:format>image/svg+xml</dc:format><dc:type
           rdf:resource="http://purl.org/dc/dcmitype/StillImage" /><dc:title /></cc:Work></rdf:RDF></metadata><sodipodi:namedview
     pagecolor="#ffffff"
     bordercolor="#666666"
     borderopacity="1"
     objecttolerance="10"
     gridtolerance="10"
     guidetolerance="10"
     inkscape:pageopacity="0"
     inkscape:pageshadow="2"
     inkscape:window-width="1274"
     inkscape:window-height="732"
     id="namedview12"
     showgrid="false"
     inkscape:zoom="4.2909091"
     inkscape:cx="12.765479"
     inkscape:cy="27.5"
     inkscape:window-x="0"
     inkscape:window-y="0"
     inkscape:window-maximized="0"
     inkscape:current-layer="svg2" /><defs
     id="defs4" /><path
     d="M 0,26.703 C 0,11.953 11.953,0 26.705,0 41.453,0 53.408,11.953 53.408,26.703 53.408,41.453 41.453,53.408 26.705,53.408 11.953,53.408 0,41.453 0,26.703"
     id="path6"
     style="fill:#4a25ec;fill-opacity:1"
     inkscape:connector-curvature="0" /><g
     transform="translate(28.160356,-16.078356)"
     style="font-style:normal;font-weight:normal;font-size:20px;line-height:125%;font-family:Sans;text-align:center;letter-spacing:0px;word-spacing:0px;text-anchor:middle;fill:#ffffff;fill-opacity:1;stroke:none;stroke-width:1px;stroke-linecap:butt;stroke-linejoin:miter;stroke-opacity:1"
     id="flowRoot4144"><path
       d="m -16.257812,60.433253 0,-36.68457 8.7280268,0 12.2729493,22.209472 q 1.1010742,1.987305 2.2021484,5.021973 0,0.107422 0.2148437,0.644531 Q 7.375,52.134913 7.5092773,52.457179 7.4555664,51.409816 7.2675781,50.469874 6.8916016,47.220362 6.8916016,43.433741 l 0,-19.685058 7.0361324,0 0,36.68457 -8.9697262,0 -11.977539,-22.155762 q -1.6381836,-3.088379 -3.0346678,-6.499023 0.8325193,5.935058 0.8325193,9.453125 l 0,19.20166 -7.0361323,0 z"
       style="font-style:normal;font-variant:normal;font-weight:bold;font-stretch:normal;font-size:55px;font-family:'CartoGothic Std';-inkscape-font-specification:'CartoGothic Std Bold';fill:#ffffff;fill-opacity:1"
       id="path4710" /></g></svg>