<?xml version="1.0" encoding="UTF-8" standalone="no"?>
<!-- Generator: Adobe Illustrator 12.0.1, SVG Export Plug-In  -->

<svg
   xmlns:dc="http://purl.org/dc/elements/1.1/"
   xmlns:cc="http://creativecommons.org/ns#"
   xmlns:rdf="http://www.w3.org/1999/02/22-rdf-syntax-ns#"
   xmlns:svg="http://www.w3.org/2000/svg"
   xmlns="http://www.w3.org/2000/svg"
   xmlns:sodipodi="http://sodipodi.sourceforge.net/DTD/sodipodi-0.dtd"
   xmlns:inkscape="http://www.inkscape.org/namespaces/inkscape"
   version="1.1"
   width="55"
   height="55"
   viewBox="-0.971 -0.697 55 55"
   enable-background="new -0.971 -0.697 55 55"
   xml:space="preserve"
   id="svg2"
   inkscape:version="0.91 r13725"
   sodipodi:docname="m_ov.svg"><metadata
     id="metadata14"><rdf:RDF><cc:Work
         rdf:about=""><dc:format>image/svg+xml</dc:format><dc:type
           rdf:resource="http://purl.org/dc/dcmitype/StillImage" /><dc:title></dc:title></cc:Work></rdf:RDF></metadata><sodipodi:namedview
     pagecolor="#ffffff"
     bordercolor="#666666"
     borderopacity="1"
     objecttolerance="10"
     gridtolerance="10"
     guidetolerance="10"
     inkscape:pageopacity="0"
     inkscape:pageshadow="2"
     inkscape:window-width="1274"
     inkscape:window-height="732"
     id="namedview12"
     showgrid="false"
     inkscape:zoom="4.2909091"
     inkscape:cx="47.583155"
     inkscape:cy="10.847518"
     inkscape:window-x="0"
     inkscape:window-y="0"
     inkscape:window-maximized="0"
     inkscape:current-layer="svg2" /><defs
     id="defs4" /><flowRoot
     xml:space="preserve"
     id="flowRoot4190"
     style="font-style:normal;font-weight:normal;font-size:20px;line-height:125%;font-family:Sans;text-align:center;letter-spacing:0px;word-spacing:0px;text-anchor:middle;fill:#000000;fill-opacity:1;stroke:none;stroke-width:1px;stroke-linecap:butt;stroke-linejoin:miter;stroke-opacity:1"
     transform="translate(-8.8947288,9.7902881)"><flowRegion
       id="flowRegion4192"><rect
         id="rect4194"
         width="50.105934"
         height="44.512714"
         x="11.652542"
         y="-2.3305085" /></flowRegion><flowPara
       id="flowPara4196"
       style="font-style:normal;font-variant:normal;font-weight:bold;font-stretch:normal;font-family:'CartoGothic Std';-inkscape-font-specification:'CartoGothic Std Bold';font-size:37.5px">OV</flowPara></flowRoot><path
     d="M 0,26.703 C 0,11.953 11.953,0 26.705,0 41.453,0 53.408,11.953 53.408,26.703 53.408,41.453 41.453,53.408 26.705,53.408 11.953,53.408 0,41.453 0,26.703"
     id="path6"
     style="fill:#0dc41e;fill-opacity:1"
     inkscape:connector-curvature="0" /><g
     style="font-style:normal;font-weight:normal;font-size:20px;line-height:125%;font-family:Sans;text-align:center;letter-spacing:0px;word-spacing:0px;text-anchor:middle;fill:#000000;fill-opacity:1;stroke:none;stroke-width:1px;stroke-linecap:butt;stroke-linejoin:miter;stroke-opacity:1"
     id="text4140"><path
       d="m 10.502285,26.748047 q 0,-7.958985 4.101563,-12.597656 2.050781,-2.294922 5.273437,-3.588868 3.222656,-1.3183589 6.884766,-1.3183589 7.592773,0 11.96289,4.7119139 4.394532,4.6875 4.394532,12.890625 0,3.491211 -1.049805,6.713867 -1.049805,3.198242 -2.954102,5.395508 -4.296875,5.151367 -12.353515,5.151367 -7.495118,0 -11.889649,-4.663086 -4.370117,-4.6875 -4.370117,-12.695312 z m 9.667969,-8.911133 q -2.514649,3.417969 -2.514649,8.862305 0,5.444336 2.514649,8.862304 2.539062,3.393555 6.640625,3.393555 4.394531,0 6.860351,-3.759766 2.294922,-3.540039 2.294922,-8.349609 0,-5.541992 -2.563476,-8.984375 -2.539063,-3.466797 -6.640625,-3.466797 -4.052735,0 -6.591797,3.442383 z"
       style="font-style:normal;font-variant:normal;font-weight:bold;font-stretch:normal;font-size:50px;font-family:'CartoGothic Std';-inkscape-font-specification:'CartoGothic Std Bold'"
       id="path4145" /></g></svg>