<?xml version="1.0" encoding="UTF-8" standalone="no"?>
<!-- Generator: Adobe Illustrator 12.0.1, SVG Export Plug-In  -->

<svg
   xmlns:dc="http://purl.org/dc/elements/1.1/"
   xmlns:cc="http://creativecommons.org/ns#"
   xmlns:rdf="http://www.w3.org/1999/02/22-rdf-syntax-ns#"
   xmlns:svg="http://www.w3.org/2000/svg"
   xmlns="http://www.w3.org/2000/svg"
   xmlns:sodipodi="http://sodipodi.sourceforge.net/DTD/sodipodi-0.dtd"
   xmlns:inkscape="http://www.inkscape.org/namespaces/inkscape"
   version="1.1"
   width="55"
   height="55"
   viewBox="-0.971 -0.697 55 55"
   enable-background="new -0.971 -0.697 55 55"
   xml:space="preserve"
   id="svg2"
   inkscape:version="0.91 r13725"
   sodipodi:docname="m_sud.svg"><metadata
     id="metadata14"><rdf:RDF><cc:Work
         rdf:about=""><dc:format>image/svg+xml</dc:format><dc:type
           rdf:resource="http://purl.org/dc/dcmitype/StillImage" /><dc:title></dc:title></cc:Work></rdf:RDF></metadata><sodipodi:namedview
     pagecolor="#ffffff"
     bordercolor="#666666"
     borderopacity="1"
     objecttolerance="10"
     gridtolerance="10"
     guidetolerance="10"
     inkscape:pageopacity="0"
     inkscape:pageshadow="2"
     inkscape:window-width="1274"
     inkscape:window-height="732"
     id="namedview12"
     showgrid="false"
     inkscape:zoom="4.2909091"
     inkscape:cx="29.059028"
     inkscape:cy="27.5"
     inkscape:window-x="0"
     inkscape:window-y="0"
     inkscape:window-maximized="0"
     inkscape:current-layer="svg2" /><defs
     id="defs4" /><path
     d="M 0,26.703 C 0,11.953 11.953,0 26.705,0 41.453,0 53.408,11.953 53.408,26.703 53.408,41.453 41.453,53.408 26.705,53.408 11.953,53.408 0,41.453 0,26.703"
     id="path6"
     style="fill:#e60f0f;fill-opacity:1"
     inkscape:connector-curvature="0" /><g
     transform="translate(27.228153,-15.612254)"
     style="font-style:normal;font-weight:normal;font-size:20px;line-height:125%;font-family:Sans;text-align:center;letter-spacing:0px;word-spacing:0px;text-anchor:middle;fill:#ffffff;fill-opacity:1;stroke:#ffffff;stroke-width:1px;stroke-linecap:butt;stroke-linejoin:miter;stroke-opacity:0"
     id="flowRoot4144"><path
       d="m -12.739746,33.712062 q 0,-5.102539 3.4106444,-7.949219 3.4106446,-2.84668 9.56054691,-2.84668 4.61914059,0 8.70117189,1.450195 l -0.6176758,6.042481 q -4.1894531,-1.826172 -7.65380859,-1.826172 -2.68554691,0 -4.27001951,1.181641 -1.5576172,1.18164 -1.5576172,3.222656 0,2.363281 2.2558594,3.625488 0.9936523,0.53711 5.0219726,2.148438 4.8339844,1.933593 6.9555664,4.484863 2.1215825,2.55127 2.1215825,6.525879 0,5.344238 -3.7060551,8.432617 -3.6791992,3.061524 -10.0439453,3.061524 -4.7265625,0 -9.4799806,-1.71875 l 0.671387,-6.606446 q 4.2968748,2.416992 8.2446287,2.443848 2.98095705,0 4.699707,-1.369629 1.7456055,-1.396484 1.7456055,-3.759766 0,-2.363281 -1.7724609,-3.518066 -1.10107424,-0.778809 -4.2163086,-2.041016 -4.6728516,-1.826172 -6.8212891,-3.625488 -3.2495116,-2.685547 -3.2495116,-7.358398 z"
       style="font-style:normal;font-variant:normal;font-weight:bold;font-stretch:normal;font-size:55px;font-family:'CartoGothic Std';-inkscape-font-specification:'CartoGothic Std Bold';fill:#ffffff;fill-opacity:1;stroke:#ffffff;stroke-opacity:0"
       id="path4178" /></g></svg>