<?xml version="1.0" encoding="UTF-8" standalone="no"?>
<!-- Generator: Adobe Illustrator 18.0.0, SVG Export Plug-In . SVG Version: 6.00 Build 0)  -->

<svg
   xmlns:dc="http://purl.org/dc/elements/1.1/"
   xmlns:cc="http://creativecommons.org/ns#"
   xmlns:rdf="http://www.w3.org/1999/02/22-rdf-syntax-ns#"
   xmlns:svg="http://www.w3.org/2000/svg"
   xmlns="http://www.w3.org/2000/svg"
   xmlns:sodipodi="../../../sodipodi.sourceforge.net/DTD/sodipodi-0.html"
   xmlns:inkscape="http://www.inkscape.org/namespaces/inkscape"
   version="1.1"
   id="Layer_1"
   x="0px"
   y="0px"
   viewBox="0 0 2000 2000"
   enable-background="new 0 0 2000 2000"
   xml:space="preserve"
   inkscape:version="0.91 r13725"
   sodipodi:docname="rer_AEX.svg"><metadata
     id="metadata13"><rdf:RDF><cc:Work
         rdf:about=""><dc:format>image/svg+xml</dc:format><dc:type
           rdf:resource="http://purl.org/dc/dcmitype/StillImage" /><dc:title /></cc:Work></rdf:RDF></metadata><defs
     id="defs11" /><sodipodi:namedview
     pagecolor="#ffffff"
     bordercolor="#666666"
     borderopacity="1"
     objecttolerance="10"
     gridtolerance="10"
     guidetolerance="10"
     inkscape:pageopacity="0"
     inkscape:pageshadow="2"
     inkscape:window-width="764"
     inkscape:window-height="588"
     id="namedview9"
     showgrid="false"
     inkscape:zoom="0.16"
     inkscape:cx="1000"
     inkscape:cy="888.79076"
     inkscape:window-x="252"
     inkscape:window-y="90"
     inkscape:window-maximized="0"
     inkscape:current-layer="Layer_1" /><path
     fill="#D07FB5"
     d="M0,1000C0,447.6,446.4,0,999.3,0C1552,0,2000,447.6,2000,1000c0,552.1-448,1000-1000.7,1000  C446.4,2000,0,1552.1,0,1000"
     id="path3"
     style="fill:#800080" /><path
     fill="#FFFFFF"
     d="M140.8,999.9c0-475.2,385.1-859.9,860-859.9s860,384.9,860,860s-385.1,860.1-860,860.1  C524.4,1860.1,140.8,1475.2,140.8,999.9"
     id="path5" /><flowRoot
     xml:space="preserve"
     id="flowRoot3341"
     style="fill:black;stroke:none;stroke-opacity:1;stroke-width:1px;stroke-linejoin:miter;stroke-linecap:butt;fill-opacity:1;font-family:Sans;font-style:normal;font-weight:normal;font-size:20px;line-height:125%;letter-spacing:0px;word-spacing:0px;text-anchor:middle;text-align:center"><flowRegion
       id="flowRegion3343"><rect
         id="rect3345"
         width="737.28815"
         height="1084.7457"
         x="635.5932"
         y="440.67798" /></flowRegion><flowPara
       id="flowPara3347" /></flowRoot><g
     style="font-style:normal;font-weight:normal;font-size:20px;line-height:125%;font-family:Sans;text-align:center;letter-spacing:0px;word-spacing:0px;text-anchor:middle;fill:#000000;fill-opacity:1;stroke:none;stroke-width:1px;stroke-linecap:butt;stroke-linejoin:miter;stroke-opacity:1"
     id="text3349"><path
       d="m 393.62305,1156.4635 209.1,0 40.8,141.1 104.55,0 -187,-586.50002 -122.4,0 -187,586.50002 101.15,0 40.8,-141.1 z m 188.7,-76.5 -168.3,0 84.15,-292.40002 84.15,292.40002 z"
       style="font-style:normal;font-variant:normal;font-weight:500;font-stretch:normal;font-size:850px;font-family:'Fira Mono';-inkscape-font-specification:'Fira Mono Medium';fill:#800080"
       id="path3345" /><path
       d="m 949.19102,961.81348 0,-175.95 243.09998,0 11.05,-74.8 -352.74998,0 0,586.50002 357.84998,0 0,-74.8 -259.24998,0 0,-186.15 212.49998,0 0,-74.80002 -212.49998,0 z"
       style="font-style:normal;font-variant:normal;font-weight:500;font-stretch:normal;font-size:850px;font-family:'Fira Mono';-inkscape-font-specification:'Fira Mono Medium';fill:#800080"
       id="path3347" /><path
       d="m 1406.159,711.06348 -109.65,0 162.35,274.55 -177.65,311.95002 106.25,0 130.05,-249.05 129.2,249.05 110.5,0 -180.2,-317.05002 162.35,-269.45 -105.4,0 -114.75,210.8 -113.05,-210.8 z"
       style="font-style:normal;font-variant:normal;font-weight:500;font-stretch:normal;font-size:850px;font-family:'Fira Mono';-inkscape-font-specification:'Fira Mono Medium';fill:#800080"
       id="path3349" /></g><flowRoot
     xml:space="preserve"
     id="flowRoot3353"
     style="fill:black;stroke:none;stroke-opacity:1;stroke-width:1px;stroke-linejoin:miter;stroke-linecap:butt;fill-opacity:1;font-family:Sans;font-style:normal;font-weight:normal;font-size:20px;line-height:125%;letter-spacing:0px;word-spacing:0px;text-anchor:middle;text-align:center"><flowRegion
       id="flowRegion3355"><rect
         id="rect3357"
         width="296.61017"
         height="84.745766"
         x="432.2034"
         y="711.86438" /></flowRegion><flowPara
       id="flowPara3359" /></flowRoot></svg>