<?xml version="1.0" encoding="UTF-8" standalone="no"?>
<!-- Generator: Adobe Illustrator 18.0.0, SVG Export Plug-In . SVG Version: 6.00 Build 0)  -->

<svg
   xmlns:dc="http://purl.org/dc/elements/1.1/"
   xmlns:cc="http://creativecommons.org/ns#"
   xmlns:rdf="http://www.w3.org/1999/02/22-rdf-syntax-ns#"
   xmlns:svg="http://www.w3.org/2000/svg"
   xmlns="http://www.w3.org/2000/svg"
   xmlns:sodipodi="http://sodipodi.sourceforge.net/DTD/sodipodi-0.dtd"
   xmlns:inkscape="http://www.inkscape.org/namespaces/inkscape"
   version="1.1"
   id="Layer_1"
   x="0px"
   y="0px"
   viewBox="0 0 2000 2000"
   enable-background="new 0 0 2000 2000"
   xml:space="preserve"
   inkscape:version="0.91 r13725"
   sodipodi:docname="rer_G.svg"><metadata
     id="metadata11"><rdf:RDF><cc:Work
         rdf:about=""><dc:format>image/svg+xml</dc:format><dc:type
           rdf:resource="http://purl.org/dc/dcmitype/StillImage" /></cc:Work></rdf:RDF></metadata><defs
     id="defs9" /><sodipodi:namedview
     pagecolor="#ffffff"
     bordercolor="#666666"
     borderopacity="1"
     objecttolerance="10"
     gridtolerance="10"
     guidetolerance="10"
     inkscape:pageopacity="0"
     inkscape:pageshadow="2"
     inkscape:window-width="1009"
     inkscape:window-height="660"
     id="namedview7"
     showgrid="false"
     inkscape:zoom="0.118"
     inkscape:cx="1000"
     inkscape:cy="1134.5395"
     inkscape:window-x="265"
     inkscape:window-y="54"
     inkscape:window-maximized="0"
     inkscape:current-layer="Layer_1" /><g
     id="g3339"><path
       id="path6401"
       d="M 0,999.8 C 0,447.4 447.6,0 1000.1,0 1552.4,0 2000,447.4 2000,999.8 2000,1552.1 1552.4,2000 1000.1,2000 447.6,1999.9 0,1552.1 0,999.8"
       inkscape:connector-curvature="0"
       style="fill:#854f1a;fill-opacity:1" /><path
       id="path6403"
       d="m 140.8,999.8 c 0,-475 384.8,-859.9 859.3,-859.9 474.5,0 859.2,384.9 859.2,859.9 0,475 -384.7,860.3 -859.2,860.3 -474.5,0 -859.3,-385.3 -859.3,-860.3"
       inkscape:connector-curvature="0"
       style="fill:#ffffff" /><g
       id="text4150"
       style="font-style:normal;font-variant:normal;font-weight:500;font-stretch:normal;font-size:1000px;line-height:125%;font-family:'Fira Sans';-inkscape-font-specification:'Fira Sans Medium';text-align:center;letter-spacing:0px;word-spacing:0px;text-anchor:middle;fill:#854f1a;fill-opacity:1;stroke:none;stroke-width:1px;stroke-linecap:butt;stroke-linejoin:miter;stroke-opacity:1"><path
         id="path3337"
         style="font-style:normal;font-variant:normal;font-weight:500;font-stretch:normal;font-size:1500px;font-family:'Fira Sans';-inkscape-font-specification:'Fira Sans Medium';fill:#854f1a;fill-opacity:1"
         d="m 1049.5215,449.47473 c -254.99995,0 -472.49995,189 -472.49995,540 0,355.49997 162,541.49997 449.99995,541.49997 141,0 264,-39 364.5,-102 l 0,-506.99997 -372,0 21,146.99997 156,0 0,270 c -49.5,28.5 -106.5,40.5 -165,40.5 -161.99995,0 -245.99995,-106.5 -245.99995,-389.99997 0,-279 126,-390 272.99995,-390 88.5,0 147,27 216,84 l 108,-112.5 c -87,-75 -186,-121.5 -333,-121.5 z" /></g></g></svg>