<?xml version="1.0" encoding="UTF-8" standalone="no"?>
<!-- Generator: Adobe Illustrator 18.0.0, SVG Export Plug-In . SVG Version: 6.00 Build 0)  -->

<svg
   xmlns:dc="http://purl.org/dc/elements/1.1/"
   xmlns:cc="http://creativecommons.org/ns#"
   xmlns:rdf="http://www.w3.org/1999/02/22-rdf-syntax-ns#"
   xmlns:svg="http://www.w3.org/2000/svg"
   xmlns="http://www.w3.org/2000/svg"
   xmlns:sodipodi="http://sodipodi.sourceforge.net/DTD/sodipodi-0.dtd"
   xmlns:inkscape="http://www.inkscape.org/namespaces/inkscape"
   version="1.1"
   id="Layer_1"
   x="0px"
   y="0px"
   viewBox="0 0 2000 2000"
   enable-background="new 0 0 2000 2000"
   xml:space="preserve"
   inkscape:version="0.91 r13725"
   sodipodi:docname="rer_PCE.svg"><metadata
     id="metadata11"><rdf:RDF><cc:Work
         rdf:about=""><dc:format>image/svg+xml</dc:format><dc:type
           rdf:resource="http://purl.org/dc/dcmitype/StillImage" /><dc:title></dc:title><dc:description></dc:description></cc:Work></rdf:RDF></metadata><defs
     id="defs9" /><sodipodi:namedview
     pagecolor="#ffffff"
     bordercolor="#666666"
     borderopacity="1"
     objecttolerance="10"
     gridtolerance="10"
     guidetolerance="10"
     inkscape:pageopacity="0"
     inkscape:pageshadow="2"
     inkscape:window-width="1009"
     inkscape:window-height="660"
     id="namedview7"
     showgrid="false"
     inkscape:zoom="0.118"
     inkscape:cx="1000"
     inkscape:cy="1134.5395"
     inkscape:window-x="265"
     inkscape:window-y="54"
     inkscape:window-maximized="0"
     inkscape:current-layer="Layer_1" /><g
     id="g3343"><path
       id="path6401"
       d="M 0,999.8 C 0,447.4 447.6,0 1000.1,0 1552.4,0 2000,447.4 2000,999.8 2000,1552.1 1552.4,2000 1000.1,2000 447.6,1999.9 0,1552.1 0,999.8"
       inkscape:connector-curvature="0"
       style="fill:#198d92;fill-opacity:1" /><path
       id="path6403"
       d="m 140.8,999.8 c 0,-475 384.8,-859.9 859.3,-859.9 474.5,0 859.2,384.9 859.2,859.9 0,475 -384.7,860.3 -859.2,860.3 -474.5,0 -859.3,-385.3 -859.3,-860.3"
       inkscape:connector-curvature="0"
       style="fill:#ffffff" /><g
       id="text4217"
       style="font-style:normal;font-weight:normal;font-size:625px;line-height:125%;font-family:Sans;text-align:center;letter-spacing:0px;word-spacing:0px;text-anchor:middle;fill:#198d92;fill-opacity:1;stroke:none;stroke-width:1px;stroke-linecap:butt;stroke-linejoin:miter;stroke-opacity:1"><path
         id="path3337"
         style="font-style:normal;font-variant:normal;font-weight:500;font-stretch:normal;font-size:875px;font-family:'Fira Mono';-inkscape-font-specification:'Fira Mono Medium';fill:#198d92;fill-opacity:1"
         d="m 698.03809,891.20972 c 0,-128.625 -90.125,-189.875 -242.375,-189.875 l -168,0 0,603.74998 102.375,0 0,-215.25 72.625,0 c 138.25,0 235.375,-57.75 235.375,-198.62498 z m -106.75,0 c 0,91 -51.625,120.74998 -127.75,120.74998 l -73.5,0 0,-234.49998 72.625,0 c 77.875,0 128.625,31.5 128.625,113.75 z" /><path
         id="path3339"
         style="font-style:normal;font-variant:normal;font-weight:500;font-stretch:normal;font-size:875px;font-family:'Fira Mono';-inkscape-font-specification:'Fira Mono Medium';fill:#198d92;fill-opacity:1"
         d="m 1042.4463,689.08472 c -147.87501,0 -267.75001,110.25 -267.75001,313.24998 0,204.75 115.5,314.125 269.50001,314.125 88.375,0 148.75,-32.375 189,-71.75 l -49,-62.125 c -33.25,26.25 -72.625,51.625 -136.5,51.625 -95.37501,0 -167.12501,-64.75 -167.12501,-231.875 0,-170.62498 76.125,-233.62498 166.25001,-233.62498 47.25,0 88.375,14.875 125.125,44.625 l 52.5,-63 c -49,-39.375 -99.75,-61.25 -182,-61.25 z" /><path
         id="path3341"
         style="font-style:normal;font-variant:normal;font-weight:500;font-stretch:normal;font-size:875px;font-family:'Fira Mono';-inkscape-font-specification:'Fira Mono Medium';fill:#198d92;fill-opacity:1"
         d="m 1454.2295,959.45972 0,-181.125 250.25,0 11.375,-77 -363.125,0 0,603.74998 368.375,0 0,-77 -266.875,0 0,-191.625 218.75,0 0,-76.99998 -218.75,0 z" /></g></g></svg>