<?xml version="1.0" encoding="UTF-8" standalone="no"?>
<!-- Created with Inkscape (http://www.inkscape.org/) -->

<svg
   xmlns:dc="http://purl.org/dc/elements/1.1/"
   xmlns:cc="http://creativecommons.org/ns#"
   xmlns:rdf="http://www.w3.org/1999/02/22-rdf-syntax-ns#"
   xmlns:svg="http://www.w3.org/2000/svg"
   xmlns="http://www.w3.org/2000/svg"
   xmlns:sodipodi="../../../sodipodi.sourceforge.net/DTD/sodipodi-0.html"
   xmlns:inkscape="http://www.inkscape.org/namespaces/inkscape"
   x="0px"
   y="0px"
   width="200px"
   height="200px"
   viewBox="0 0 200 200"
   enable-background="new 0 0 200 200"
   id="svg2484"
   sodipodi:version="0.32"
   inkscape:version="0.91 r13725"
   version="1.0"
   sodipodi:docname="tg_ess.svg"
   inkscape:output_extension="org.inkscape.output.svg.inkscape">
  <defs
     id="defs2486" />
  <sodipodi:namedview
     id="base"
     pagecolor="#ffffff"
     bordercolor="#666666"
     borderopacity="1.0"
     inkscape:pageopacity="0.0"
     inkscape:pageshadow="2"
     inkscape:zoom="1.4"
     inkscape:cx="100.96244"
     inkscape:cy="124.42309"
     inkscape:document-units="px"
     inkscape:current-layer="layer1"
     showgrid="false"
     inkscape:window-width="858"
     inkscape:window-height="510"
     inkscape:window-x="366"
     inkscape:window-y="178"
     inkscape:window-maximized="0" />
  <metadata
     id="metadata2489">
    <rdf:RDF>
      <cc:Work
         rdf:about="">
        <dc:format>image/svg+xml</dc:format>
        <dc:type
           rdf:resource="http://purl.org/dc/dcmitype/StillImage" />
        <dc:title></dc:title>
      </cc:Work>
    </rdf:RDF>
  </metadata>
  <g
     inkscape:label="Calque 1"
     inkscape:groupmode="layer"
     id="layer1"
     transform="translate(1125.7177,-818.59852)">
    <g
       transform="matrix(0.6451613,0,0,0.6451613,-1019.3872,713.38791)"
       id="g2757"
       inkscape:label="Calque 1"
       style="stroke:#0062ac;stroke-opacity:1">
      <g
         id="g2656"
         style="stroke:#0062ac;stroke-opacity:1">
        <g
           id="g2840"
           transform="translate(346.23962,22.336208)"
           style="fill:#ffffff;stroke:#0062ac;stroke-opacity:1">
          <g
             style="fill:#ffffff;stroke:#0062ac;stroke-opacity:1"
             inkscape:label="Calque 1"
             id="g2639"
             transform="translate(-597.84164,-361.66719)">
            <g
               style="fill:#ffffff;stroke:#0062ac;stroke-opacity:1"
               id="g2628">
              <g
                 style="fill:#ffffff;stroke:#0062ac;stroke-opacity:1"
                 transform="matrix(1.0136364,0,0,1.0136364,-6.3061891,-6.3640296)"
                 id="g6673">
                <rect
                   style="opacity:1;fill:#ffffff;fill-opacity:1;fill-rule:nonzero;stroke:#0062ac;stroke-width:22.54545593;stroke-linejoin:miter;stroke-miterlimit:4;stroke-dasharray:none;stroke-dashoffset:0;stroke-opacity:1"
                   id="rect5674"
                   width="283.28412"
                   height="283.28415"
                   x="103.11621"
                   y="513.19971"
                   ry="41.278507" />
              </g>
            </g>
          </g>
        </g>
      </g>
    </g>
    <g
       style="font-style:normal;font-weight:normal;font-size:20px;line-height:125%;font-family:Sans;text-align:center;letter-spacing:0px;word-spacing:0px;text-anchor:middle;fill:#0062ac;fill-opacity:1;stroke:none;stroke-width:1px;stroke-linecap:butt;stroke-linejoin:miter;stroke-opacity:1"
       id="text4196">
      <path
         d="m -1088.6334,967.16998 0,-100.04883 59.2529,0 0,16.33301 -39.0381,0 0,24.31641 35.7422,0 0,16.33301 -35.7422,0 0,26.7334 39.624,0 0,16.333 -59.8388,0 z"
         style="font-style:normal;font-variant:normal;font-weight:bold;font-stretch:normal;font-size:150px;font-family:'CartoGothic Std';-inkscape-font-specification:'CartoGothic Std Bold';fill:#0062ac;fill-opacity:1"
         id="path4201" />
      <path
         d="m -1014.8053,914.65533 q 0,-10.47363 8.1299,-16.69921 8.20311,-6.22559 22.19237,-6.22559 8.8623,0 19.33594,2.70996 l -1.39161,14.50195 q -8.27636,-3.00293 -16.333,-3.00293 -5.71289,0 -9.30176,2.19727 -3.58887,2.19727 -3.58887,5.63965 0,2.70996 2.56348,4.39453 2.56347,1.61133 11.05957,4.46777 9.30176,3.14942 12.30469,5.34668 7.61718,5.56641 7.69042,16.55274 0,11.27929 -8.12988,17.65136 -8.05664,6.29883 -22.48535,6.29883 -9.0088,0 -21.7529,-3.2959 l 0.8789,-16.18652 q 9.7412,5.27344 18.60349,5.27344 6.00586,0 9.74121,-2.34375 3.8086,-2.34375 3.8086,-6.22559 0,-3.2959 -3.8086,-5.5664 -2.2705,-1.31836 -10.62011,-4.17481 -10.03419,-3.44238 -14.50199,-8.34961 -4.3945,-4.98047 -4.3945,-12.96387 z"
         style="font-style:normal;font-variant:normal;font-weight:bold;font-stretch:normal;font-size:150px;font-family:'CartoGothic Std';-inkscape-font-specification:'CartoGothic Std Bold';fill:#0062ac;fill-opacity:1"
         id="path4203" />
    </g>
  </g>
</svg>
