<?xml version="1.0" encoding="UTF-8" standalone="no"?>
<!-- Created with Inkscape (http://www.inkscape.org/) -->

<svg
   xmlns:dc="http://purl.org/dc/elements/1.1/"
   xmlns:cc="http://creativecommons.org/ns#"
   xmlns:rdf="http://www.w3.org/1999/02/22-rdf-syntax-ns#"
   xmlns:svg="http://www.w3.org/2000/svg"
   xmlns="http://www.w3.org/2000/svg"
   xmlns:sodipodi="../../../sodipodi.sourceforge.net/DTD/sodipodi-0.html"
   xmlns:inkscape="http://www.inkscape.org/namespaces/inkscape"
   x="0px"
   y="0px"
   width="200px"
   height="200px"
   viewBox="0 0 200 200"
   enable-background="new 0 0 200 200"
   id="svg2484"
   sodipodi:version="0.32"
   inkscape:version="0.91 r13725"
   version="1.0"
   sodipodi:docname="../../index.html"
   inkscape:output_extension="org.inkscape.output.svg.inkscape">
  <defs
     id="defs2486" />
  <sodipodi:namedview
     id="base"
     pagecolor="#ffffff"
     bordercolor="#666666"
     borderopacity="1.0"
     inkscape:pageopacity="0.0"
     inkscape:pageshadow="2"
     inkscape:zoom="1.4"
     inkscape:cx="79.06682"
     inkscape:cy="85.511492"
     inkscape:document-units="px"
     inkscape:current-layer="layer1"
     showgrid="false"
     inkscape:window-width="879"
     inkscape:window-height="524"
     inkscape:window-x="345"
     inkscape:window-y="164"
     inkscape:window-maximized="0" />
  <metadata
     id="metadata2489">
    <rdf:RDF>
      <cc:Work
         rdf:about="">
        <dc:format>image/svg+xml</dc:format>
        <dc:type
           rdf:resource="http://purl.org/dc/dcmitype/StillImage" />
        <dc:title />
      </cc:Work>
    </rdf:RDF>
  </metadata>
  <g
     inkscape:label="Calque 1"
     inkscape:groupmode="layer"
     id="layer1"
     transform="translate(1125.7177,-818.59852)">
    <g
       id="g4769">
      <flowRoot
         transform="translate(-1125.7177,818.59852)"
         style="font-style:normal;font-weight:normal;font-size:20px;line-height:125%;font-family:Sans;text-align:center;letter-spacing:0px;word-spacing:0px;text-anchor:middle;fill:#000000;fill-opacity:1;stroke:none;stroke-width:1px;stroke-linecap:butt;stroke-linejoin:miter;stroke-opacity:1"
         id="flowRoot4179"
         xml:space="preserve"><flowRegion
           id="flowRegion4181"><rect
             y="29.28573"
             x="42.857143"
             height="137.14285"
             width="162.14285"
             id="rect4183" /></flowRegion><flowPara
           style="-inkscape-font-specification:'CartoGothic Std Bold';font-family:'CartoGothic Std';font-weight:bold;font-style:normal;font-stretch:normal;font-variant:normal;font-size:150px"
           id="flowPara4185">Vo</flowPara></flowRoot>      <g
         style="stroke:#0062ac;stroke-opacity:1"
         inkscape:label="Calque 1"
         id="g2757"
         transform="matrix(0.6451613,0,0,0.6451613,-1019.3872,713.38791)">
        <g
           style="stroke:#0062ac;stroke-opacity:1"
           id="g2656">
          <g
             style="fill:#ffffff;stroke:#0062ac;stroke-opacity:1"
             transform="translate(346.23962,22.336208)"
             id="g2840">
            <g
               transform="translate(-597.84164,-361.66719)"
               id="g2639"
               inkscape:label="Calque 1"
               style="fill:#ffffff;stroke:#0062ac;stroke-opacity:1">
              <g
                 id="g2628"
                 style="fill:#ffffff;stroke:#0062ac;stroke-opacity:1">
                <g
                   id="g6673"
                   transform="matrix(1.0136364,0,0,1.0136364,-6.3061891,-6.3640296)"
                   style="fill:#ffffff;stroke:#0062ac;stroke-opacity:1">
                  <rect
                     ry="41.278507"
                     y="513.19971"
                     x="103.11621"
                     height="283.28415"
                     width="283.28412"
                     id="rect5674"
                     style="opacity:1;fill:#ffffff;fill-opacity:1;fill-rule:nonzero;stroke:#0062ac;stroke-width:22.54545593;stroke-linejoin:miter;stroke-miterlimit:4;stroke-dasharray:none;stroke-dashoffset:0;stroke-opacity:1" />
                </g>
              </g>
            </g>
          </g>
        </g>
      </g>
      <g
         id="text4158"
         style="font-style:normal;font-weight:normal;font-size:20px;line-height:125%;font-family:Sans;text-align:center;letter-spacing:0px;word-spacing:0px;text-anchor:middle;fill:#0062ac;fill-opacity:1;stroke:none;stroke-width:1px;stroke-linecap:butt;stroke-linejoin:miter;stroke-opacity:1">
        <path
           id="path4765"
           style="font-style:normal;font-variant:normal;font-weight:bold;font-stretch:normal;font-size:118.75px;font-family:'CartoGothic Std';-inkscape-font-specification:'CartoGothic Std Bold';fill:#0062ac;fill-opacity:1"
           d="m -1101.6179,896.61932 q 0,-11.01684 7.3639,-17.16308 7.3639,-6.14624 20.6421,-6.14624 9.9731,0 18.7866,3.1311 l -1.3336,13.04627 q -9.0454,-3.94288 -16.5253,-3.94288 -5.7983,0 -9.2194,2.55127 -3.363,2.55127 -3.363,6.95801 0,5.10254 4.8706,7.82776 2.1454,1.15967 10.8429,4.63867 10.437,4.17481 15.0177,9.68323 4.5807,5.50842 4.5807,14.08997 0,11.53869 -8.0017,18.20678 -7.9437,6.61011 -21.6858,6.61011 -10.2051,0 -20.4682,-3.71094 l 1.4496,-14.26391 q 9.2774,5.2185 17.8009,5.27649 6.4362,0 10.1471,-2.95716 3.769,-3.01513 3.769,-8.11767 0,-5.10254 -3.827,-7.59583 -2.3773,-1.68152 -9.1033,-4.40674 -10.0892,-3.94287 -14.7278,-7.82776 -7.016,-5.79833 -7.016,-15.88745 z" />
        <path
           id="path4767"
           style="font-style:normal;font-variant:normal;font-weight:bold;font-stretch:normal;font-size:118.75px;font-family:'CartoGothic Std';-inkscape-font-specification:'CartoGothic Std Bold';fill:#0062ac;fill-opacity:1"
           d="m -1037.1404,895.51764 14.6118,0 0.232,8.92944 q 6.4361,-9.85718 18.4387,-9.85718 11.42272,0 16.35131,10.43702 6.03027,-10.43702 18.55469,-10.43702 11.42273,0 16.00341,8.52356 2.72522,5.33448 2.72522,17.10511 l 0,34.09424 -15.19165,0 0,-28.52784 q 0,-9.39331 -1.0437,-12.58239 -2.14538,-5.91431 -8.11767,-5.91431 -6.43616,0 -9.4513,6.90002 -1.79748,4.05884 -1.79748,12.9303 l 0,27.19422 -15.19163,0 0,-30.03541 q 0,-9.39331 -1.3336,-12.11853 -2.3774,-4.8706 -7.5959,-4.8706 -5.6823,0 -9.2773,5.91431 -2.2614,3.8269 -2.2614,11.65466 l 0,29.45557 -15.1916,0 0,-44.41529 q 0,-7.71179 -0.4639,-14.37988 z" />
      </g>
    </g>
  </g>
</svg>
