<?xml version="1.0" encoding="UTF-8" standalone="no"?>
<!-- Created with Inkscape (http://www.inkscape.org/) -->

<svg
   xmlns:dc="http://purl.org/dc/elements/1.1/"
   xmlns:cc="http://creativecommons.org/ns#"
   xmlns:rdf="http://www.w3.org/1999/02/22-rdf-syntax-ns#"
   xmlns:svg="http://www.w3.org/2000/svg"
   xmlns="http://www.w3.org/2000/svg"
   xmlns:sodipodi="../../../sodipodi.sourceforge.net/DTD/sodipodi-0.html"
   xmlns:inkscape="http://www.inkscape.org/namespaces/inkscape"

   x="0px"
   y="0px"
   width="200px"
   height="200px"
   viewBox="0 0 200 200"
   enable-background="new 0 0 200 200"
   id="svg2484"
   sodipodi:version="0.32"
   inkscape:version="0.91 r13725"
   version="1.0"
   sodipodi:docname="logo_tg.svg"
   inkscape:output_extension="org.inkscape.output.svg.inkscape">
  <defs
     id="defs2486" />
  <sodipodi:namedview
     id="base"
     pagecolor="#ffffff"
     bordercolor="#666666"
     borderopacity="1.0"
     inkscape:pageopacity="0.0"
     inkscape:pageshadow="2"
     inkscape:zoom="1.4"
     inkscape:cx="74.367254"
     inkscape:cy="100.63738"
     inkscape:document-units="px"
     inkscape:current-layer="layer1"
     showgrid="false"
     inkscape:window-width="890"
     inkscape:window-height="535"
     inkscape:window-x="334"
     inkscape:window-y="153"
     inkscape:window-maximized="0" />
  <metadata
     id="metadata2489">
    <rdf:RDF>
      <cc:Work
         rdf:about="">
        <dc:format>image/svg+xml</dc:format>
        <dc:type
           rdf:resource="http://purl.org/dc/dcmitype/StillImage" />
        <dc:title />
      </cc:Work>
    </rdf:RDF>
  </metadata>
  <g
     inkscape:label="Calque 1"
     inkscape:groupmode="layer"
     id="layer1"
     transform="translate(1125.7177,-818.59852)">
    <g
       id="g4157">
      <g
         style="stroke:#0062ac;stroke-opacity:1"
         inkscape:label="Calque 1"
         id="g2757"
         transform="matrix(0.6451613,0,0,0.6451613,-1019.3872,713.38791)">
        <g
           style="stroke:#0062ac;stroke-opacity:1"
           id="g2656">
          <g
             style="fill:#ffffff;stroke:#0062ac;stroke-opacity:1"
             transform="translate(346.23962,22.336208)"
             id="g2840">
            <g
               transform="translate(-597.84164,-361.66719)"
               id="g2639"
               inkscape:label="Calque 1"
               style="fill:#ffffff;stroke:#0062ac;stroke-opacity:1">
              <g
                 id="g2628"
                 style="fill:#ffffff;stroke:#0062ac;stroke-opacity:1">
                <g
                   id="g6673"
                   transform="matrix(1.0136364,0,0,1.0136364,-6.3061891,-6.3640296)"
                   style="fill:#ffffff;stroke:#0062ac;stroke-opacity:1">
                  <rect
                     ry="41.278507"
                     y="513.19971"
                     x="103.11621"
                     height="283.28415"
                     width="283.28412"
                     id="rect5674"
                     style="opacity:1;fill:#ffffff;fill-opacity:1;fill-rule:nonzero;stroke:#0062ac;stroke-width:22.54545593;stroke-linejoin:miter;stroke-miterlimit:4;stroke-dasharray:none;stroke-dashoffset:0;stroke-opacity:1" />
                </g>
              </g>
            </g>
          </g>
        </g>
      </g>
      <g
         id="text4150"
         style="font-style:normal;font-weight:normal;font-size:20px;line-height:125%;font-family:Sans;text-align:center;letter-spacing:0px;word-spacing:0px;text-anchor:middle;fill:#0062ac;fill-opacity:1;stroke:none;stroke-width:1px;stroke-linecap:butt;stroke-linejoin:miter;stroke-opacity:1">
        <path
           id="path4143"
           style="font-style:normal;font-variant:normal;font-weight:bold;font-stretch:normal;font-size:125px;font-family:'CartoGothic Std';-inkscape-font-specification:'CartoGothic Std Bold';fill:#0062ac;fill-opacity:1;stroke:none;stroke-opacity:1"
           d="m -1091.3419,879.54962 0,-13.61084 64.6362,0 0,13.61084 -23.9868,0 0,69.76319 -16.8457,0 0,-69.76319 -23.8037,0 z" />
        <path
           id="path4145"
           style="font-style:normal;font-variant:normal;font-weight:bold;font-stretch:normal;font-size:125px;font-family:'CartoGothic Std';-inkscape-font-specification:'CartoGothic Std Bold';fill:#0062ac;fill-opacity:1;stroke:none;stroke-opacity:1"
           d="m -1020.9073,917.69659 q 0,-14.7705 6.8359,-23.07128 6.897,-8.30079 19.04296,-8.30079 13.3667,0 18.98193,11.23047 l 0.24414,-10.00976 15.25879,0 0,54.26025 q 0,9.52149 -1.64795,15.13672 -1.58691,5.61523 -5.61523,9.8877 -8.48389,8.85009 -24.84131,8.85009 -10.49803,0 -21.78953,-4.39453 l 1.2817,-13.85498 q 10.1319,5.24902 18.73781,5.24902 12.39014,0 16.60156,-8.97216 1.09863,-2.2583 1.46485,-5.12696 0.42724,-2.86865 0.79345,-11.65771 -6.7749,12.39014 -20.87402,12.39014 -11.23045,0 -17.88335,-8.54493 -6.5917,-8.54492 -6.5917,-23.07129 z m 16.6015,-0.24414 q 0,8.48389 3.7232,13.67188 3.78414,5.18799 9.88765,5.18799 6.16455,0 10.19287,-5.24903 4.08936,-5.24902 4.08936,-13.00048 0,-8.11768 -4.08936,-13.30567 -4.02832,-5.18799 -10.31494,-5.18799 -6.10351,0 -9.82668,4.88282 -3.6621,4.88281 -3.6621,13.00048 z" />
      </g>
    </g>
  </g>
</svg>
