<?xml version="1.0" encoding="UTF-8" standalone="no"?>
<!-- Generator: Adobe Illustrator 12.0.1, SVG Export Plug-In  -->

<svg
   xmlns:dc="http://purl.org/dc/elements/1.1/"
   xmlns:cc="http://creativecommons.org/ns#"
   xmlns:rdf="http://www.w3.org/1999/02/22-rdf-syntax-ns#"
   xmlns:svg="http://www.w3.org/2000/svg"
   xmlns="http://www.w3.org/2000/svg"
   xmlns:sodipodi="../../../sodipodi.sourceforge.net/DTD/sodipodi-0.html"
   xmlns:inkscape="http://www.inkscape.org/namespaces/inkscape"
   version="1.1"
   width="55"
   height="55"
   viewBox="-0.971 -0.697 55 55"
   enable-background="new -0.971 -0.697 55 55"
   xml:space="preserve"
   id="svg2"
   inkscape:version="0.48.2 r9819"
   sodipodi:docname="../../index.html"><metadata
   id="metadata14"><rdf:RDF><cc:Work
       rdf:about=""><dc:format>image/svg+xml</dc:format><dc:type
         rdf:resource="http://purl.org/dc/dcmitype/StillImage" /><dc:title></dc:title></cc:Work></rdf:RDF></metadata><sodipodi:namedview
   pagecolor="#ffffff"
   bordercolor="#666666"
   borderopacity="1"
   objecttolerance="10"
   gridtolerance="10"
   guidetolerance="10"
   inkscape:pageopacity="0"
   inkscape:pageshadow="2"
   inkscape:window-width="1815"
   inkscape:window-height="945"
   id="namedview12"
   showgrid="false"
   inkscape:zoom="4.2909091"
   inkscape:cx="-13.983051"
   inkscape:cy="27.5"
   inkscape:window-x="0"
   inkscape:window-y="0"
   inkscape:window-maximized="0"
   inkscape:current-layer="svg2" />
<defs
   id="defs4" />



<g
   id="g3932"><path
     inkscape:connector-curvature="0"
     style="fill:#ec7cae;fill-opacity:1"
     id="path6"
     d="M 0,26.703 C 0,11.953 11.953,0 26.705,0 41.453,0 53.408,11.953 53.408,26.703 53.408,41.453 41.453,53.408 26.705,53.408 11.953,53.408 0,41.453 0,26.703" /></g><path
   d="M 20.4,40.859 V 12.564 h -4.936 c -1.279,1 -4.32,2.889 -7.611,4.451 l -1.725,0.789 1.92,4.336 1.488,-0.756 c 1.035,-0.525 3.891,-2 4.848,-2.768 V 40.858 H 20.4"
   id="path8"
   inkscape:connector-curvature="0"
   style="fill:#ffffff" /><path
   style="fill:#ffffff;fill-opacity:1"
   inkscape:connector-curvature="0"
   d="m 43.960728,17.1645 v -4.609 h -19.801 v 4.73 h 13.746 l -6.89,12.828 c -2.488,4.621 -3.488,7.008 -3.488,10.754 h 6.457 c -10e-4,-4.453 3.757,-12.91 9.976,-23.703"
   id="path3913" /></svg>