<?xml version="1.0" encoding="UTF-8" standalone="no"?>
<!-- Generator: Adobe Illustrator 12.0.1, SVG Export Plug-In  -->

<svg
   xmlns:dc="http://purl.org/dc/elements/1.1/"
   xmlns:cc="http://creativecommons.org/ns#"
   xmlns:rdf="http://www.w3.org/1999/02/22-rdf-syntax-ns#"
   xmlns:svg="http://www.w3.org/2000/svg"
   xmlns="http://www.w3.org/2000/svg"
   xmlns:sodipodi="../../../sodipodi.sourceforge.net/DTD/sodipodi-0.html"
   xmlns:inkscape="http://www.inkscape.org/namespaces/inkscape"
   version="1.1"
   width="55"
   height="55"
   viewBox="-0.971 -0.697 55 55"
   enable-background="new -0.971 -0.697 55 55"
   xml:space="preserve"
   id="svg2"
   inkscape:version="0.48.2 r9819"
   sodipodi:docname="../../index.html"><metadata
   id="metadata14"><rdf:RDF><cc:Work
       rdf:about=""><dc:format>image/svg+xml</dc:format><dc:type
         rdf:resource="http://purl.org/dc/dcmitype/StillImage" /><dc:title></dc:title></cc:Work></rdf:RDF></metadata><sodipodi:namedview
   pagecolor="#ffffff"
   bordercolor="#666666"
   borderopacity="1"
   objecttolerance="10"
   gridtolerance="10"
   guidetolerance="10"
   inkscape:pageopacity="0"
   inkscape:pageshadow="2"
   inkscape:window-width="1842"
   inkscape:window-height="906"
   id="namedview12"
   showgrid="false"
   inkscape:zoom="4.2909091"
   inkscape:cx="-13.75"
   inkscape:cy="27.5"
   inkscape:window-x="0"
   inkscape:window-y="0"
   inkscape:window-maximized="0"
   inkscape:current-layer="svg2" />
<defs
   id="defs4" />



<g
   id="g3827"><path
     style="fill:#95bf32;fill-opacity:1"
     id="path6"
     d="M0,26.703C0,11.953,11.953,0,26.705,0c14.748,0,26.703,11.953,26.703,26.703S41.453,53.408,26.705,53.408  C11.953,53.408,0,41.453,0,26.703"
     fill="#672F8F" /><path
     id="path8"
     d="M20.4,40.859V12.564h-4.936c-1.279,1-4.32,2.889-7.611,4.451l-1.725,0.789l1.92,4.336l1.488-0.756  c1.035-0.525,3.891-2,4.848-2.768v22.242H20.4"
     fill="#FFFFFF" /><path
     id="path3815"
     d="m 44.32568,32.707449 c 0,-3.719 -2.283,-5.973 -4.891,-7.203 2.646,-1.613 4.016,-3.656 4.016,-6.297 0,-4.86 -4.133,-7.31 -9.104,-7.31 -4.854,0 -9.102,3.255 -9.102,7.942 0,2.926 1.525,4.648 3.965,6.172 -2.725,1.402 -4.848,3.617 -4.848,7.379 0,4.293 3.562,8.059 9.859,8.059 5.814,0 10.105,-3.363 10.105,-8.742 m -6.291,-13.145 c 0,1.77 -1.604,3.402 -3.088,4.09 -1.801,-0.762 -4.129,-2.008 -4.129,-4.328 0,-1.961 1.4,-3.328 3.607,-3.328 2.324,0 3.61,1.597 3.61,3.566 z m 0.439,13.59 c 0,2.246 -1.484,4.133 -4.172,4.133 -2.729,0 -4.248,-2.215 -4.248,-4.535 0,-2.199 1.844,-4.043 3.688,-4.77 2.404,1.203 4.732,2.606 4.732,5.172 z"
     inkscape:connector-curvature="0"
     style="fill:#ffffff;fill-opacity:1" /></g></svg>