<?xml version="1.0" encoding="UTF-8" standalone="no"?>
<!-- Created with Inkscape (http://www.inkscape.org/) -->

<svg
   xmlns:dc="http://purl.org/dc/elements/1.1/"
   xmlns:cc="http://creativecommons.org/ns#"
   xmlns:rdf="http://www.w3.org/1999/02/22-rdf-syntax-ns#"
   xmlns:svg="http://www.w3.org/2000/svg"
   xmlns="http://www.w3.org/2000/svg"
   xmlns:sodipodi="../../../sodipodi.sourceforge.net/DTD/sodipodi-0.html"
   xmlns:inkscape="http://www.inkscape.org/namespaces/inkscape"
   x="0px"
   y="0px"
   width="200px"
   height="200px"
   viewBox="0 0 200 200"
   enable-background="new 0 0 200 200"
   id="svg2484"
   sodipodi:version="0.32"
   inkscape:version="0.91 r13725"
   version="1.0"
   sodipodi:docname="../../index.html"
   inkscape:output_extension="org.inkscape.output.svg.inkscape">
  <defs
     id="defs2486" />
  <sodipodi:namedview
     id="base"
     pagecolor="#ffffff"
     bordercolor="#666666"
     borderopacity="1.0"
     inkscape:pageopacity="0.0"
     inkscape:pageshadow="2"
     inkscape:zoom="1.4"
     inkscape:cx="79.06682"
     inkscape:cy="85.511492"
     inkscape:document-units="px"
     inkscape:current-layer="layer1"
     showgrid="false"
     inkscape:window-width="879"
     inkscape:window-height="524"
     inkscape:window-x="345"
     inkscape:window-y="164"
     inkscape:window-maximized="0" />
  <metadata
     id="metadata2489">
    <rdf:RDF>
      <cc:Work
         rdf:about="">
        <dc:format>image/svg+xml</dc:format>
        <dc:type
           rdf:resource="http://purl.org/dc/dcmitype/StillImage" />
        <dc:title></dc:title>
      </cc:Work>
    </rdf:RDF>
  </metadata>
  <g
     inkscape:label="Calque 1"
     inkscape:groupmode="layer"
     id="layer1"
     transform="translate(1125.7177,-818.59852)">
    <g
       id="g4180">
      <flowRoot
         transform="translate(-1125.7177,818.59852)"
         style="font-style:normal;font-weight:normal;font-size:20px;line-height:125%;font-family:Sans;text-align:center;letter-spacing:0px;word-spacing:0px;text-anchor:middle;fill:#000000;fill-opacity:1;stroke:none;stroke-width:1px;stroke-linecap:butt;stroke-linejoin:miter;stroke-opacity:1"
         id="flowRoot4179"
         xml:space="preserve"><flowRegion
           id="flowRegion4181"><rect
             y="29.28573"
             x="42.857143"
             height="137.14285"
             width="162.14285"
             id="rect4183" /></flowRegion><flowPara
           style="-inkscape-font-specification:'CartoGothic Std Bold';font-family:'CartoGothic Std';font-weight:bold;font-style:normal;font-stretch:normal;font-variant:normal;font-size:150px"
           id="flowPara4185">Vo</flowPara></flowRoot>      <g
         style="stroke:#0062ac;stroke-opacity:1"
         inkscape:label="Calque 1"
         id="g2757"
         transform="matrix(0.6451613,0,0,0.6451613,-1019.3872,713.38791)">
        <g
           style="stroke:#0062ac;stroke-opacity:1"
           id="g2656">
          <g
             style="fill:#ffffff;stroke:#0062ac;stroke-opacity:1"
             transform="translate(346.23962,22.336208)"
             id="g2840">
            <g
               transform="translate(-597.84164,-361.66719)"
               id="g2639"
               inkscape:label="Calque 1"
               style="fill:#ffffff;stroke:#0062ac;stroke-opacity:1">
              <g
                 id="g2628"
                 style="fill:#ffffff;stroke:#0062ac;stroke-opacity:1">
                <g
                   id="g6673"
                   transform="matrix(1.0136364,0,0,1.0136364,-6.3061891,-6.3640296)"
                   style="fill:#ffffff;stroke:#0062ac;stroke-opacity:1">
                  <rect
                     ry="41.278507"
                     y="513.19971"
                     x="103.11621"
                     height="283.28415"
                     width="283.28412"
                     id="rect5674"
                     style="opacity:1;fill:#ffffff;fill-opacity:1;fill-rule:nonzero;stroke:#0062ac;stroke-width:22.54545593;stroke-linejoin:miter;stroke-miterlimit:4;stroke-dasharray:none;stroke-dashoffset:0;stroke-opacity:1" />
                </g>
              </g>
            </g>
          </g>
        </g>
      </g>
      <g
         id="text4158"
         style="font-style:normal;font-weight:normal;font-size:20px;line-height:125%;font-family:Sans;text-align:center;letter-spacing:0px;word-spacing:0px;text-anchor:middle;fill:#0062ac;fill-opacity:1;stroke:none;stroke-width:1px;stroke-linecap:butt;stroke-linejoin:miter;stroke-opacity:1">
        <path
           id="path4176"
           style="font-style:normal;font-variant:normal;font-weight:bold;font-stretch:normal;font-size:118.75px;font-family:'CartoGothic Std';-inkscape-font-specification:'CartoGothic Std Bold';fill:#0062ac;fill-opacity:1"
           d="m -1085.0347,896.61932 q 0,-11.01684 7.3639,-17.16308 7.3639,-6.14624 20.6421,-6.14624 9.9732,0 18.7866,3.1311 l -1.3336,13.04627 q -9.0454,-3.94288 -16.5253,-3.94288 -5.7983,0 -9.2193,2.55127 -3.363,2.55127 -3.363,6.95801 0,5.10254 4.8706,7.82776 2.1453,1.15967 10.8429,4.63867 10.437,4.17481 15.0177,9.68323 4.5806,5.50842 4.5806,14.08997 0,11.53869 -8.0017,18.20678 -7.9437,6.61011 -21.6858,6.61011 -10.205,0 -20.4681,-3.71094 l 1.4496,-14.26391 q 9.2773,5.2185 17.8009,5.27649 6.4361,0 10.1471,-2.95716 3.7689,-3.01513 3.7689,-8.11767 0,-5.10254 -3.8269,-7.59583 -2.3773,-1.68152 -9.1034,-4.40674 -10.0891,-3.94287 -14.7278,-7.82776 -7.016,-5.79833 -7.016,-15.88745 z" />
        <path
           id="path4178"
           style="font-style:normal;font-variant:normal;font-weight:bold;font-stretch:normal;font-size:118.75px;font-family:'CartoGothic Std';-inkscape-font-specification:'CartoGothic Std Bold';fill:#0062ac;fill-opacity:1"
           d="m -1023.8622,923.9295 q 0,-13.27819 6.6681,-21.33789 6.7261,-8.11767 17.68494,-8.11767 12.2345,0 18.26478,10.78491 -0.57984,-5.33447 -0.57984,-10.32104 l 0,-26.15052 15.19165,0 0,68.42041 q 0,8.81348 0.46387,17.10511 l -14.37988,0 -0.23194,-9.97315 q -5.33447,10.90088 -18.4967,10.90088 -11.65468,0 -18.14878,-8.29163 -6.4362,-8.29162 -6.4362,-23.01941 z m 15.7715,0.69581 q 0,8.40759 3.595,13.56811 3.6529,5.10254 9.56723,5.10254 5.97229,0 9.62525,-4.92859 3.71093,-4.92859 3.71093,-12.9303 0,-8.29162 -3.8269,-13.2782 -3.76892,-4.98657 -10.08911,-4.98657 -5.7983,0 -9.2194,4.69666 -3.363,4.69665 -3.363,12.75635 z" />
      </g>
    </g>
  </g>
</svg>
